<svg width="31" height="34" viewBox="0 0 31 34" fill="none" xmlns="http://www.w3.org/2000/svg">
<g clip-path="url(#clip0_4823_25639)">
<path d="M3.86934 8.69706C3.86934 6.74863 3.83335 4.79135 3.87834 2.84293C3.90534 1.6473 4.46325 0.637666 5.76804 0.159417C5.84902 0.132847 5.94801 0.123991 5.94801 0C12.328 0 18.699 0 25.0789 0C25.0789 0.123991 25.1779 0.123991 25.2589 0.159417C26.5097 0.619953 27.1126 1.55874 27.1486 2.81636C27.2026 4.77364 27.1576 6.73978 27.1486 8.70591C26.4197 8.36937 25.6548 8.2808 24.863 8.28966C21.4615 8.30737 18.0601 8.29852 14.6676 8.29852C11.8061 8.29852 8.94452 8.29852 6.08299 8.30737C5.30911 8.22766 4.57123 8.36937 3.86934 8.69706ZM12.6879 1.71816C11.3201 1.71816 10.2043 2.8075 10.1953 4.14483C10.1863 5.49987 11.3201 6.61579 12.6879 6.61579C14.0647 6.61579 15.1805 5.49987 15.1805 4.14483C15.1715 2.79865 14.0647 1.71816 12.6879 1.71816ZM9.59242 4.18911C9.59242 3.5603 9.59242 2.93149 9.59242 2.30268C9.59242 1.93957 9.40345 1.72701 9.0975 1.71816C8.77355 1.7093 8.57558 1.92185 8.56659 2.30268C8.55759 2.65694 8.55759 3.0112 8.56659 3.36546C8.57558 3.54259 8.51259 3.59573 8.33262 3.58687C7.92769 3.57802 7.52275 3.57802 7.11782 3.58687C6.93785 3.59573 6.85686 3.55145 6.86586 3.34775C6.88386 3.00234 6.87486 2.6658 6.86586 2.3204C6.85686 1.93071 6.66789 1.71816 6.34394 1.71816C6.011 1.7093 5.81303 1.93957 5.81303 2.33811C5.81303 3.55145 5.81303 4.76478 5.81303 5.97812C5.81303 6.3678 6.029 6.61579 6.34394 6.60693C6.6499 6.59807 6.85686 6.35895 6.86586 5.98698C6.87486 5.62386 6.88386 5.26075 6.86586 4.89763C6.85686 4.67622 6.91085 4.5788 7.16281 4.59651C7.52275 4.61422 7.8827 4.61422 8.24264 4.59651C8.4856 4.58765 8.58458 4.64965 8.56659 4.90649C8.54859 5.2696 8.55759 5.63272 8.56659 5.99583C8.57558 6.37666 8.77355 6.60693 9.0795 6.60693C9.38545 6.60693 9.59242 6.37666 9.59242 5.99583C9.60142 5.40245 9.59242 4.79135 9.59242 4.18911ZM20.6066 6.61579C20.8946 6.60693 21.1915 6.6335 21.4795 6.60693C21.7675 6.58036 21.9564 6.39437 21.9654 6.10211C21.9744 5.80985 21.7855 5.63272 21.4975 5.58843C21.3175 5.56186 21.1376 5.57958 20.9576 5.57958C20.2917 5.57958 20.3007 5.57958 20.3097 4.93306C20.3097 4.74707 20.3637 4.67622 20.5527 4.68507C20.8136 4.70279 21.0656 4.70279 21.3265 4.68507C21.6325 4.66736 21.8394 4.45481 21.8394 4.18026C21.8394 3.9057 21.6415 3.69315 21.3355 3.66658C21.2095 3.65772 21.0926 3.65772 20.9666 3.65772C20.2737 3.65772 20.2827 3.65772 20.3097 2.99349C20.3187 2.81636 20.3727 2.76322 20.5437 2.77208C20.8316 2.78093 21.1286 2.78093 21.4165 2.77208C21.7405 2.75436 21.9654 2.53295 21.9654 2.2584C21.9654 1.98385 21.7405 1.75358 21.4165 1.74473C20.8946 1.72701 20.3637 1.72701 19.8328 1.74473C19.4638 1.75358 19.2749 1.94842 19.2749 2.31154C19.2659 3.5603 19.2659 4.80021 19.2749 6.04897C19.2749 6.4298 19.4728 6.61579 19.8598 6.62464C20.1117 6.62464 20.3547 6.61579 20.6066 6.61579ZM16.3773 4.49909C16.3773 5.00391 16.3773 5.50873 16.3773 6.0224C16.3773 6.17296 16.3863 6.31467 16.4943 6.4298C16.6383 6.58922 16.8183 6.66892 17.0342 6.59807C17.2952 6.51836 17.4122 6.33238 17.4032 6.07554C17.4032 5.17218 17.4032 4.26882 17.4032 3.36546C17.4032 2.78093 17.4032 2.78093 17.9881 2.73665C18.0061 2.73665 18.0331 2.73665 18.0511 2.72779C18.33 2.67465 18.483 2.49753 18.483 2.22297C18.483 1.93957 18.321 1.74473 18.0421 1.73587C17.2682 1.71816 16.4943 1.71816 15.7294 1.73587C15.4505 1.74473 15.2975 1.94842 15.2975 2.23183C15.2975 2.51524 15.4595 2.68351 15.7384 2.72779C15.8464 2.74551 15.9634 2.74551 16.0714 2.73665C16.2963 2.71008 16.3863 2.78093 16.3773 3.02006C16.3683 3.50716 16.3773 4.00313 16.3773 4.49909ZM22.7843 4.15369C22.7843 4.7825 22.7843 5.4113 22.7843 6.04011C22.7843 6.40323 22.9643 6.59807 23.3332 6.61579C23.7651 6.6335 24.2061 6.6335 24.647 6.61579C24.9709 6.60693 25.1959 6.39437 25.2049 6.11097C25.2139 5.8187 24.9799 5.59729 24.629 5.58843C24.458 5.57958 24.2871 5.57072 24.1251 5.59729C23.8731 5.62386 23.8011 5.5353 23.8101 5.28731C23.8281 4.29539 23.8191 3.30346 23.8101 2.31154C23.8101 1.93957 23.6212 1.73587 23.3152 1.73587C22.9913 1.72701 22.7843 1.94842 22.7843 2.3204C22.7843 2.91378 22.7843 3.53373 22.7843 4.15369Z" fill="#EAEAEA"/>
<path d="M9.25053 34C9.22354 33.938 9.16955 33.938 9.11555 33.9291C9.11555 33.8405 9.06156 33.7874 9.01657 33.7254C8.32368 32.9638 7.68478 32.1667 7.15387 31.281C6.78493 30.6699 6.335 30.1031 6.09204 29.4212C7.92774 29.4212 9.77245 29.4212 11.6082 29.4123C11.7521 29.4123 11.8961 29.3946 12.0401 29.3857C13.2009 29.3946 14.3707 29.4035 15.5315 29.4035C16.6833 29.4035 17.8351 29.3946 18.987 29.3857C19.1399 29.3946 19.3019 29.4123 19.4549 29.4123C22.6674 29.4123 25.8888 29.4123 29.1013 29.4123C30.1362 29.5009 30.973 30.4042 30.991 31.467C31 31.8656 30.991 32.2641 30.991 32.6538C30.991 33.2029 30.7661 33.6103 30.2351 33.8317C30.1542 33.8671 30.0462 33.8583 30.0552 33.9911C23.1263 34 16.1884 34 9.25053 34Z" fill="#D6D5D8"/>
<path d="M12.0401 29.3858C11.8961 29.3947 11.7521 29.4124 11.6081 29.4124C9.77244 29.4124 7.92774 29.4124 6.09204 29.4212C6.04704 29.4124 6.00205 29.4035 5.95706 29.4035C5.97505 29.2884 5.91206 29.191 5.85807 29.0935C5.22817 27.8891 4.72426 26.6314 4.33732 25.3295C3.75241 23.3811 3.47346 21.3884 3.41047 19.3691C3.38347 18.5366 3.46446 17.7041 3.53645 16.8716C3.60844 15.8974 3.77041 14.932 3.99537 13.9844C4.40031 12.1334 5.0482 10.3621 5.94806 8.68823C6.01105 8.56424 6.11003 8.44025 6.08304 8.28969C8.94458 8.28969 11.8061 8.28083 14.6677 8.28083C18.0691 8.28083 21.4706 8.28969 24.863 8.27197C25.6639 8.27197 26.4288 8.36054 27.1486 8.68823C27.9315 9.16648 28.5434 9.77757 28.8674 10.6455C29.0023 10.9998 29.1013 11.3629 29.1013 11.7349C29.1013 17.6244 29.1013 23.514 29.1013 29.4035C25.8888 29.4035 22.6674 29.4035 19.4549 29.4035C19.3019 29.4035 19.1399 29.3858 18.987 29.3769C18.987 27.1894 19.014 25.0107 18.987 22.8232C18.978 21.8578 18.2041 21.1581 17.2232 21.1404C16.0804 21.1227 14.9376 21.1227 13.7948 21.1404C12.814 21.1581 12.0401 21.8578 12.0311 22.8232C12.0131 25.0196 12.0311 27.2071 12.0401 29.3858ZM6.36199 12.2574C5.44414 12.2485 4.94922 12.7179 4.94922 13.6213C4.94922 14.5689 4.94922 15.5166 4.94922 16.4642C4.94922 17.0576 5.34516 17.5536 5.93006 17.6864C6.52397 17.8193 7.13587 17.7661 7.72977 17.7307C8.00873 17.713 8.32368 17.6953 8.51265 17.4296C8.82759 17.1993 8.98057 16.8805 8.98057 16.4908C8.98057 15.49 8.98057 14.4892 8.98057 13.4796C8.98057 12.7622 8.44966 12.2574 7.72977 12.2485C7.27984 12.2574 6.82092 12.2574 6.36199 12.2574ZM23.4592 12.2574C22.6224 12.2397 22.0555 12.6825 22.0465 13.3733C22.0375 14.4449 22.0375 15.5166 22.0465 16.5882C22.0555 17.1196 22.4874 17.589 23.0273 17.6953C23.5942 17.8104 24.1701 17.7573 24.737 17.7395C25.025 17.7307 25.3489 17.6953 25.5559 17.4296C25.9248 17.217 26.0688 16.8716 26.0778 16.4908C26.1048 15.4989 26.1048 14.5069 26.0778 13.515C26.0598 12.7622 25.5019 12.2574 24.737 12.2485C24.3141 12.2574 23.8822 12.2574 23.4592 12.2574ZM14.9106 12.2574C14.0737 12.1245 13.4438 12.8685 13.4798 13.6124C13.5338 14.5601 13.4888 15.5077 13.4888 16.4554C13.4888 17.0576 13.8668 17.5447 14.4607 17.6775C15.0546 17.8104 15.6665 17.7573 16.2694 17.7218C16.5483 17.7041 16.8543 17.6598 17.0613 17.4207C17.3762 17.1727 17.5382 16.845 17.5382 16.4465C17.5382 15.4634 17.5382 14.4804 17.5382 13.4973C17.5382 12.7711 17.0073 12.2574 16.2604 12.2485C15.8105 12.2574 15.3605 12.2574 14.9106 12.2574ZM8.44966 26.3835C8.8186 26.1975 8.97157 25.8609 8.98057 25.489C8.99857 24.4173 8.99857 23.3457 8.98057 22.2741C8.97157 21.7427 8.50365 21.2821 7.97273 21.1936C7.43282 21.105 6.9019 21.1493 6.36199 21.1493C5.57912 21.1139 4.95822 21.6452 4.94922 22.3803C4.94022 23.3988 4.94022 24.4085 4.94922 25.427C4.95822 26.0823 5.54312 26.6403 6.20902 26.6403C6.72193 26.6403 7.24385 26.6403 7.75677 26.6403C8.01772 26.6403 8.26069 26.5872 8.44966 26.3835ZM23.4592 21.1493C22.6674 21.0519 21.9925 21.6984 22.0285 22.4778C22.0735 23.4343 22.0645 24.3996 22.0285 25.3561C22.0015 26.1178 22.6494 26.6757 23.3333 26.6492C23.8102 26.6314 24.2961 26.6403 24.782 26.6492C25.079 26.658 25.3309 26.5872 25.5469 26.3835C25.9158 26.1443 26.0688 25.7812 26.0778 25.3738C26.0958 24.3908 26.0958 23.4165 26.0778 22.4335C26.0688 21.8047 25.6819 21.353 25.061 21.2113C24.5391 21.0873 23.9991 21.167 23.4592 21.1493Z" fill="#FE919D"/>
<path d="M6.08294 8.28967C6.10093 8.44909 6.01095 8.56422 5.94796 8.68821C5.0481 10.3621 4.40021 12.1245 3.97728 13.9667C3.76131 14.9143 3.59934 15.8797 3.51835 16.8539C3.45536 17.6864 3.36537 18.5189 3.39237 19.3514C3.45536 21.3795 3.73432 23.3722 4.31922 25.3118C4.71516 26.6137 5.21008 27.8713 5.83998 29.0758C5.89397 29.1732 5.95696 29.2707 5.93896 29.3858C4.59818 29.3946 3.24839 29.3946 1.90761 29.4035C1.90761 23.5139 1.88961 17.6244 1.91661 11.7348C1.92561 10.5126 2.5645 9.55614 3.58134 8.86534C3.67133 8.80334 3.76131 8.74135 3.8603 8.67935C4.57118 8.36938 5.30906 8.22767 6.08294 8.28967Z" fill="#FE737D"/>
<path d="M1.91666 29.4122C3.25744 29.4034 4.60722 29.4034 5.94801 29.3945C5.993 29.4034 6.03799 29.4122 6.08298 29.4122C6.32594 30.0942 6.77587 30.661 7.14481 31.2721C7.67573 32.1489 8.32362 32.946 9.00751 33.7165C9.0615 33.7785 9.11549 33.8316 9.1065 33.9202C6.46992 33.9202 3.83335 33.9202 1.19677 33.9202C0.611867 33.9202 0.0899508 33.5216 0.0449581 32.9283C-0.00903321 32.2729 -0.0630245 31.5998 0.0989494 30.9533C0.305916 30.1296 1.09779 29.4654 1.91666 29.4122Z" fill="#C4C3C8"/>
<path d="M12.688 1.71826C14.0647 1.71826 15.1716 2.79875 15.1806 4.14494C15.1896 5.50883 14.0647 6.61589 12.688 6.61589C11.3202 6.61589 10.1864 5.49998 10.1954 4.14494C10.2044 2.79875 11.3202 1.71826 12.688 1.71826ZM12.679 5.57968C13.4888 5.57968 14.1457 4.95087 14.1457 4.16265C14.1457 3.38328 13.4798 2.7279 12.688 2.7279C11.9051 2.7279 11.2572 3.36557 11.2482 4.14494C11.2302 4.94202 11.8691 5.57968 12.679 5.57968Z" fill="#444151"/>
<path d="M9.59238 4.1891C9.59238 4.8002 9.59238 5.40244 9.59238 6.01354C9.59238 6.38551 9.38541 6.62464 9.07946 6.62464C8.77351 6.62464 8.57554 6.39437 8.56654 6.01354C8.55755 5.65042 8.54855 5.28731 8.56654 4.92419C8.58454 4.66735 8.48556 4.60536 8.2426 4.61422C7.88265 4.63193 7.52271 4.63193 7.16277 4.61422C6.91981 4.5965 6.85682 4.69392 6.86582 4.91534C6.88382 5.27845 6.87482 5.64157 6.86582 6.00468C6.85682 6.37665 6.64985 6.61578 6.3439 6.62464C6.02895 6.63349 5.81299 6.38551 5.81299 5.99582C5.81299 4.78249 5.81299 3.56915 5.81299 2.35581C5.81299 1.94842 6.01096 1.72701 6.3439 1.73586C6.66785 1.73586 6.85682 1.95727 6.86582 2.3381C6.87482 2.6835 6.87482 3.02005 6.86582 3.36545C6.85682 3.5603 6.93781 3.60458 7.11778 3.60458C7.52271 3.59572 7.92765 3.59572 8.33258 3.60458C8.50355 3.60458 8.56654 3.55144 8.56654 3.38317C8.55755 3.02891 8.55755 2.67465 8.56654 2.32039C8.57554 1.93956 8.76451 1.72701 9.09746 1.73586C9.40341 1.74472 9.59238 1.95727 9.59238 2.32039C9.60138 2.92263 9.59238 3.5603 9.59238 4.1891Z" fill="#444051"/>
<path d="M20.6066 6.61581C20.3637 6.61581 20.1117 6.62466 19.8688 6.61581C19.4818 6.60695 19.2838 6.42096 19.2838 6.04014C19.2748 4.79137 19.2748 3.55147 19.2838 2.3027C19.2838 1.93959 19.4728 1.74475 19.8418 1.73589C20.3637 1.72703 20.8946 1.72703 21.4255 1.73589C21.7495 1.74475 21.9744 1.97502 21.9744 2.24957C21.9744 2.52412 21.7495 2.74553 21.4255 2.76324C21.1375 2.7721 20.8406 2.7721 20.5526 2.76324C20.3817 2.75438 20.3277 2.80752 20.3187 2.98465C20.2917 3.64889 20.2827 3.64889 20.9756 3.64889C21.1016 3.64889 21.2275 3.64003 21.3445 3.65775C21.6505 3.69317 21.8574 3.90573 21.8484 4.17142C21.8484 4.44597 21.6415 4.65853 21.3355 4.67624C21.0746 4.69395 20.8226 4.69395 20.5616 4.67624C20.3637 4.66738 20.3187 4.73823 20.3187 4.92422C20.3097 5.57074 20.3007 5.57074 20.9666 5.57074C21.1465 5.57074 21.3265 5.55303 21.5065 5.5796C21.7944 5.62388 21.9834 5.80101 21.9744 6.09328C21.9654 6.38554 21.7854 6.57153 21.4885 6.59809C21.1915 6.63352 20.8946 6.61581 20.6066 6.61581Z" fill="#454152"/>
<path d="M16.3773 4.49905C16.3773 4.00309 16.3683 3.50712 16.3863 3.01116C16.3953 2.77204 16.3054 2.70119 16.0804 2.72776C15.9724 2.73661 15.8554 2.73661 15.7474 2.7189C15.4685 2.67462 15.3065 2.50634 15.3065 2.22294C15.3065 1.93953 15.4595 1.73583 15.7384 1.72697C16.5123 1.7004 17.2862 1.70926 18.0511 1.72697C18.339 1.73583 18.492 1.93067 18.492 2.21408C18.492 2.49749 18.339 2.66576 18.0601 2.7189C18.0421 2.7189 18.0151 2.7189 17.9971 2.72776C17.4122 2.77204 17.4122 2.77204 17.4122 3.35656C17.4122 4.25993 17.4122 5.16329 17.4122 6.06665C17.4122 6.33234 17.2952 6.50947 17.0432 6.58918C16.8273 6.66003 16.6473 6.58032 16.5033 6.4209C16.3953 6.30577 16.3863 6.16407 16.3863 6.01351C16.3863 5.50869 16.3773 5.00387 16.3773 4.49905Z" fill="#433F4F"/>
<path d="M22.7843 4.1538C22.7843 3.53385 22.7843 2.92275 22.7843 2.3028C22.7843 1.93083 22.9912 1.70942 23.3152 1.71827C23.6301 1.72713 23.8101 1.93083 23.8101 2.29394C23.8191 3.28587 23.8191 4.27779 23.8101 5.26972C23.8101 5.5177 23.8731 5.61512 24.1251 5.5797C24.287 5.56198 24.458 5.57084 24.629 5.57084C24.9709 5.58855 25.2049 5.80996 25.2049 6.09337C25.1959 6.37678 24.9709 6.58933 24.647 6.59819C24.206 6.60705 23.7741 6.6159 23.3332 6.59819C22.9642 6.58048 22.7843 6.39449 22.7843 6.02252C22.7753 5.41142 22.7843 4.78261 22.7843 4.1538Z" fill="#444050"/>
<path d="M12.0401 29.3858C12.0401 27.1982 12.0131 25.0195 12.0401 22.832C12.0491 21.8666 12.8229 21.167 13.8038 21.1493C14.9466 21.1316 16.0894 21.1316 17.2322 21.1493C18.2131 21.167 18.987 21.8666 18.996 22.832C19.0229 25.0195 18.996 27.1982 18.996 29.3858C17.8441 29.3946 16.6923 29.4035 15.5405 29.4035C14.3707 29.4035 13.2009 29.3946 12.0401 29.3858Z" fill="#6B647F"/>
<path d="M23.4592 21.1492C23.9901 21.1581 24.53 21.0784 25.0609 21.2024C25.6818 21.3441 26.0688 21.7957 26.0778 22.4245C26.0868 23.4076 26.0958 24.3818 26.0778 25.3649C26.0688 25.7723 25.9248 26.1354 25.5469 26.3745C25.4389 26.3214 25.3219 26.2683 25.2139 26.2063C24.1251 25.6129 23.4952 24.6918 23.4052 23.4873C23.3512 22.7168 23.3242 21.9286 23.4592 21.1492Z" fill="#FEE897"/>
<path d="M6.36188 21.1492C6.9018 21.1581 7.43271 21.1138 7.97262 21.1935C8.50354 21.2821 8.97146 21.7426 8.98046 22.274C8.99846 23.3456 8.99846 24.4172 8.98046 25.4889C8.97146 25.8608 8.81849 26.1885 8.44955 26.3834C6.8838 25.6129 6.22691 24.3552 6.2809 22.6637C6.29889 22.1588 6.37988 21.654 6.36188 21.1492Z" fill="#FEE997"/>
<path d="M14.9105 12.2574C15.3605 12.2574 15.8104 12.2485 16.2603 12.2574C17.0072 12.2662 17.5381 12.771 17.5381 13.5061C17.5381 14.4892 17.5381 15.4723 17.5381 16.4553C17.5381 16.8539 17.3761 17.1816 17.0612 17.4295C16.9442 17.4384 16.8452 17.3941 16.7462 17.341C15.5494 16.6679 14.8835 15.6671 14.8476 14.3032C14.8296 13.6213 14.8206 12.9393 14.9105 12.2574Z" fill="#FEE997"/>
<path d="M23.4592 12.2573C23.8822 12.2573 24.3141 12.2573 24.737 12.2573C25.5019 12.2573 26.0598 12.771 26.0778 13.5238C26.0958 14.5157 26.0958 15.5077 26.0778 16.4996C26.0688 16.8804 25.9248 17.2258 25.5559 17.4384C24.4041 17.0575 23.3872 15.6936 23.3962 14.5069C23.3962 13.7541 23.3333 13.0013 23.4592 12.2573Z" fill="#FEE897"/>
<path d="M6.36195 12.2573C6.82087 12.2573 7.2798 12.2573 7.73872 12.2573C8.45861 12.2573 8.98052 12.771 8.98952 13.4884C8.99852 14.4892 8.98952 15.4899 8.98952 16.4996C8.98952 16.8893 8.83655 17.1992 8.5216 17.4384C8.37762 17.4029 8.25164 17.3587 8.12566 17.2878C6.89286 16.5881 6.34395 15.5165 6.29896 14.1438C6.27196 13.5061 6.34395 12.8861 6.36195 12.2573Z" fill="#FEE997"/>
<path d="M6.36199 12.2574C6.34399 12.8774 6.272 13.4974 6.29 14.1262C6.33499 15.4989 6.8839 16.5706 8.11671 17.2702C8.24269 17.3411 8.37766 17.3853 8.51264 17.4208C8.32367 17.6865 8.00872 17.7042 7.72977 17.7219C7.12687 17.7573 6.52396 17.8105 5.93006 17.6776C5.34515 17.5448 4.94922 17.0577 4.94922 16.4554C4.94922 15.5078 4.94922 14.5601 4.94922 13.6125C4.94022 12.718 5.43514 12.2486 6.36199 12.2574Z" fill="#F8D788"/>
<path d="M14.9106 12.2574C14.8206 12.9305 14.8296 13.6125 14.8476 14.2944C14.8836 15.6583 15.5495 16.6591 16.7463 17.3322C16.8453 17.3853 16.9442 17.4385 17.0612 17.4208C16.8543 17.6599 16.5483 17.713 16.2694 17.7219C15.6665 17.7573 15.0636 17.8105 14.4606 17.6776C13.8757 17.5448 13.4888 17.0577 13.4888 16.4554C13.4888 15.5078 13.5338 14.5513 13.4798 13.6125C13.4348 12.8685 14.0647 12.1246 14.9106 12.2574Z" fill="#F8D788"/>
<path d="M6.36199 21.1492C6.37999 21.654 6.299 22.1588 6.281 22.6636C6.22701 24.3552 6.88391 25.6217 8.44965 26.3833C8.26068 26.587 8.01772 26.6402 7.74777 26.6402C7.23485 26.6402 6.71293 26.6402 6.20002 26.6402C5.53412 26.6402 4.94922 26.0822 4.94022 25.4268C4.93122 24.4083 4.93122 23.3987 4.94022 22.3802C4.95822 21.6451 5.57912 21.1226 6.36199 21.1492Z" fill="#F8D788"/>
<path d="M23.4592 12.2575C23.3332 13.0014 23.3962 13.7542 23.3962 14.4981C23.3872 15.6849 24.404 17.0488 25.5559 17.4296C25.3489 17.6953 25.0249 17.7308 24.737 17.7396C24.1701 17.7573 23.5942 17.8016 23.0273 17.6953C22.4874 17.5891 22.0554 17.1197 22.0464 16.5883C22.0374 15.5166 22.0374 14.445 22.0464 13.3734C22.0554 12.6826 22.6223 12.2486 23.4592 12.2575Z" fill="#F8D788"/>
<path d="M23.4592 21.1493C23.3243 21.9287 23.3422 22.7169 23.4052 23.4874C23.5042 24.6919 24.1251 25.6129 25.2139 26.2063C25.3219 26.2683 25.4299 26.3126 25.5469 26.3746C25.3309 26.5783 25.07 26.6403 24.782 26.6403C24.2961 26.6314 23.8192 26.6226 23.3332 26.6403C22.6584 26.6669 22.0015 26.1089 22.0285 25.3473C22.0645 24.3908 22.0735 23.4254 22.0285 22.4689C21.9925 21.7072 22.6764 21.0519 23.4592 21.1493Z" fill="#F8D788"/>
<path d="M12.6789 5.57963C11.8691 5.57963 11.2302 4.94197 11.2482 4.13603C11.2572 3.35666 11.9051 2.72785 12.6879 2.71899C13.4798 2.71899 14.1457 3.37437 14.1457 4.15374C14.1457 4.95083 13.4888 5.57963 12.6789 5.57963Z" fill="#E9E9E9"/>
</g>
<defs>
<clipPath id="clip0_4823_25639">
<rect width="31" height="34" fill="white"/>
</clipPath>
</defs>
</svg>
