<svg width="34" height="34" viewBox="0 0 34 34" fill="none" xmlns="http://www.w3.org/2000/svg">
<g clip-path="url(#clip0_4823_25663)">
<path d="M15.6664 0C16.5312 0 17.3893 0 18.2541 0C18.2941 0.0732042 18.3672 0.0598943 18.4271 0.0665492C19.7908 0.179683 21.1146 0.452535 22.4118 0.89176C21.3275 1.56391 20.5425 2.47563 20.17 3.70014C19.4915 5.93619 19.7443 8.1057 20.7488 10.202C21.2211 11.1869 21.9063 12.0254 22.658 12.8107C22.4983 12.9571 22.2855 12.9971 22.0925 13.0769C21.6668 13.25 21.2211 13.4496 20.9949 13.8422C20.7621 14.2349 20.4627 14.3879 20.0569 14.4545C19.9172 14.4745 19.7775 14.5277 19.6445 14.5743C19.2121 14.714 18.7996 14.907 18.4338 15.1732C18.1876 15.3529 18.1344 15.6191 18.2874 15.8387C18.4537 16.0716 18.6666 16.1249 18.926 15.9851C19.0125 15.9385 19.099 15.8853 19.1855 15.8387C19.711 15.5459 20.2764 15.3662 20.8752 15.2664C21.0149 15.2464 21.1279 15.2597 21.241 15.3596C21.5936 15.659 21.9994 15.852 22.4385 15.9918C24.1947 16.5508 25.9642 16.5574 27.7337 16.0916C28.359 15.9252 28.9444 15.6657 29.4101 15.1932C29.8225 14.7739 29.8624 14.2815 29.5099 13.8822C29.0309 13.3298 28.4056 13.0104 27.6871 12.8839C29.4234 11.2468 30.4013 9.24369 30.6275 6.86788C30.6541 6.90116 30.6873 6.93443 30.7139 6.9677C33.6742 11.127 34.7053 15.7256 33.5744 20.6902C32.2573 26.4733 28.7449 30.5062 23.2833 32.7955C20.5558 33.9335 17.6887 34.2396 14.7617 33.8536C13.4778 33.6872 12.2205 33.3944 11.0164 32.8953C11.8679 32.7555 12.7128 32.6091 13.5243 32.303C14.2827 32.0168 15.0145 31.6708 15.5134 30.992C15.6797 30.7657 15.8194 30.5927 16.1387 30.5993C16.3915 30.606 16.5711 30.4263 16.5911 30.1601C16.6044 29.9139 16.4647 29.681 16.2252 29.681C15.7728 29.681 15.54 29.4081 15.3072 29.0953C15.2273 28.9822 15.1009 28.9023 14.9879 28.8092C14.3891 28.31 13.6441 28.1104 12.9389 27.8242C13.4844 27.2652 14.0366 26.7062 14.5022 26.0673C16.6509 23.1392 17.4492 19.8783 16.9569 16.2713C16.4979 12.9438 14.2628 10.4882 11.0031 9.8027C10.1117 9.61636 9.21364 9.55647 8.30893 9.70953C8.11601 9.68291 7.9364 9.73615 7.75013 9.77608C5.46174 10.2486 3.70553 11.4465 2.58128 13.5095C1.89609 14.7673 1.65661 16.1382 1.57678 17.5557C1.43043 20.1711 2.04245 22.5935 3.35295 24.8495C3.99158 25.9609 4.81646 26.9192 5.72783 27.8176C5.27547 27.984 4.80981 28.1304 4.37741 28.3566C2.19545 25.9609 0.858333 23.1525 0.266276 19.9781C0.166492 19.4324 0.173144 18.8667 0.00683594 18.3277C0.00683594 17.4426 0.00683594 16.5574 0.00683594 15.6723C0.0800114 15.6324 0.0667068 15.5592 0.0733591 15.4993C0.279581 13.2167 0.884942 11.0405 1.99588 9.03739C4.73663 4.07947 8.90764 1.11803 14.5022 0.186338C14.8881 0.119789 15.2872 0.139753 15.6664 0ZM20.7488 19.4723C20.7355 19.1595 20.5226 19.0331 20.2698 18.9466C19.578 18.7003 18.9593 18.3676 18.5602 17.7088C18.4138 17.4692 18.1876 17.4093 17.9282 17.5557C17.6887 17.6954 17.6089 17.9483 17.7486 18.2145C18.2808 19.1928 19.1722 19.6586 20.2033 19.9115C20.496 19.9781 20.7488 19.7318 20.7488 19.4723ZM21.2876 29.082C21.2011 29.0953 21.0681 29.1219 20.935 29.1419C20.2232 29.2351 19.5114 29.3282 18.8063 29.4281C18.4537 29.4813 18.2808 29.681 18.3207 29.9804C18.3539 30.24 18.5735 30.4396 18.8595 30.3997C19.7243 30.2932 20.5891 30.1801 21.4473 30.0536C21.7599 30.007 21.9329 29.7675 21.893 29.4946C21.8597 29.2484 21.6269 29.082 21.2876 29.082ZM23.117 19.5189C22.6513 19.5122 22.4651 19.6387 22.4385 19.9382C22.4118 20.2443 22.5648 20.4107 22.9773 20.4639C23.7955 20.577 24.6138 20.6702 25.4387 20.7634C25.7447 20.7966 25.9841 20.6036 26.0174 20.3441C26.0507 20.0779 25.891 19.8383 25.5983 19.8051C24.7535 19.6986 23.9086 19.6121 23.117 19.5189ZM24.1481 29.4813C24.3277 29.4281 24.5605 29.3549 24.7934 29.2883C25.4453 29.1086 26.0706 28.8757 26.6959 28.6228C26.9554 28.5163 27.1217 28.3367 27.0419 28.0305C26.9687 27.7444 26.7092 27.6312 26.3766 27.7178C26.3035 27.7377 26.2303 27.7643 26.1571 27.791C25.6316 27.9906 25.106 28.1969 24.5605 28.3433C24.3344 28.4032 24.1082 28.4631 23.902 28.5563C23.6758 28.6561 23.5228 28.8424 23.596 29.1153C23.6558 29.3549 23.8421 29.468 24.1481 29.4813ZM28.8979 27.2785C28.991 27.2785 29.0841 27.2586 29.1773 27.1854C29.9556 26.5598 30.5875 25.8144 30.9268 24.8561C31 24.6432 30.9468 24.4635 30.7672 24.3237C30.521 24.1374 30.1818 24.2106 30.0421 24.5167C29.7094 25.2421 29.2637 25.8743 28.6318 26.3735C28.5586 26.4334 28.5054 26.5265 28.4655 26.6197C28.3324 26.9391 28.5586 27.2785 28.8979 27.2785ZM28.226 20.2975C28.0064 20.2975 27.8401 20.3774 27.767 20.577C27.6938 20.7833 27.7404 20.9697 27.9067 21.1161C28.0264 21.2225 28.1728 21.2691 28.3258 21.3091C28.991 21.5154 29.5897 21.8215 30.0287 22.3938C30.1951 22.6134 30.4478 22.6334 30.6873 22.4936C30.9268 22.3539 30.9734 22.0877 30.8004 21.8281C30.1884 20.9098 29.2305 20.5637 28.226 20.2975Z" fill="#71CB8A"/>
<path d="M8.28882 9.69617C9.19353 9.54311 10.0916 9.60301 10.983 9.78934C14.2426 10.4748 16.4778 12.9305 16.9368 16.2579C17.4291 19.8582 16.6308 23.1192 14.4821 26.054C14.0165 26.6862 13.471 27.2452 12.9188 27.8109C11.9276 28.6694 10.8633 29.428 9.6725 30.0003C9.37314 30.1467 9.14031 30.1401 8.89418 29.9404C8.86757 29.9205 8.8343 29.9005 8.8077 29.8806L8.821 29.8939C8.77443 29.8672 8.72122 29.8473 8.67465 29.8207L8.6813 29.834C8.65469 29.7408 8.58152 29.6942 8.50834 29.641C7.47723 28.9356 6.59247 28.0771 5.78089 27.1387C4.51695 25.668 3.60558 23.9976 3.02018 22.1542C2.28842 19.8516 2.21525 17.5024 2.72748 15.1532C3.14657 13.2432 4.23755 11.7659 5.88068 10.6944C6.62574 10.2086 7.43732 9.90913 8.28882 9.69617ZM9.31992 22.6467C12.1738 22.7132 14.6351 20.364 14.6617 17.3626C14.6883 14.4544 12.2736 12.0454 9.39975 12.0121C6.5193 11.9722 4.01137 14.2814 3.99807 17.3161C3.98477 20.3574 6.48604 22.7065 9.31992 22.6467Z" fill="#FE616D"/>
<path d="M24.0282 0.279578C26.8022 -0.2994 30.0419 1.19796 30.5341 4.84486C30.6273 5.517 30.614 6.18915 30.614 6.8613C30.3878 9.2371 29.4099 11.2402 27.6737 12.8773C27.0616 13.4031 26.4031 13.849 25.7046 14.2483C25.3254 14.4612 25.0127 14.4612 24.6801 14.2083C24.6602 14.1418 24.6202 14.0952 24.5404 14.1085H24.5471C24.4872 13.9355 24.3209 13.8756 24.1878 13.7758C23.5891 13.3033 23.0436 12.7642 22.5713 12.1653C20.8284 9.93587 20.1233 7.42031 20.5158 4.61193C20.7952 2.61546 21.8861 1.22458 23.7554 0.465916C23.8619 0.412677 23.975 0.399367 24.0282 0.279578ZM25.2323 1.83018C23.2166 1.81687 21.5269 3.46729 21.507 5.46376C21.487 7.52679 23.1035 9.21048 25.1192 9.23045C27.2346 9.25041 28.911 7.64658 28.9309 5.59021C28.9509 3.52053 27.3011 1.84348 25.2323 1.83018Z" fill="#FBDF65"/>
<path d="M8.89412 29.9406C9.14026 30.1403 9.37309 30.1403 9.67244 30.0005C10.8632 29.4282 11.9276 28.6695 12.9188 27.811C13.6239 28.0972 14.369 28.3035 14.9677 28.796C15.0808 28.8891 15.2072 28.969 15.287 29.0821C15.5198 29.4016 15.746 29.6678 16.205 29.6678C16.4445 29.6678 16.5842 29.894 16.5709 30.1469C16.5576 30.4131 16.378 30.5928 16.1185 30.5861C15.7992 30.5795 15.6595 30.7525 15.4932 30.9788C14.9943 31.6576 14.2625 32.0036 13.5042 32.2898C12.6926 32.5959 11.8411 32.7423 10.9963 32.8821C10.3244 32.6957 9.7057 32.3763 9.09369 32.0502C7.35078 31.1318 5.80745 29.9473 4.47033 28.4832C4.43707 28.4433 4.40381 28.3967 4.3772 28.3501C4.8096 28.1238 5.27526 27.9774 5.72762 27.811C5.85401 27.9175 5.98041 28.024 6.1068 28.1305C6.90508 28.796 7.73662 29.4016 8.6879 29.8341L8.68125 29.8208C8.71451 29.8741 8.76773 29.894 8.8276 29.894L8.81429 29.8807C8.8409 29.9007 8.86751 29.9206 8.89412 29.9406Z" fill="#3FAE85"/>
<path d="M24.6734 14.2016C25.006 14.4544 25.3187 14.4544 25.6979 14.2415C26.403 13.8422 27.0616 13.3963 27.667 12.8706C28.3854 12.997 29.0107 13.3164 29.4897 13.8688C29.8356 14.2681 29.7957 14.7606 29.3899 15.1798C28.9242 15.6523 28.3388 15.9119 27.7135 16.0782C25.944 16.5441 24.1745 16.5374 22.4183 15.9784C21.9859 15.8387 21.5734 15.639 21.2209 15.3462C21.1078 15.253 20.9947 15.2331 20.855 15.253C20.2629 15.3529 19.6975 15.5325 19.1653 15.8254C19.0788 15.8719 18.9923 15.9252 18.9059 15.9718C18.6531 16.1115 18.4335 16.0583 18.2672 15.8254C18.1142 15.6057 18.1674 15.3395 18.4136 15.1599C18.7861 14.8937 19.1919 14.7007 19.6243 14.5609C19.764 14.5143 19.897 14.4677 20.0367 14.4411C20.4425 14.3746 20.7419 14.2215 20.9747 13.8289C21.2076 13.4429 21.6466 13.2366 22.0724 13.0636C22.2653 12.9837 22.4781 12.9504 22.6378 12.7974C22.7376 12.8772 22.844 12.9571 22.9438 13.0436C23.4361 13.4429 23.9284 13.8555 24.5271 14.0951H24.5204C24.5603 14.1616 24.6135 14.1882 24.6734 14.2016Z" fill="#3EAF84"/>
<path d="M8.68798 29.8406C7.7367 29.408 6.90516 28.8024 6.10688 28.1369C5.98048 28.0304 5.85409 27.924 5.72769 27.8175C4.81633 26.9257 3.99809 25.9608 3.35282 24.8494C2.04896 22.5934 1.43695 20.171 1.57665 17.5556C1.65648 16.1381 1.89596 14.7738 2.58115 13.5094C3.70539 11.4464 5.4616 10.2418 7.73669 9.76268C7.91631 9.72275 8.10257 9.66951 8.29549 9.69613C7.44399 9.90909 6.63241 10.2086 5.88735 10.6944C4.25088 11.7658 3.15325 13.2365 2.73415 15.1532C2.22192 17.5024 2.2951 19.8515 3.02685 22.1541C3.61226 23.9976 4.52363 25.6679 5.78757 27.1387C6.59915 28.0837 7.48391 28.9422 8.51502 29.6409C8.58154 29.6942 8.65472 29.7474 8.68798 29.8406Z" fill="#E33767"/>
<path d="M24.5404 14.1018C23.9417 13.8622 23.456 13.4496 22.9571 13.0503C22.8573 12.9705 22.7509 12.884 22.6511 12.8041C21.8994 12.0188 21.2142 11.187 20.7419 10.1954C19.7374 8.09908 19.4846 5.93623 20.1632 3.69352C20.5357 2.46901 21.3207 1.55063 22.405 0.885139C22.9172 0.612287 23.4494 0.392675 24.0215 0.279541C23.9749 0.39933 23.8552 0.412639 23.7554 0.452569C21.8794 1.21789 20.7951 2.60211 20.5157 4.59859C20.1166 7.40696 20.8284 9.92252 22.5713 12.1519C23.0436 12.7575 23.5824 13.2899 24.1878 13.7624C24.3142 13.8689 24.4805 13.9288 24.5404 14.1018Z" fill="#F6A741"/>
<path d="M20.7486 19.4723C20.7552 19.7385 20.4958 19.9848 20.2097 19.9116C19.1786 19.6653 18.2806 19.1928 17.755 18.2146C17.6153 17.9484 17.6951 17.6955 17.9346 17.5557C18.1941 17.4093 18.4203 17.4692 18.5666 17.7088C18.9657 18.3676 19.5778 18.7004 20.2696 18.9466C20.5157 19.0331 20.7353 19.1596 20.7486 19.4723Z" fill="#3FAF85"/>
<path d="M21.2874 29.082C21.6267 29.0753 21.8595 29.2483 21.8927 29.4879C21.9327 29.7608 21.7597 30.0004 21.447 30.0469C20.5822 30.1734 19.7241 30.2932 18.8593 30.393C18.5732 30.4263 18.3537 30.2333 18.3204 29.9737C18.2872 29.6809 18.4535 29.4746 18.8061 29.4214C19.5179 29.3216 20.2297 29.235 20.9348 29.1352C21.0679 29.1286 21.2009 29.1019 21.2874 29.082Z" fill="#3FAF85"/>
<path d="M23.1168 19.5188C23.915 19.612 24.7532 19.6985 25.5981 19.805C25.8908 19.8449 26.0504 20.0778 26.0172 20.344C25.9839 20.6102 25.7444 20.7965 25.4384 20.7633C24.6202 20.6701 23.7953 20.5769 22.9771 20.4638C22.5646 20.4039 22.4116 20.2375 22.4382 19.9381C22.4648 19.6386 22.6511 19.5121 23.1168 19.5188Z" fill="#3FAF85"/>
<path d="M24.1479 29.4814C23.8419 29.4681 23.6556 29.3616 23.5958 29.1154C23.5293 28.8492 23.6823 28.6628 23.9018 28.5564C24.108 28.4632 24.3342 28.4033 24.5604 28.3434C25.1059 28.197 25.6314 27.9974 26.1569 27.7911C26.2301 27.7644 26.3033 27.7378 26.3764 27.7178C26.7091 27.6313 26.9685 27.7445 27.0417 28.0306C27.1215 28.3368 26.9552 28.5164 26.6958 28.6229C26.0704 28.8758 25.4451 29.1087 24.7932 29.2884C24.5537 29.355 24.3275 29.4282 24.1479 29.4814Z" fill="#3FAF85"/>
<path d="M28.8976 27.2785C28.5584 27.2718 28.3322 26.9324 28.4719 26.6263C28.5118 26.5398 28.565 26.44 28.6382 26.3801C29.2702 25.881 29.7159 25.2487 30.0485 24.5234C30.1882 24.2106 30.5275 24.144 30.7736 24.3304C30.9532 24.4635 31.0064 24.6498 30.9333 24.8628C30.594 25.8211 29.962 26.5598 29.1837 27.192C29.0906 27.2585 28.9908 27.2785 28.8976 27.2785Z" fill="#3FAF85"/>
<path d="M28.2258 20.2976C29.2303 20.5571 30.1883 20.9099 30.8003 21.8349C30.9732 22.1011 30.92 22.3606 30.6872 22.5004C30.4477 22.6401 30.2016 22.6202 30.0286 22.4006C29.5896 21.8282 28.9908 21.5221 28.3256 21.3158C28.1793 21.2692 28.0329 21.2293 27.9065 21.1228C27.7402 20.9698 27.6936 20.7834 27.7668 20.5838C27.84 20.3775 28.013 20.3043 28.2258 20.2976Z" fill="#3FAF85"/>
<path d="M9.31983 22.6468C6.4926 22.7067 3.98467 20.3642 3.99798 17.3162C4.01128 14.2816 6.51921 11.9723 9.39966 12.0122C12.2735 12.0522 14.6883 14.4546 14.6616 17.3628C14.6284 20.3642 12.167 22.7133 9.31983 22.6468ZM9.69236 21.5021C9.74558 21.5021 9.80545 21.5155 9.85867 21.5088C12.5396 21.1827 14.2226 18.3544 13.238 15.8255C12.6593 14.3415 11.1625 13.2168 9.73893 13.1968C9.29322 13.1036 8.85417 13.1635 8.42842 13.2634C6.23981 13.7625 4.85613 15.7989 5.18874 17.975C5.52801 20.1512 7.45718 21.6619 9.69236 21.5021Z" fill="#E43567"/>
<path d="M8.82763 29.9006C8.76775 29.8939 8.71454 29.8806 8.68127 29.8274C8.72784 29.8474 8.77441 29.874 8.82763 29.9006Z" fill="#E33767"/>
<path d="M8.8941 29.9405C8.86749 29.9205 8.83423 29.9006 8.80762 29.8806C8.84088 29.9006 8.86749 29.9205 8.8941 29.9405Z" fill="#E33767"/>
<path d="M25.2322 1.83016C27.3011 1.84347 28.9509 3.52051 28.9309 5.59019C28.9109 7.64656 27.2346 9.2504 25.1191 9.23043C23.1035 9.21047 21.4803 7.52677 21.5069 5.46375C21.5269 3.46727 23.2166 1.81685 25.2322 1.83016ZM25.2921 2.64871C23.6955 2.5622 22.3052 3.89984 22.3052 5.53029C22.3052 7.16075 23.6822 8.49839 25.2854 8.42519C26.5494 8.45846 27.6936 7.55339 28.0461 6.24237C28.5251 4.46551 27.0816 2.58882 25.2921 2.64871Z" fill="#F8A641"/>
<path d="M24.6734 14.2017C24.6135 14.1884 24.5603 14.1618 24.5337 14.1019C24.6135 14.0886 24.6534 14.1352 24.6734 14.2017Z" fill="#F6A741"/>
<path d="M9.73237 13.1899C11.156 13.2099 12.6594 14.3412 13.2315 15.8186C14.216 18.3475 12.533 21.1692 9.85211 21.5019C9.79889 21.5086 9.73902 21.5019 9.6858 21.4953C8.84096 21.3089 8.08259 20.9895 7.43732 20.3773C6.39956 19.399 5.99377 18.2078 6.13347 16.8169C6.32638 14.9668 7.88303 13.4295 9.73237 13.1899Z" fill="#FBFBFB"/>
<path d="M9.73228 13.1902C7.88293 13.4297 6.32629 14.967 6.13337 16.8238C5.99367 18.2146 6.39946 19.4059 7.43723 20.3841C8.0825 20.9964 8.84752 21.3158 9.68571 21.5022C7.45053 21.6685 5.52136 20.1579 5.18874 17.9817C4.85613 15.8056 6.23981 13.7691 8.42177 13.2634C8.84752 13.1569 9.28657 13.1037 9.73228 13.1902Z" fill="#E4E2E2"/>
<path d="M25.2921 2.64862C27.0882 2.58872 28.5251 4.45876 28.0461 6.24228C27.6936 7.55995 26.5494 8.46502 25.2854 8.42509C25.1125 8.35189 24.9395 8.27868 24.7665 8.21213C22.8706 7.44016 22.3717 4.95788 23.8086 3.49379C24.2344 3.06788 24.7532 2.85492 25.2921 2.64862Z" fill="#FEFEFE"/>
<path d="M25.2922 2.64866C24.76 2.85497 24.2344 3.06127 23.8153 3.48718C22.3784 4.95127 22.8774 7.44021 24.7733 8.20552C24.9462 8.27873 25.1192 8.35193 25.2922 8.41848C23.6823 8.49169 22.3053 7.15405 22.3119 5.52359C22.3053 3.90644 23.6889 2.5688 25.2922 2.64866Z" fill="#F1F0EE"/>
</g>
<defs>
<clipPath id="clip0_4823_25663">
<rect width="34" height="34" fill="white"/>
</clipPath>
</defs>
</svg>
