<svg width="33" height="35" viewBox="0 0 33 35" fill="none" xmlns="http://www.w3.org/2000/svg">
<g clip-path="url(#clip0_4823_25492)">
<path d="M16.2304 34.9999C11.0305 32.4869 5.83052 29.9738 0.621434 27.479C0.173636 27.2597 0 26.9856 0 26.483C0.0182775 20.4699 0.00913874 14.4569 0.00913874 8.4438C0.00913874 8.27017 -0.036555 8.07826 0.0822487 7.91377C0.191914 7.90464 0.283301 7.95033 0.374688 7.99602C2.27555 8.919 4.18554 9.83283 6.0864 10.7558C7.29272 11.3407 8.50817 11.9164 9.71448 12.5012C11.9718 13.5978 14.2382 14.6945 16.4954 15.7911C16.4954 22.1971 16.4954 28.6031 16.4954 34.9999C16.4132 34.9999 16.3218 34.9999 16.2304 34.9999ZM7.47549 23.7963C7.49377 23.513 7.32013 23.3576 7.09166 23.248C5.58377 22.526 4.07588 21.795 2.56799 21.073C2.42177 20.9999 2.26641 20.9634 2.11105 21.0274C1.89172 21.1096 1.75464 21.2649 1.73636 21.5117C1.70894 21.7858 1.82775 21.9686 2.07449 22.0874C3.28995 22.6723 4.51454 23.2663 5.72999 23.8602C6.04985 24.0156 6.36056 24.1801 6.68956 24.3172C7.09166 24.4634 7.47549 24.2166 7.47549 23.7963ZM1.72722 24.0704C1.69981 24.3629 1.89172 24.5091 2.11105 24.6187C2.8787 25.0025 3.63722 25.3681 4.41401 25.7336C4.74301 25.889 5.06286 25.7884 5.19994 25.5143C5.3553 25.2036 5.26392 24.9112 4.9075 24.7284C4.11243 24.3354 3.31736 23.9425 2.51315 23.5678C2.12019 23.3851 1.73636 23.6409 1.72722 24.0704Z" fill="#FEC250"/>
<path d="M16.5045 34.9999C16.5045 28.5939 16.5045 22.1879 16.5045 15.791C17.1077 15.4986 17.7108 15.2062 18.314 14.9229C19.3284 14.4385 20.3428 13.9634 21.3481 13.4699C21.8872 13.2049 22.4356 12.9764 22.9382 12.6383C22.9747 12.6383 23.0204 12.6474 23.057 12.6474C23.057 12.7023 23.0661 12.7571 23.0661 12.8211C23.0661 14.7767 23.0661 16.7414 23.0661 18.697C23.0661 19.1083 23.2032 19.1996 23.5596 19.026C24.6471 18.5051 25.7346 17.9751 26.8222 17.4634C27.2151 17.2806 27.3705 17.0156 27.3705 16.5861C27.3613 14.7036 27.3705 12.8211 27.3613 10.9477C27.3613 10.8289 27.3979 10.6918 27.3065 10.5913C27.3065 10.573 27.3065 10.5456 27.3065 10.5273C27.4527 10.5365 27.5715 10.4634 27.6903 10.3994C29.3262 9.60435 30.962 8.80931 32.5978 8.01427C32.6984 7.96857 32.7989 7.91374 32.9177 7.92288C33.0274 8.03254 32.9908 8.17876 32.9908 8.31583C32.9908 14.4385 32.9908 20.5704 32.9999 26.6931C32.9999 27.0952 32.7898 27.278 32.4699 27.4333C28.9515 29.1331 25.4239 30.8328 21.9055 32.5325C20.1966 33.355 18.4876 34.1775 16.7787 34.9999C16.6873 34.9999 16.5959 34.9999 16.5045 34.9999Z" fill="#FED064"/>
<path d="M22.9291 12.6384C22.4265 12.9674 21.869 13.205 21.339 13.47C20.3337 13.9634 19.3193 14.4386 18.3049 14.923C17.7018 15.2154 17.0986 15.4987 16.4955 15.7911C14.2382 14.6945 11.9718 13.5979 9.71451 12.5013C8.5082 11.9164 7.29274 11.3407 6.08643 10.7559C4.18557 9.8329 2.28471 8.91906 0.374715 7.99608C0.283328 7.95039 0.19194 7.91384 0.0822754 7.91384C0.155385 7.76762 0.292466 7.68538 0.438686 7.61227C2.40352 6.66188 4.37748 5.71149 6.34231 4.7611C6.41542 4.72454 6.48853 4.7154 6.57078 4.68799C7.78624 5.28198 9.01083 5.86684 10.2263 6.46083C12.712 7.6671 15.1978 8.87337 17.6926 10.0796C18.442 10.4452 19.1914 10.7833 19.9408 11.1488C20.9369 11.6423 21.933 12.1358 22.9291 12.6384Z" fill="#FEE07D"/>
<path d="M32.9178 7.92292C32.799 7.91378 32.6984 7.96861 32.5979 8.0143C30.9621 8.80934 29.3262 9.60438 27.6904 10.3994C27.5716 10.4542 27.4528 10.5365 27.3066 10.5274C26.9593 10.3629 26.6029 10.1984 26.2556 10.0339C23.4409 8.67226 20.6262 7.31064 17.8023 5.94903C16.0202 5.09002 14.2382 4.21273 12.4561 3.35373C11.9443 3.10699 11.4143 2.89681 10.9391 2.5861C12.1088 1.94641 13.3334 1.42553 14.5123 0.822394C14.9601 0.593935 15.4171 0.402029 15.8649 0.164431C16.2853 -0.0548905 16.6782 -0.0548905 17.0986 0.155292C19.2553 1.20621 21.4212 2.24798 23.578 3.28976C26.4567 4.67879 29.3354 6.05869 32.2141 7.44772C32.4791 7.57566 32.7715 7.63963 32.9178 7.92292Z" fill="#FEE07D"/>
<path d="M10.9483 2.58618C11.4326 2.88775 11.9535 3.10707 12.4653 3.35381C14.2473 4.21281 16.0294 5.08096 17.8115 5.94911C20.6262 7.31072 23.4409 8.67234 26.2648 10.034C26.6121 10.1985 26.9685 10.3629 27.3157 10.5274C27.3157 10.5457 27.3157 10.5731 27.3157 10.5914C27.1604 10.6554 27.005 10.7193 26.8497 10.7924C25.5885 11.4047 24.3457 12.081 23.0571 12.6475C23.0205 12.6475 22.9748 12.6384 22.9383 12.6384C21.9422 12.1449 20.946 11.6423 19.9408 11.158C19.1914 10.7924 18.442 10.4452 17.6927 10.0888C15.2069 8.88253 12.7212 7.67626 10.2263 6.46999C9.01085 5.876 7.78625 5.29114 6.5708 4.69715C8.01472 3.95694 9.46778 3.24415 10.9483 2.58618Z" fill="#FE8086"/>
<path d="M7.47555 23.7963C7.47555 24.2167 7.09172 24.4634 6.68961 24.2989C6.36062 24.1618 6.0499 23.9973 5.73005 23.842C4.51459 23.248 3.29 22.6631 2.07455 22.0691C1.8278 21.9503 1.709 21.7676 1.73641 21.4934C1.75469 21.2558 1.89177 21.1005 2.1111 21.0091C2.2756 20.9451 2.42182 20.9908 2.56804 21.0548C4.07593 21.7767 5.58383 22.5078 7.09172 23.2297C7.32019 23.3576 7.48468 23.513 7.47555 23.7963Z" fill="#FEFEFD"/>
<path d="M1.72723 24.0704C1.73637 23.6409 2.11106 23.3851 2.51316 23.5678C3.31737 23.9425 4.11244 24.3263 4.90751 24.7284C5.26392 24.9112 5.36445 25.2036 5.19995 25.5143C5.06287 25.7885 4.74301 25.889 4.41402 25.7336C3.64636 25.3681 2.87871 24.9934 2.11106 24.6187C1.89173 24.5091 1.69981 24.3629 1.72723 24.0704Z" fill="#FEE07D"/>
<path d="M23.057 12.6474C24.3456 12.0717 25.5793 11.4046 26.8496 10.7924C27.0049 10.7192 27.1603 10.6553 27.3157 10.5913C27.407 10.701 27.3705 10.8289 27.3705 10.9477C27.3705 12.8302 27.3614 14.7127 27.3796 16.5861C27.3796 17.0156 27.2243 17.2806 26.8313 17.4634C25.7347 17.966 24.6563 18.5051 23.5688 19.026C23.2124 19.1997 23.0753 19.1083 23.0753 18.6971C23.0753 16.7414 23.0753 14.7767 23.0753 12.8211C23.057 12.7571 23.057 12.7023 23.057 12.6474Z" fill="#E5656D"/>
</g>
<defs>
<clipPath id="clip0_4823_25492">
<rect width="33" height="35" fill="white"/>
</clipPath>
</defs>
</svg>
