<svg width="33" height="33" viewBox="0 0 33 33" fill="none" xmlns="http://www.w3.org/2000/svg">
<g clip-path="url(#clip0_4823_25687)">
<path d="M13.9541 32.7947C12.7074 32.6196 11.4957 32.2842 10.3341 31.8038C6.32366 30.1423 3.37964 27.3448 1.52211 23.4212C0.761073 21.8197 0.300445 20.1282 0.105179 18.3616C-0.265326 14.9685 0.310459 11.7456 1.94268 8.74785C4.28588 4.44895 7.85575 1.69144 12.6022 0.47033C14.0993 0.0849793 15.6314 -0.0551481 17.1735 0.0149156C21.0087 0.195079 24.3983 1.51628 27.3023 4.02856C29.9909 6.35568 31.7433 9.26833 32.5745 12.7265C32.7046 13.277 32.8248 13.8325 32.8649 14.403C32.7847 14.403 32.7447 14.3429 32.6996 14.2929C30.3514 11.9458 27.9982 9.59362 25.65 7.24649C25.63 7.24149 25.605 7.23648 25.5849 7.23148C25.2945 7.01128 24.9791 6.84112 24.6336 6.72101C24.4984 6.66096 24.3683 6.73102 24.2381 6.75604C21.6496 7.22147 19.056 7.68689 16.4675 8.15732C14.1543 8.5777 11.8412 8.99808 9.52803 9.41846C7.64546 9.75877 5.75789 10.1041 3.87532 10.4344C3.70008 10.4644 3.69007 10.5295 3.72512 10.6796C3.90035 11.4003 4.07059 12.1209 4.2308 12.8466C4.32593 13.277 4.45611 13.7024 4.51119 14.1428C4.40604 14.1778 4.376 14.2479 4.41105 14.3529C4.42607 14.408 4.43108 14.4731 4.44109 14.5281C4.376 14.5431 4.31091 14.5731 4.24082 14.5731C4.08561 14.5782 4.06558 14.6382 4.09562 14.7833C4.24082 15.4089 4.371 16.0395 4.51119 16.6651C5.07696 19.2424 5.64774 21.8147 6.2786 24.3771C6.45884 25.1177 6.79931 25.7333 7.43518 26.1737C7.41014 26.2337 7.46021 26.1987 7.48024 26.2087V26.2037C7.47022 26.3088 7.56035 26.3539 7.62043 26.4089C9.68324 28.4758 11.7511 30.5377 13.8139 32.6045C13.8639 32.6646 13.939 32.7096 13.9541 32.7947Z" fill="#FEAF41"/>
<path d="M13.9541 32.7947C13.9341 32.7096 13.859 32.6646 13.8039 32.6095C11.7411 30.5426 9.67325 28.4808 7.61044 26.4139C7.55036 26.3538 7.46024 26.3138 7.47025 26.2087C7.89583 26.4489 8.35646 26.574 8.84713 26.574C9.24767 26.574 9.63821 26.4839 10.0287 26.4039C12.392 25.9435 14.7602 25.488 17.1234 25.0326C19.2814 24.6173 21.4393 24.1969 23.5922 23.7815C24.7138 23.5663 25.8353 23.3511 26.9568 23.1309C27.077 23.1109 27.1972 23.0859 27.3073 23.0308C27.4976 23.0108 27.6678 22.9257 27.838 22.8506C28.3788 22.6154 28.6942 22.2051 28.7693 21.6145C28.8494 21.024 28.7643 20.4435 28.6191 19.8729C27.7479 16.3698 26.9318 12.8566 26.1107 9.33836C25.9454 8.64273 25.7902 7.94209 25.635 7.24146C27.9832 9.58859 30.3314 11.9407 32.6846 14.2879C32.7297 14.3329 32.7698 14.398 32.8499 14.398C32.95 14.8784 32.975 15.3638 32.985 15.8493C33.1102 20.7287 31.463 24.9125 27.9782 28.3356C25.5249 30.7478 22.5658 32.2142 19.1712 32.7747C17.4589 33.0599 15.7415 33.0699 14.0192 32.8047C14.0042 32.8097 13.9791 32.7997 13.9541 32.7947Z" fill="#FE9528"/>
<path d="M26.9668 23.131C25.8453 23.3462 24.7237 23.5614 23.6022 23.7816C21.4443 24.197 19.2863 24.6174 17.1334 25.0328C14.7702 25.4882 12.4019 25.9436 10.0387 26.404C9.64817 26.4791 9.25763 26.5742 8.85709 26.5742C8.36642 26.5692 7.90579 26.4491 7.48021 26.2088V26.2138C7.46519 26.2038 7.45017 26.1938 7.43515 26.1788C6.79928 25.7434 6.46382 25.1229 6.27857 24.3822C5.64771 21.8199 5.07693 19.2475 4.51116 16.6702C4.37097 16.0446 4.24079 15.414 4.09559 14.7885C4.06055 14.6433 4.08558 14.5833 4.24079 14.5783C4.30588 14.5783 4.37598 14.5482 4.44106 14.5332C4.59127 14.5482 4.64134 14.4882 4.58626 14.3431C4.56123 14.278 4.55622 14.2129 4.53619 14.1479C4.81658 14.1128 5.09696 14.0678 5.37234 13.9927H5.39236H5.41239C5.41239 14.0178 5.41239 14.0428 5.41239 14.0678C5.45745 14.3431 5.45745 14.3431 5.73283 14.298C5.95813 14.258 6.18344 14.2229 6.40875 14.1779C6.78927 14.1028 7.1798 14.0628 7.5503 13.9527C8.05599 13.8977 8.55167 13.7876 9.05235 13.6875C9.07739 13.6875 9.10242 13.6925 9.12746 13.6875C10.5894 13.4172 12.0564 13.152 13.5184 12.8817C14.65 12.6765 15.7865 12.4714 16.9181 12.2612C17.7192 12.116 18.5203 11.9609 19.3264 11.8108C19.5517 11.7657 19.777 11.7207 20.0073 11.6756C20.5731 11.6106 21.1338 11.4855 21.6896 11.3804C21.8548 11.3503 21.9249 11.3804 21.9549 11.5505C22 11.8158 22.0701 12.081 22.1302 12.3462C22.1953 12.6465 22.2654 12.9418 22.3305 13.2421C22.3255 13.3822 22.3755 13.5123 22.4056 13.6424C22.5407 14.248 22.6509 14.8535 22.8161 15.4541C22.8512 15.7093 22.9113 15.9595 22.9864 16.2047C22.9914 16.2398 23.0014 16.2798 23.0064 16.3148C23.0765 16.6952 23.1566 17.0705 23.2667 17.4409C23.2667 17.4959 23.2617 17.551 23.3018 17.591C23.3318 17.8212 23.3819 18.0464 23.452 18.2616C23.452 18.3017 23.447 18.3467 23.477 18.3817C23.492 18.5369 23.5271 18.687 23.5872 18.8271C23.5922 18.8622 23.5972 18.9022 23.6022 18.9372C23.6823 19.3176 23.7624 19.6979 23.8826 20.0633C23.8876 20.0983 23.8976 20.1383 23.9026 20.1734C23.9627 20.4186 24.0128 20.6638 24.1329 20.889C24.1379 20.9491 24.158 20.9991 24.198 21.0391C24.2781 21.2493 24.3632 21.4545 24.5335 21.6097C24.5585 21.6597 24.5735 21.7148 24.6086 21.7598C24.914 22.1652 25.2945 22.4855 25.7451 22.7307C26.1206 22.9409 26.5462 23.026 26.9668 23.131ZM7.05964 20.5287C7.05964 20.5337 7.06965 20.5687 7.07966 20.6037C7.21985 21.2093 7.36505 21.8199 7.50024 22.4254C7.53028 22.5705 7.58035 22.6006 7.72054 22.5705C8.80702 22.3653 9.8935 22.1652 10.98 21.97C11.1052 21.95 11.1302 21.8999 11.1001 21.7848C10.9499 21.1542 10.7997 20.5237 10.6595 19.8881C10.6345 19.773 10.5945 19.753 10.4843 19.773C9.9686 19.8731 9.4529 19.9632 8.9372 20.0583C8.34639 20.1684 7.76059 20.2734 7.16979 20.3835C7.11471 20.4086 7.0346 20.3936 7.05964 20.5287ZM19.3364 23.3613C19.3614 23.3562 19.3714 23.3563 19.3864 23.3512C20.4729 23.1511 21.5594 22.9559 22.6459 22.7557C22.746 22.7357 22.7861 22.7057 22.756 22.5956C22.6008 21.955 22.4556 21.3094 22.3054 20.6638C22.2854 20.5737 22.2453 20.5437 22.1502 20.5637C21.0687 20.7639 19.9923 20.9591 18.9108 21.1542C18.8057 21.1743 18.7606 21.2143 18.7906 21.3294C18.9458 21.97 19.091 22.6156 19.2412 23.2612C19.2563 23.3212 19.2713 23.3713 19.3364 23.3613ZM18.8707 17.4609C19.1111 17.4158 19.3514 17.3708 19.5917 17.3308C20.1625 17.2257 20.7333 17.1256 21.3041 17.0205C21.4092 17.0005 21.4643 16.9855 21.4292 16.8453C21.274 16.2148 21.1338 15.5842 20.9886 14.9486C20.9686 14.8635 20.9536 14.7985 20.8334 14.8235C20.0223 14.9736 19.2112 15.1238 18.4001 15.2689C18.32 15.2839 18.295 15.3089 18.315 15.389C18.4702 16.0496 18.6254 16.7152 18.7806 17.3758C18.7906 17.4209 18.7956 17.4809 18.8707 17.4609ZM17.5189 15.429C17.5139 15.429 17.5089 15.434 17.4989 15.434C16.6878 15.5792 15.8767 15.7293 15.0656 15.8744C14.9704 15.8895 14.9454 15.9395 14.9654 16.0296C15.1156 16.6752 15.2658 17.3158 15.416 17.9613C15.4411 18.0664 15.4861 18.0815 15.5863 18.0614C16.3773 17.9113 17.1684 17.7662 17.9595 17.631C18.0646 17.611 18.0947 17.576 18.0747 17.4709C17.9194 16.8203 17.7742 16.1697 17.624 15.5191C17.614 15.4591 17.599 15.409 17.5189 15.429ZM17.4238 14.5082C17.5289 14.4882 17.6591 14.4632 17.7843 14.4431C18.7306 14.268 19.6718 14.0978 20.6181 13.9227C20.6882 13.9077 20.7533 13.9127 20.7233 13.8026C20.6432 13.4823 20.5731 13.162 20.498 12.8367C20.4779 12.7566 20.4529 12.7266 20.3578 12.7466C20.1325 12.7967 19.9021 12.8267 19.6768 12.8717C18.8507 13.0219 18.0196 13.172 17.1935 13.3221C17.1033 13.3371 17.0382 13.3622 17.0633 13.4773C17.1384 13.7926 17.2135 14.1078 17.2836 14.4231C17.3036 14.4882 17.3286 14.5282 17.4238 14.5082ZM11.5157 17.3007C11.5357 17.2957 11.5558 17.2957 11.5758 17.2907C11.6058 17.3408 11.6359 17.3908 11.6659 17.4459C11.8311 17.7762 12.0064 18.1015 12.1566 18.4368C12.2217 18.5819 12.3168 18.5319 12.4169 18.5269C12.5221 18.5219 12.5521 18.4668 12.5571 18.3717C12.5922 17.6961 12.6322 17.0255 12.6723 16.3499C12.6723 16.3148 12.6923 16.2598 12.6523 16.2498C12.5421 16.2248 12.432 16.2748 12.3218 16.2898C12.2417 16.3048 12.2667 16.3749 12.2667 16.43C12.2567 16.8403 12.2517 17.2557 12.2367 17.6661C12.2367 17.7061 12.2667 17.7612 12.2016 17.8012C11.9964 17.3908 11.7861 16.9855 11.5958 16.5751C11.5307 16.43 11.4406 16.46 11.3305 16.47C11.1903 16.485 11.2303 16.5901 11.2253 16.6652C11.2203 16.9254 11.2153 17.1906 11.2153 17.4509C11.2153 17.621 11.2153 17.7862 11.2153 17.9563C11.1953 17.9563 11.1752 17.9613 11.1552 17.9613C10.97 17.596 10.7847 17.2307 10.5995 16.8653C10.4693 16.6101 10.4693 16.6151 10.1939 16.6752C10.0888 16.7002 10.0737 16.7252 10.1288 16.8203C10.4693 17.4309 10.8097 18.0414 11.1452 18.652C11.1803 18.712 11.2053 18.7371 11.2904 18.732C11.4656 18.717 11.5357 18.662 11.5257 18.4668C11.5007 18.0815 11.5157 17.6911 11.5157 17.3007ZM7.16478 17.9213C7.17479 17.9163 7.18481 17.9113 7.19482 17.9063C7.53528 18.2816 7.88075 18.647 8.2062 19.0323C8.3514 19.2075 8.49159 19.2725 8.7169 19.2075C8.83706 19.1724 8.86209 19.1424 8.83205 19.0223C8.68185 18.4068 8.53665 17.7862 8.40147 17.1656C8.34639 16.9154 8.19619 17.0705 8.08604 17.0655C7.93583 17.0605 7.97588 17.1656 7.99591 17.2457C8.07602 17.591 8.16114 17.9363 8.23624 18.2816C8.25627 18.3767 8.30133 18.4718 8.2813 18.6019C7.93082 18.2116 7.58535 17.8512 7.26492 17.4659C7.11972 17.2907 6.97953 17.2307 6.75923 17.2957C6.63906 17.3308 6.60401 17.3658 6.63406 17.4909C6.77425 18.0714 6.90943 18.657 7.04462 19.2375C7.1047 19.5027 7.1047 19.4927 7.36505 19.4477C7.49523 19.4227 7.50024 19.3726 7.4752 19.2575C7.36505 18.8171 7.26992 18.3717 7.16478 17.9213ZM6.27356 15.5041C6.35868 15.4891 6.4438 15.4691 6.52891 15.4541C7.80065 15.2239 9.07238 14.9886 10.3491 14.7584C11.1953 14.6033 12.0364 14.4482 12.8826 14.288C14.0392 14.0728 15.1957 13.8626 16.3523 13.6524C16.4174 13.6424 16.4825 13.6424 16.4625 13.5473C16.4424 13.4623 16.3924 13.4673 16.3173 13.4823C16.147 13.5173 15.9768 13.5473 15.8016 13.5774C14.3446 13.8426 12.8876 14.1078 11.4306 14.3731C10.1639 14.6033 8.89714 14.8385 7.63041 15.0737C7.16979 15.1588 6.71416 15.2439 6.25354 15.329C6.19846 15.339 6.13337 15.344 6.16341 15.429C6.18344 15.4841 6.20347 15.5341 6.27356 15.5041ZM6.39373 16.2298C6.57898 16.1947 6.7392 16.1597 6.89942 16.1347C8.18117 15.8995 9.45791 15.6693 10.7397 15.434C11.6409 15.2689 12.5371 15.0987 13.4383 14.9336C14.4597 14.7434 15.4811 14.5583 16.5075 14.3731C16.5726 14.3631 16.6327 14.3531 16.6177 14.263C16.6026 14.1679 16.5426 14.1879 16.4775 14.1979C15.1256 14.4482 13.7738 14.6934 12.4169 14.9386C10.6646 15.2589 8.91717 15.5842 7.16478 15.9045C6.91945 15.9495 6.67411 15.9946 6.42878 16.0446C6.36869 16.0546 6.32363 16.0796 6.33365 16.1547C6.34366 16.2047 6.36369 16.2398 6.39373 16.2298ZM6.33365 15.8694C6.38872 15.8594 6.40875 15.8594 6.42878 15.8544C7.78563 15.6042 9.14748 15.359 10.5043 15.1088C11.9062 14.8485 13.3082 14.5883 14.7101 14.333C15.2708 14.228 15.8366 14.1279 16.4024 14.0278C16.4625 14.0178 16.5326 14.0178 16.5426 13.9327C16.5476 13.9027 16.5376 13.8576 16.5075 13.8526C16.4524 13.8426 16.3924 13.8426 16.3423 13.8526C15.5813 13.9877 14.8252 14.1279 14.0642 14.268C12.8826 14.4882 11.701 14.7084 10.5194 14.9286C9.12746 15.1838 7.74056 15.434 6.34867 15.6843C6.29359 15.6943 6.2285 15.6993 6.24853 15.7844C6.26355 15.8444 6.3036 15.8744 6.33365 15.8694ZM13.7588 18.2967C14.2344 18.2916 14.5448 17.9363 14.4848 17.5159C14.4397 17.1957 14.2144 16.9905 13.8339 16.9154C13.7037 16.8904 13.5735 16.8854 13.4534 16.8253C13.3682 16.7853 13.3282 16.7102 13.3232 16.6151C13.3182 16.53 13.3632 16.47 13.4333 16.435C13.5234 16.3949 13.6436 16.3799 13.6937 16.465C13.8038 16.6552 13.954 16.5701 14.0992 16.5501C14.1944 16.535 14.2094 16.495 14.1693 16.4099C14.0542 16.1747 13.8639 16.0496 13.6086 16.0246C13.3833 15.9996 13.188 16.0746 13.0478 16.2598C12.7774 16.6101 12.9527 17.1156 13.3933 17.2457C13.5585 17.2957 13.7337 17.3158 13.904 17.3658C14.0341 17.4008 14.0892 17.5109 14.0992 17.6361C14.1092 17.7462 14.0492 17.8312 13.949 17.8763C13.8289 17.9313 13.6686 17.9463 13.6036 17.8312C13.4884 17.631 13.3482 17.7011 13.193 17.7261C13.0728 17.7462 13.0879 17.7962 13.1279 17.8763C13.2631 18.1615 13.4984 18.2816 13.7588 18.2967ZM6.52891 16.5751C6.63906 16.5501 6.74921 16.525 6.85936 16.505C8.40147 16.2248 9.94357 15.9445 11.4857 15.6643C12.8125 15.419 14.1393 15.1738 15.4711 14.9286C15.8366 14.8585 16.2071 14.7985 16.5726 14.7284C16.6227 14.7184 16.7178 14.7334 16.7078 14.6383C16.6978 14.5332 16.6127 14.5432 16.5376 14.5532C16.5125 14.5583 16.4875 14.5633 16.4625 14.5683C15.6914 14.7084 14.9204 14.8535 14.1493 14.9936C12.8625 15.2289 11.5808 15.4641 10.294 15.6993C9.3778 15.8644 8.45654 16.0346 7.54029 16.1997C7.20483 16.2598 6.86938 16.3249 6.52891 16.3849C6.45882 16.3949 6.40875 16.4199 6.41876 16.5C6.42878 16.5801 6.47884 16.5801 6.52891 16.5751ZM10.3892 18.8071C10.3742 18.5469 10.3341 18.5118 10.0788 18.5569C10.0287 18.5669 9.97862 18.5719 9.93355 18.5819C9.55804 18.657 9.55804 18.657 9.47793 18.2816C9.47293 18.2716 9.47293 18.2566 9.46792 18.2466C9.43788 18.1665 9.47793 18.1315 9.55304 18.1215C9.68822 18.0965 9.8234 18.0564 9.95859 18.0514C10.1438 18.0414 10.1839 17.9714 10.1338 17.7962C10.0988 17.6611 10.0537 17.616 9.91853 17.6611C9.85345 17.6811 9.78335 17.6861 9.71826 17.7011C9.33774 17.7662 9.34275 17.7662 9.26765 17.3858C9.24762 17.2757 9.26765 17.2257 9.3828 17.2107C9.55804 17.1856 9.72827 17.1456 9.89851 17.1206C10.0037 17.1056 9.99864 17.0305 9.9686 16.9704C9.92354 16.8904 9.99864 16.7202 9.82841 16.7452C9.50297 16.7903 9.17752 16.8603 8.85208 16.9204C8.77197 16.9354 8.75194 16.9604 8.77197 17.0455C8.92718 17.6961 9.07739 18.3417 9.22258 18.9923C9.23761 19.0674 9.26765 19.1024 9.34776 19.0824C9.6732 19.0223 9.99864 18.9573 10.3241 18.9022C10.3792 18.8972 10.4092 18.8722 10.3892 18.8071ZM18.3651 21.8199C18.335 21.7248 18.2549 21.7498 18.1948 21.7598C17.3086 21.9199 16.4224 22.0851 15.5312 22.2452C14.2595 22.4805 12.9877 22.7157 11.716 22.9509C10.4493 23.1861 9.18253 23.4213 7.9158 23.6565C7.86574 23.6665 7.7656 23.6315 7.78062 23.7366C7.79564 23.8417 7.87575 23.8017 7.94584 23.7866C8.49659 23.6815 9.04735 23.5815 9.5981 23.4814C10.8849 23.2462 12.1666 23.0109 13.4534 22.7757C14.3095 22.6206 15.1657 22.4654 16.0269 22.3103C16.7729 22.1752 17.5189 22.035 18.2649 21.8999C18.305 21.8899 18.36 21.8899 18.3651 21.8199ZM8.06601 24.6274C8.29132 24.5874 8.51662 24.5473 8.74694 24.5023C9.77834 24.3121 10.8148 24.1169 11.8462 23.9268C13.1229 23.6916 14.4047 23.4613 15.6814 23.2261C16.5876 23.061 17.4939 22.8908 18.4001 22.7257C18.4602 22.7157 18.5653 22.7407 18.5453 22.6356C18.5253 22.5405 18.4351 22.5856 18.3701 22.5956C17.9345 22.6756 17.5039 22.7557 17.0683 22.8358C15.7965 23.066 14.5198 23.3012 13.2481 23.5314C12.3218 23.7016 11.4006 23.8717 10.4743 24.0419C9.6732 24.192 8.87211 24.3371 8.07101 24.4873C8.02595 24.4973 7.96086 24.4773 7.96086 24.5573C7.96587 24.6174 8.01093 24.6374 8.06601 24.6274ZM18.2649 21.3945C18.2199 21.3044 18.1347 21.3394 18.0646 21.3544C17.3587 21.4845 16.6577 21.6197 15.9518 21.7498C14.665 21.985 13.3833 22.2202 12.0965 22.4554C11.1803 22.6206 10.259 22.7907 9.34275 22.9559C8.82705 23.051 8.31635 23.1511 7.80065 23.2462C7.74557 23.2562 7.67548 23.2562 7.6905 23.3362C7.70552 23.4263 7.77061 23.3863 7.82568 23.3763C8.08103 23.3312 8.34138 23.2912 8.59673 23.2411C9.91353 22.9959 11.2253 22.7507 12.5421 22.5105C14.4097 22.1702 16.2772 21.8299 18.1448 21.4896C18.1948 21.4795 18.2449 21.4745 18.2649 21.3945ZM18.6354 23.4063C18.6254 23.4063 18.6104 23.4113 18.6004 23.4113C17.4238 23.6265 16.2522 23.8467 15.0756 24.0619C14.0392 24.2521 13.0077 24.4472 11.9713 24.6374C10.7447 24.8626 9.52299 25.0878 8.29632 25.313C8.23624 25.323 8.15613 25.313 8.17616 25.4131C8.19619 25.4932 8.26127 25.4582 8.31635 25.4482C9.87347 25.1629 11.4256 24.8776 12.9827 24.5924C14.3846 24.3371 15.7865 24.0769 17.1884 23.8167C17.6641 23.7266 18.1448 23.6415 18.6204 23.5564C18.6755 23.5464 18.7456 23.5514 18.7356 23.4714C18.7306 23.4113 18.6855 23.4013 18.6354 23.4063ZM7.97088 24.212C7.98089 24.207 7.99591 24.202 8.00593 24.202C8.96724 24.0269 9.92855 23.8517 10.8899 23.6765C11.9263 23.4864 12.9577 23.2912 13.9941 23.106C15.4411 22.8408 16.883 22.5805 18.33 22.3153C18.3901 22.3053 18.4702 22.3053 18.4502 22.2102C18.4301 22.1301 18.355 22.1652 18.305 22.1752C16.6627 22.4755 15.0255 22.7757 13.3833 23.076C11.9813 23.3312 10.5794 23.5915 9.17752 23.8517C8.78198 23.9268 8.38144 24.0018 7.9859 24.0719C7.93583 24.0819 7.88076 24.0769 7.88576 24.152C7.88076 24.212 7.9158 24.227 7.97088 24.212ZM8.17616 25.0428C8.19118 25.0378 8.21621 25.0278 8.24125 25.0228C8.92718 24.8977 9.61312 24.7675 10.294 24.6424C11.8412 24.3622 13.3933 24.0819 14.9404 23.8017C16.127 23.5865 17.3136 23.3613 18.5002 23.1411C18.5553 23.131 18.6454 23.1561 18.6354 23.061C18.6254 22.9509 18.5353 22.9959 18.4752 23.0059C16.7779 23.3162 15.0856 23.6265 13.3933 23.9368C12.1215 24.172 10.8498 24.4072 9.57807 24.6424C9.10743 24.7275 8.63679 24.8176 8.16614 24.9027C8.11107 24.9127 8.06601 24.9227 8.07602 24.9877C8.07602 25.0478 8.12108 25.0478 8.17616 25.0428ZM11.5508 21.0241C12.0114 20.9391 12.452 20.859 12.8926 20.7789C14.2144 20.5387 15.5362 20.2985 16.858 20.0532C17.7292 19.8931 18.5954 19.738 19.4615 19.5778C20.2426 19.4327 21.0287 19.2876 21.8097 19.1424C21.8548 19.1324 21.9399 19.1524 21.9299 19.0623C21.9199 18.9673 21.8498 19.0023 21.7847 19.0123C20.3728 19.2675 18.9559 19.5228 17.5439 19.783C16.142 20.0382 14.7451 20.2985 13.3432 20.5587C12.7424 20.6688 12.1466 20.7789 11.5458 20.889C11.4957 20.899 11.4356 20.894 11.4506 20.9691C11.4656 21.0291 11.5157 21.0391 11.5508 21.0241ZM21.9499 19.3977C21.9049 19.4077 21.8798 19.4177 21.8548 19.4227C21.1639 19.5478 20.4729 19.6779 19.782 19.803C18.5052 20.0382 17.2235 20.2734 15.9468 20.5087C15.1707 20.6488 14.3896 20.7889 13.6136 20.934C12.9627 21.0542 12.3168 21.1743 11.6709 21.2994C11.6158 21.3094 11.5458 21.3044 11.5608 21.3895C11.5758 21.4795 11.6409 21.4395 11.691 21.4295C12.6072 21.2643 13.5285 21.0992 14.4447 20.929C15.7865 20.6838 17.1234 20.4336 18.4652 20.1884C19.3163 20.0332 20.1675 19.8831 21.0187 19.728C21.3241 19.6729 21.6295 19.6078 21.9349 19.5478C21.99 19.5378 22.0301 19.5178 22.015 19.4527C22.005 19.3977 21.97 19.3926 21.9499 19.3977ZM22.0551 19.813C22.01 19.828 21.99 19.833 21.97 19.833C20.7583 20.0532 19.5467 20.2734 18.335 20.4987C17.3637 20.6788 16.3874 20.859 15.416 21.0391C14.1994 21.2643 12.9827 21.4896 11.761 21.7148C11.716 21.7248 11.6309 21.6897 11.6459 21.7898C11.6609 21.8799 11.721 21.8599 11.7911 21.8449C13.4734 21.5346 15.1557 21.2293 16.843 20.924C18.2499 20.6638 19.6568 20.4036 21.0637 20.1433C21.3892 20.0833 21.7096 20.0232 22.0351 19.9582C22.0801 19.9482 22.1252 19.9482 22.1152 19.8831C22.1152 19.828 22.0801 19.808 22.0551 19.813ZM11.3255 19.768C12.5872 19.5378 13.8739 19.3026 15.1607 19.0674C16.0619 18.9022 16.9581 18.732 17.8594 18.5669C19.076 18.3417 20.2927 18.1165 21.5093 17.8963C21.5644 17.8863 21.6545 17.9063 21.6345 17.8062C21.6195 17.7111 21.5444 17.7512 21.4843 17.7662C20.7283 17.9063 19.9672 18.0514 19.2112 18.1916C17.9245 18.4268 16.6427 18.662 15.3559 18.8972C14.4998 19.0523 13.6436 19.2075 12.7874 19.3626C12.2968 19.4527 11.8061 19.5428 11.3204 19.6379C11.2654 19.6479 11.1652 19.6379 11.1853 19.748C11.2003 19.823 11.2604 19.768 11.3255 19.768ZM11.3955 20.1884C11.3755 20.1934 11.3955 20.1884 11.4156 20.1834C12.6272 19.9632 13.8389 19.743 15.0505 19.5178C16.0219 19.3376 16.9932 19.1574 17.9695 18.9823C19.1862 18.7571 20.4028 18.5369 21.6195 18.3117C21.6696 18.3017 21.7697 18.3317 21.7447 18.2266C21.7246 18.1415 21.6545 18.1715 21.5895 18.1866C19.772 18.5169 17.9545 18.8472 16.137 19.1825C14.8603 19.4177 13.5785 19.6529 12.3018 19.8881C11.9813 19.9482 11.6659 20.0082 11.3505 20.0683C11.3054 20.0783 11.2554 20.0783 11.2704 20.1433C11.2704 20.1884 11.3054 20.2134 11.3955 20.1884ZM11.4206 20.6188C11.4807 20.6037 11.5057 20.5937 11.5307 20.5887C12.5471 20.4036 13.5635 20.2134 14.5799 20.0282C15.8516 19.798 17.1284 19.5678 18.4001 19.3376C19.2713 19.1775 20.1375 19.0223 21.0087 18.8622C21.259 18.8171 21.5093 18.7621 21.7597 18.717C21.8097 18.707 21.8448 18.687 21.8348 18.632C21.8248 18.5719 21.7847 18.5719 21.7397 18.5819C21.6595 18.5969 21.5794 18.6119 21.4993 18.627C20.5981 18.7921 19.7019 18.9623 18.8006 19.1274C17.5239 19.3626 16.2422 19.5928 14.9654 19.828C14.1092 19.9832 13.2531 20.1383 12.3969 20.2935C12.0865 20.3485 11.7761 20.4136 11.4606 20.4736C11.4056 20.4836 11.3655 20.5037 11.3805 20.5687C11.3805 20.6188 11.4156 20.6238 11.4206 20.6188Z" fill="#FDFDFC"/>
<path d="M5.40246 13.9927H5.38243H5.36241C5.30733 13.5423 5.17215 13.1069 5.07201 12.6665C4.96687 12.1761 4.8467 11.6856 4.73155 11.1952C4.70651 11.0751 4.70651 11 4.87174 10.985C5.05699 10.975 5.23724 10.9149 5.42249 10.8849C6.77934 10.6447 8.13619 10.4045 9.49304 10.1592C10.5495 9.96906 11.6059 9.76387 12.6624 9.5737C14.0192 9.32847 15.3761 9.09326 16.7329 8.84804C17.9646 8.62784 19.2013 8.40263 20.433 8.17743C21.5945 7.96724 22.7561 7.75704 23.9127 7.54185C24.1981 7.4868 24.4935 7.48179 24.7589 7.35668C25.0392 7.37169 25.3046 7.28161 25.58 7.23657C25.6 7.24158 25.625 7.24658 25.6451 7.25159C25.8053 7.95222 25.9605 8.64786 26.1207 9.34849C26.9418 12.8617 27.7579 16.3799 28.6291 19.8831C28.7693 20.4536 28.8544 21.0341 28.7793 21.6247C28.6992 22.2152 28.3888 22.6256 27.8481 22.8608C27.6778 22.9358 27.5076 23.0159 27.3173 23.0409C27.2523 23.0259 27.1822 23.0109 27.1171 22.9959C26.2509 22.8057 25.57 22.3353 25.0342 21.6397C24.9691 21.5546 24.9842 21.4845 25.0943 21.4695C25.2796 21.4395 25.4598 21.4145 25.6451 21.3894C25.9905 21.3444 26.341 21.3444 26.6765 21.2393C26.9068 21.1692 26.9168 21.1292 26.8818 20.889C26.8066 20.3835 26.6715 19.8931 26.5513 19.3976C26.2309 18.0764 25.9154 16.7552 25.595 15.429C25.3897 14.5782 25.1844 13.7275 24.9842 12.8767C24.7438 11.8608 24.5185 10.8449 24.2782 9.82893C24.1831 9.42856 24.1781 9.43357 23.7775 9.50864C22.6209 9.72383 21.4594 9.93402 20.2978 10.1442C19.1863 10.3444 18.0747 10.5446 16.9632 10.7448C15.5813 10.995 14.2045 11.2452 12.8276 11.4954C11.8162 11.6806 10.7998 11.8658 9.78844 12.0509C8.90223 12.2111 8.02103 12.3762 7.13482 12.5314C7.02467 12.5514 7.00464 12.5864 7.02968 12.6915C7.09977 12.9718 7.15485 13.262 7.23496 13.5423C7.265 13.6524 7.21493 13.6774 7.13983 13.6924C7.00965 13.7175 6.88448 13.7375 6.7543 13.7575C6.30369 13.8276 5.85308 13.9076 5.40246 13.9927Z" fill="#DADADA"/>
<path d="M24.7588 7.35166C24.4884 7.47677 24.193 7.48177 23.9126 7.53682C22.756 7.75202 21.5944 7.96221 20.4329 8.1724C19.2012 8.39761 17.9645 8.62281 16.7328 8.84301C15.376 9.08823 14.0191 9.32345 12.6623 9.56867C11.6058 9.75884 10.5494 9.96403 9.49294 10.1542C8.13609 10.3994 6.77924 10.6346 5.42239 10.8799C5.23713 10.9149 5.05689 10.9699 4.87164 10.98C4.70641 10.99 4.70641 11.07 4.73144 11.1901C4.8466 11.6806 4.96176 12.171 5.07191 12.6615C5.16704 13.1019 5.30222 13.5373 5.3623 13.9877C5.08693 14.0628 4.80655 14.1078 4.52616 14.1428C4.51615 14.1428 4.50614 14.1428 4.50113 14.1378C4.45106 13.6974 4.31588 13.272 4.22075 12.8416C4.06053 12.116 3.8903 11.3953 3.71506 10.6747C3.68001 10.5245 3.69002 10.4645 3.86526 10.4295C5.75284 10.0941 7.6354 9.75384 9.51797 9.41353C11.8311 8.99315 14.1443 8.57277 16.4574 8.15238C19.046 7.68196 21.6395 7.21653 24.228 6.75111C24.3582 6.72609 24.4834 6.65602 24.6236 6.71608C24.6736 6.93127 24.7187 7.14146 24.7588 7.35166Z" fill="#FEFDFC"/>
<path d="M24.7588 7.35152C24.7138 7.14133 24.6687 6.93114 24.6287 6.72095C24.9691 6.84106 25.2896 7.01121 25.58 7.23141C25.3046 7.27645 25.0442 7.36653 24.7588 7.35152Z" fill="#FE9528"/>
<path d="M4.50112 14.1428C4.51113 14.1478 4.51614 14.1478 4.52615 14.1478C4.54118 14.2129 4.55119 14.2829 4.57622 14.343C4.62629 14.4881 4.58123 14.5482 4.43102 14.5332C4.42101 14.4731 4.42101 14.4131 4.40098 14.358C4.37094 14.2479 4.39598 14.1779 4.50112 14.1428Z" fill="#FE9528"/>
<path d="M7.42519 26.1736C7.44021 26.1836 7.45523 26.1936 7.47025 26.2086C7.45523 26.1986 7.40517 26.2386 7.42519 26.1736Z" fill="#FE9528"/>
<path d="M5.40241 13.9927C5.85303 13.9126 6.30364 13.8275 6.75926 13.7475C6.88944 13.7225 7.01461 13.7074 7.14479 13.6824C7.2249 13.6674 7.26996 13.6424 7.23992 13.5323C7.16482 13.252 7.10974 12.9618 7.03464 12.6815C7.0096 12.5764 7.02963 12.5414 7.13978 12.5214C8.02599 12.3662 8.9122 12.2011 9.7934 12.0409C10.8048 11.8558 11.8212 11.6706 12.8325 11.4854C14.2094 11.2352 15.5913 10.985 16.9682 10.7347C18.0797 10.5346 19.1912 10.3344 20.3027 10.1342C21.4643 9.924 22.6209 9.71381 23.7825 9.49861C24.183 9.42354 24.188 9.41854 24.2832 9.8189C24.5235 10.8348 24.7538 11.8507 24.9891 12.8667C25.1894 13.7174 25.3997 14.5682 25.6 15.419C25.9204 16.7402 26.2358 18.0614 26.5563 19.3876C26.6764 19.883 26.8116 20.3735 26.8867 20.879C26.9218 21.1192 26.9117 21.1592 26.6814 21.2293C26.346 21.3344 25.9955 21.3294 25.65 21.3794C25.4648 21.4044 25.2795 21.4295 25.0993 21.4595C24.9891 21.4795 24.9691 21.5446 25.0392 21.6296C25.5749 22.3253 26.2559 22.8007 27.122 22.9859C27.1871 23.0009 27.2572 23.0159 27.3223 23.0309C27.2122 23.086 27.092 23.111 26.9718 23.131C26.5513 23.0259 26.1307 22.9408 25.7452 22.7306C25.2945 22.4854 24.914 22.1651 24.6086 21.7598C24.5736 21.7147 24.5585 21.6597 24.5335 21.6096C24.5585 21.5646 24.6036 21.5696 24.6487 21.5596C24.9441 21.5045 24.9441 21.5045 24.8039 21.2343C24.7738 21.1792 24.7488 21.1242 24.7188 21.0691C24.6737 20.979 24.6837 20.939 24.7939 20.924C25.0642 20.884 25.3296 20.8289 25.5949 20.7789C25.64 20.7689 25.6901 20.7789 25.6851 20.7138C25.6801 20.6538 25.635 20.6187 25.5799 20.6337C25.2695 20.6988 24.9491 20.7238 24.6437 20.8189C24.6186 20.8189 24.5936 20.8189 24.5686 20.8139C24.5686 20.7889 24.5736 20.7588 24.5635 20.7388C24.4734 20.5637 24.5485 20.5236 24.7238 20.5086C24.9691 20.4836 25.2094 20.4185 25.4548 20.3685C25.5148 20.3585 25.5949 20.3685 25.5799 20.2734C25.5649 20.1833 25.4848 20.2134 25.4247 20.2234C25.1894 20.2684 24.9541 20.3235 24.7137 20.3585C24.4584 20.3985 24.4584 20.3935 24.3883 20.1383C24.7087 20.0782 25.0342 20.0132 25.3546 19.9531C25.4097 19.9431 25.4798 19.9531 25.4698 19.868C25.4548 19.773 25.3797 19.808 25.3196 19.808C25.3096 19.808 25.2945 19.818 25.2845 19.818C25.0192 19.868 24.7488 19.9181 24.4834 19.9731C24.3583 19.9982 24.3282 19.9281 24.3132 19.833C24.2982 19.7379 24.3282 19.6929 24.4384 19.6779C24.7087 19.6428 24.9741 19.5828 25.2445 19.5327C25.3096 19.5227 25.4047 19.5277 25.3847 19.4326C25.3646 19.3426 25.2695 19.3776 25.2094 19.3926C24.934 19.4427 24.6587 19.4877 24.3883 19.5578C24.2631 19.5878 24.2331 19.5277 24.2081 19.4376C24.178 19.3275 24.2481 19.2925 24.3332 19.2775C24.6086 19.2275 24.884 19.1724 25.1543 19.1274C25.2144 19.1174 25.2945 19.1274 25.2745 19.0323C25.2545 18.9472 25.1744 18.9772 25.1193 18.9872C24.869 19.0323 24.6186 19.0873 24.3683 19.1224C24.1229 19.1574 24.1229 19.1524 24.0829 18.8972C24.4033 18.8371 24.7288 18.772 25.0492 18.712C25.1143 18.702 25.2094 18.707 25.1944 18.6119C25.1794 18.5168 25.0792 18.5568 25.0192 18.5669C24.7388 18.6119 24.4584 18.6669 24.178 18.722C24.1279 18.732 24.0779 18.767 24.0478 18.707C23.9978 18.6019 23.9477 18.4818 23.9777 18.3667C24.0028 18.2616 24.1179 18.2816 24.198 18.2666C24.4584 18.2115 24.7238 18.1665 24.9841 18.1164C25.0242 18.1064 25.0993 18.1265 25.0792 18.0414C25.0642 17.9763 25.0242 17.9613 24.9491 17.9763C24.7588 18.0214 24.5635 18.0614 24.3683 18.0964C24.2481 18.1164 24.1279 18.1565 23.9978 18.1515C23.8776 18.1465 23.8826 18.0514 23.8676 17.9813C23.8476 17.9063 23.9076 17.8912 23.9727 17.8862C24.0328 17.8812 24.0929 17.8612 24.153 17.8512C24.3983 17.8062 24.6386 17.7611 24.884 17.7161C24.9391 17.7061 24.9991 17.6861 24.9791 17.606C24.9591 17.5309 24.904 17.5659 24.8589 17.576C24.6036 17.621 24.3432 17.661 24.0879 17.7111C23.8175 17.7611 23.8175 17.7661 23.7474 17.5159C23.7474 17.5059 23.7474 17.4909 23.7524 17.4809C24.1029 17.4458 24.4484 17.3507 24.7939 17.2957C24.8439 17.2857 24.879 17.2657 24.874 17.2106C24.869 17.1406 24.8239 17.1606 24.7788 17.1706C24.7087 17.1856 24.6336 17.1956 24.5585 17.2056C24.3182 17.2457 24.0829 17.2907 23.8426 17.3307C23.7424 17.3457 23.6924 17.2907 23.6773 17.1956C23.6623 17.0905 23.7224 17.0805 23.8075 17.0655C24.1079 17.0104 24.4033 16.9454 24.6987 16.8903C24.7488 16.8803 24.8089 16.8803 24.7889 16.8053C24.7738 16.7452 24.7238 16.7452 24.6687 16.7602C24.5185 16.7902 24.3633 16.8153 24.2131 16.8403C24.0528 16.8703 23.8976 16.8953 23.7374 16.9254C23.6173 16.9454 23.5922 16.8603 23.5722 16.7702C23.5472 16.6651 23.6223 16.6651 23.6974 16.6551C23.7524 16.6501 23.8075 16.6301 23.8626 16.6201C24.1079 16.575 24.3482 16.53 24.5936 16.485C24.6487 16.475 24.7087 16.4549 24.6887 16.3749C24.6687 16.2998 24.6136 16.3348 24.5686 16.3448C24.3182 16.3899 24.0679 16.4299 23.8175 16.475C23.5321 16.525 23.5321 16.53 23.462 16.2497C23.8125 16.2197 24.158 16.1296 24.5035 16.0696C24.5535 16.0596 24.6336 16.0696 24.6086 15.9795C24.5886 15.9144 24.5335 15.9144 24.4734 15.9295C24.188 15.9895 23.9026 16.0346 23.6173 16.0946C23.4921 16.1196 23.417 16.0846 23.3919 15.9495C23.3569 15.7593 23.3118 15.5741 23.2718 15.384C23.5772 15.2889 23.8926 15.2588 24.2031 15.2038C24.3733 15.1738 24.4234 15.1237 24.3783 14.9486C24.2281 14.343 24.0879 13.7325 23.9527 13.1169C23.9227 12.9868 23.8676 12.9818 23.7574 13.0018C23.422 13.0669 23.0865 13.1169 22.7511 13.172C22.686 12.8817 22.6259 12.5964 22.5608 12.3062C22.8863 12.181 23.2367 12.171 23.5722 12.091C23.6873 12.0659 23.7024 12.0159 23.6773 11.9258C23.6122 11.6356 23.5321 11.3503 23.4771 11.055C23.452 10.9099 23.3719 10.9049 23.2668 10.9249C22.9313 10.985 22.5959 11.045 22.2654 11.1051C22.2704 10.975 22.2454 10.9199 22.0802 10.9499C20.8134 11.1851 19.5417 11.4103 18.275 11.6406C17.0633 11.8608 15.8467 12.086 14.635 12.3062C13.6737 12.4813 12.7074 12.6565 11.7461 12.8316C10.4343 13.0719 9.12249 13.3071 7.8107 13.5573C7.66049 13.5873 7.49527 13.5823 7.36008 13.6724C7.41516 13.7875 7.55034 13.8275 7.56536 13.9527C7.18985 14.0628 6.80432 14.1028 6.42381 14.1779C6.1985 14.2229 5.97319 14.2579 5.74788 14.298C5.47251 14.343 5.47251 14.343 5.42745 14.0678C5.39741 14.0427 5.40241 14.0177 5.40241 13.9927Z" fill="#C4C4C4"/>
<path d="M7.05965 20.5286C7.03462 20.3935 7.11473 20.4035 7.1698 20.3935C7.76061 20.2834 8.34641 20.1733 8.93721 20.0682C9.45291 19.9731 9.96862 19.883 10.4843 19.7829C10.5995 19.7629 10.6345 19.7829 10.6596 19.898C10.7998 20.5286 10.95 21.1642 11.1002 21.7948C11.1302 21.9099 11.1002 21.9549 10.98 21.9799C9.89352 22.1751 8.80703 22.3753 7.72055 22.5805C7.58036 22.6055 7.53029 22.5755 7.50025 22.4353C7.37007 21.8248 7.21987 21.2192 7.07968 20.6137C7.06966 20.5687 7.05965 20.5336 7.05965 20.5286Z" fill="#1CB9A0"/>
<path d="M19.3364 23.3611C19.2713 23.3762 19.2563 23.3211 19.2413 23.261C19.0911 22.6155 18.9459 21.9749 18.7907 21.3293C18.7656 21.2142 18.8057 21.1742 18.9108 21.1541C19.9923 20.959 21.0688 20.7638 22.1503 20.5636C22.2504 20.5436 22.2854 20.5786 22.3055 20.6637C22.4507 21.3093 22.6009 21.9499 22.7561 22.5954C22.7811 22.7055 22.7411 22.7406 22.6459 22.7556C21.5594 22.9508 20.473 23.1509 19.3865 23.3511C19.3765 23.3561 19.3614 23.3561 19.3364 23.3611Z" fill="#E37C58"/>
<path d="M18.8708 17.4608C18.7957 17.4809 18.7907 17.4258 18.7806 17.3758C18.6254 16.7152 18.4702 16.0496 18.315 15.389C18.295 15.3039 18.325 15.2789 18.4001 15.2689C19.2112 15.1237 20.0223 14.9736 20.8334 14.8234C20.9536 14.8034 20.9686 14.8635 20.9887 14.9486C21.1339 15.5791 21.274 16.2147 21.4293 16.8453C21.4643 16.9854 21.4092 17.0054 21.3041 17.0204C20.7333 17.1205 20.1625 17.2256 19.5917 17.3307C19.3514 17.3708 19.1111 17.4158 18.8708 17.4608Z" fill="#1CB9A0"/>
<path d="M17.5189 15.429C17.599 15.409 17.614 15.4591 17.629 15.5191C17.7792 16.1697 17.9294 16.8203 18.0797 17.4709C18.1047 17.576 18.0746 17.611 17.9645 17.631C17.1734 17.7712 16.3823 17.9163 15.5913 18.0614C15.4911 18.0815 15.4411 18.0664 15.421 17.9613C15.2758 17.3158 15.1256 16.6752 14.9704 16.0296C14.9504 15.9395 14.9754 15.8895 15.0705 15.8744C15.8817 15.7293 16.6928 15.5792 17.5039 15.434C17.5089 15.429 17.5139 15.429 17.5189 15.429Z" fill="#E37C58"/>
<path d="M17.4238 14.5082C17.3286 14.5282 17.3036 14.4932 17.2886 14.4281C17.2185 14.1128 17.1434 13.7976 17.0683 13.4823C17.0432 13.3672 17.1083 13.3421 17.1984 13.3271C18.0246 13.177 18.8557 13.0269 19.6818 12.8767C19.9071 12.8367 20.1375 12.8017 20.3628 12.7516C20.4579 12.7316 20.4829 12.7616 20.503 12.8417C20.5781 13.162 20.6482 13.4873 20.7283 13.8076C20.7533 13.9177 20.6932 13.9177 20.6231 13.9277C19.6768 14.0978 18.7355 14.273 17.7893 14.4482C17.6591 14.4632 17.5289 14.4882 17.4238 14.5082Z" fill="#71B6DA"/>
<path d="M22.731 13.167C23.0664 13.1119 23.4019 13.0619 23.7374 12.9968C23.8475 12.9768 23.9076 12.9818 23.9326 13.1119C24.0678 13.7225 24.203 14.333 24.3582 14.9436C24.4033 15.1238 24.3532 15.1688 24.183 15.1988C23.8725 15.2539 23.5571 15.2839 23.2517 15.379C23.0965 15.384 22.9463 15.409 22.8011 15.4541C22.6358 14.8585 22.5257 14.248 22.3905 13.6424C22.3605 13.5123 22.3104 13.3822 22.3154 13.242C22.4556 13.227 22.5958 13.212 22.731 13.167Z" fill="#7EAFA8"/>
<path d="M7.54036 13.9525C7.52534 13.8274 7.39016 13.7874 7.33508 13.6723C7.47027 13.5772 7.63549 13.5822 7.7857 13.5572C9.09749 13.312 10.4093 13.0717 11.7211 12.8315C12.6824 12.6564 13.6487 12.4812 14.61 12.3061C15.8217 12.0859 17.0383 11.8606 18.25 11.6404C19.5167 11.4102 20.7884 11.185 22.0552 10.9498C22.2154 10.9198 22.2454 10.9698 22.2404 11.105C21.5294 11.2351 20.8235 11.3652 20.1125 11.4953C20.0074 11.5153 19.9673 11.5754 19.9873 11.6805C19.762 11.7255 19.5367 11.7706 19.3064 11.8156C19.3364 11.6705 19.2764 11.6404 19.1362 11.6655C18.5704 11.7756 17.9996 11.8707 17.4339 11.9758C16.4325 12.1609 15.4361 12.3461 14.4348 12.5313C13.4584 12.7114 12.4821 12.8816 11.5058 13.0617C10.7397 13.2019 9.97368 13.362 9.20263 13.4921C9.06745 13.5172 9.01237 13.5472 9.0324 13.6823C8.54173 13.7824 8.04605 13.8925 7.54036 13.9525Z" fill="#B5B4B4"/>
<path d="M11.5158 17.3007C11.5158 17.691 11.5007 18.0814 11.5208 18.4717C11.5308 18.6669 11.4557 18.722 11.2854 18.737C11.2053 18.742 11.1753 18.717 11.1402 18.6569C10.8048 18.0464 10.4643 17.4308 10.1239 16.8252C10.0738 16.7302 10.0838 16.7051 10.1889 16.6801C10.4643 16.6201 10.4643 16.6151 10.5945 16.8703C10.7798 17.2356 10.965 17.6009 11.1503 17.9663C11.1703 17.9663 11.1903 17.9613 11.2103 17.9613C11.2103 17.7911 11.2103 17.626 11.2103 17.4558C11.2103 17.1956 11.2153 16.9303 11.2204 16.6701C11.2204 16.59 11.1803 16.4899 11.3255 16.4749C11.4356 16.4599 11.5258 16.4299 11.5909 16.58C11.7811 16.9954 11.9914 17.3958 12.1967 17.8061C12.2618 17.7661 12.2317 17.7111 12.2317 17.671C12.2417 17.2606 12.2518 16.8453 12.2618 16.4349C12.2618 16.3848 12.2367 16.3098 12.3168 16.2948C12.427 16.2747 12.5371 16.2247 12.6473 16.2547C12.6874 16.2647 12.6673 16.3198 12.6673 16.3548C12.6273 17.0304 12.5872 17.701 12.5522 18.3767C12.5472 18.4717 12.5171 18.5268 12.412 18.5318C12.3118 18.5368 12.2167 18.5868 12.1516 18.4417C12.0014 18.1064 11.8262 17.7811 11.661 17.4508C11.6359 17.3958 11.6009 17.3457 11.5708 17.2957C11.5558 17.2957 11.5358 17.3007 11.5158 17.3007Z" fill="#506B7B"/>
<path d="M7.16479 17.9212C7.26993 18.3716 7.36506 18.817 7.47521 19.2674C7.50525 19.3825 7.49524 19.4326 7.36506 19.4576C7.1047 19.5026 7.10971 19.5076 7.04462 19.2474C6.90944 18.6669 6.77425 18.0813 6.63406 17.5008C6.60402 17.3757 6.63406 17.3407 6.75923 17.3056C6.97953 17.2406 7.11972 17.3006 7.26492 17.4758C7.58035 17.8611 7.92582 18.2215 8.28131 18.6118C8.30133 18.4817 8.25627 18.3866 8.23625 18.2915C8.16114 17.9462 8.07603 17.6009 7.99592 17.2556C7.97589 17.1755 7.93584 17.0704 8.08604 17.0754C8.19619 17.0754 8.3464 16.9253 8.40147 17.1755C8.53666 17.7961 8.68185 18.4166 8.83206 19.0322C8.8621 19.1523 8.83707 19.1823 8.7169 19.2174C8.49159 19.2824 8.3514 19.2174 8.2062 19.0422C7.88076 18.6569 7.53028 18.2915 7.19483 17.9162C7.18481 17.9112 7.1748 17.9162 7.16479 17.9212Z" fill="#506B7B"/>
<path d="M19.9973 11.6805C19.9723 11.5754 20.0123 11.5154 20.1225 11.4954C20.8334 11.3652 21.5394 11.2351 22.2504 11.105C22.5858 11.0449 22.9213 10.9799 23.2517 10.9248C23.3569 10.9048 23.437 10.9148 23.462 11.055C23.5171 11.3452 23.5922 11.6355 23.6623 11.9257C23.6823 12.0158 23.6673 12.0659 23.5572 12.0909C23.2217 12.171 22.8712 12.181 22.5458 12.3061C22.4006 12.2911 22.2654 12.3411 22.1202 12.3511C22.0601 12.0859 21.995 11.8206 21.945 11.5554C21.9149 11.3853 21.8498 11.3552 21.6796 11.3853C21.1188 11.4903 20.5631 11.6155 19.9973 11.6805Z" fill="#99AFB9"/>
<path d="M9.04242 13.6874C9.01739 13.5523 9.07747 13.5172 9.21265 13.4972C9.9837 13.3621 10.7497 13.207 11.5158 13.0668C12.4921 12.8867 13.4685 12.7115 14.4448 12.5364C15.4462 12.3512 16.4425 12.166 17.4439 11.9808C18.0096 11.8757 18.5804 11.7807 19.1462 11.6706C19.2864 11.6455 19.3465 11.6706 19.3164 11.8207C18.5153 11.9708 17.7142 12.121 16.9081 12.2711C15.7766 12.4813 14.6401 12.6815 13.5085 12.8917C12.0465 13.1619 10.5795 13.4272 9.11752 13.6974C9.09249 13.6924 9.06745 13.6874 9.04242 13.6874Z" fill="#A6A5A3"/>
<path d="M6.27363 15.504C6.20353 15.5291 6.1835 15.484 6.16848 15.434C6.13844 15.3489 6.20353 15.3439 6.25861 15.3339C6.71923 15.2488 7.17486 15.1637 7.63548 15.0786C8.90221 14.8434 10.1689 14.6082 11.4357 14.378C12.8927 14.1128 14.3496 13.8475 15.8066 13.5823C15.9769 13.5523 16.1521 13.5222 16.3223 13.4872C16.3924 13.4722 16.4475 13.4722 16.4675 13.5523C16.4876 13.6473 16.4175 13.6473 16.3574 13.6573C15.2008 13.8675 14.0442 14.0827 12.8876 14.2929C12.0415 14.4481 11.2003 14.6082 10.3542 14.7634C9.08246 14.9986 7.81072 15.2288 6.53398 15.459C6.44386 15.474 6.35874 15.489 6.27363 15.504Z" fill="#C0BCBA"/>
<path d="M6.39376 16.2297C6.35871 16.2397 6.34369 16.2047 6.33869 16.1546C6.32867 16.0796 6.36873 16.0545 6.43382 16.0445C6.67915 15.9995 6.92448 15.9544 7.16982 15.9044C8.92221 15.5791 10.6696 15.2588 12.422 14.9385C13.7738 14.6883 15.1257 14.4431 16.4825 14.1979C16.5476 14.1878 16.6077 14.1678 16.6227 14.2629C16.6377 14.353 16.5776 14.358 16.5126 14.373C15.4912 14.5582 14.4698 14.7483 13.4434 14.9335C12.5421 15.0987 11.6459 15.2688 10.7447 15.434C9.46295 15.6692 8.18621 15.8994 6.90446 16.1346C6.73923 16.1596 6.57901 16.1897 6.39376 16.2297Z" fill="#C0BCBA"/>
<path d="M6.33367 15.8694C6.30363 15.8744 6.26358 15.8444 6.24856 15.7793C6.22853 15.6943 6.28861 15.6893 6.34869 15.6793C7.74059 15.429 9.12748 15.1788 10.5194 14.9236C11.701 14.7084 12.8826 14.4832 14.0642 14.263C14.8253 14.1228 15.5813 13.9827 16.3423 13.8476C16.3974 13.8376 16.4525 13.8376 16.5075 13.8476C16.5376 13.8526 16.5476 13.8926 16.5426 13.9277C16.5326 14.0127 16.4575 14.0127 16.4024 14.0228C15.8416 14.1278 15.2759 14.2229 14.7101 14.328C13.3082 14.5883 11.9063 14.8485 10.5044 15.1037C9.14751 15.354 7.78565 15.6042 6.4288 15.8494C6.40878 15.8594 6.38875 15.8594 6.33367 15.8694Z" fill="#C0BCBA"/>
<path d="M13.7588 18.2966C13.5034 18.2815 13.2631 18.1564 13.1229 17.8762C13.0828 17.7961 13.0678 17.7411 13.188 17.726C13.3432 17.701 13.4834 17.631 13.5985 17.8311C13.6636 17.9462 13.8188 17.9312 13.944 17.8762C14.0441 17.8311 14.1042 17.7511 14.0942 17.636C14.0842 17.5108 14.0291 17.4007 13.8989 17.3657C13.7287 17.3207 13.5585 17.2957 13.3883 17.2456C12.9476 17.1155 12.7724 16.605 13.0428 16.2597C13.183 16.0795 13.3782 15.9995 13.6035 16.0245C13.8539 16.0495 14.0492 16.1746 14.1643 16.4098C14.2044 16.4899 14.1944 16.535 14.0942 16.55C13.949 16.57 13.8038 16.6551 13.6887 16.4649C13.6386 16.3798 13.5184 16.3948 13.4283 16.4349C13.3532 16.4649 13.3131 16.53 13.3182 16.615C13.3232 16.7101 13.3632 16.7852 13.4483 16.8252C13.5685 16.8803 13.7037 16.8903 13.8289 16.9153C14.2144 16.9854 14.4397 17.1906 14.4797 17.5159C14.5398 17.9412 14.2294 18.2966 13.7588 18.2966Z" fill="#506B7B"/>
<path d="M6.52891 16.5749C6.47884 16.5799 6.42877 16.5799 6.41876 16.5098C6.40874 16.4247 6.45881 16.4047 6.52891 16.3947C6.86436 16.3346 7.19982 16.2696 7.54029 16.2095C8.45654 16.0444 9.37779 15.8742 10.294 15.7091C11.5808 15.4739 12.8625 15.2386 14.1493 15.0034C14.9204 14.8633 15.6914 14.7182 16.4625 14.578C16.4875 14.573 16.5125 14.563 16.5376 14.563C16.6127 14.553 16.6978 14.543 16.7078 14.6481C16.7178 14.7432 16.6227 14.7282 16.5726 14.7382C16.2071 14.8083 15.8366 14.8683 15.4711 14.9384C14.1443 15.1836 12.8175 15.4338 11.4857 15.674C9.94356 15.9543 8.40146 16.2346 6.85936 16.5148C6.74921 16.5248 6.63906 16.5498 6.52891 16.5749Z" fill="#C0BCBA"/>
<path d="M10.3892 18.807C10.4042 18.867 10.3792 18.8921 10.3141 18.9021C9.98866 18.9621 9.66321 19.0222 9.33777 19.0822C9.25766 19.0972 9.23263 19.0672 9.2126 18.9921C9.06239 18.3416 8.91219 17.691 8.76198 17.0454C8.74196 16.9603 8.76198 16.9353 8.84209 16.9203C9.16754 16.8652 9.49298 16.7951 9.81843 16.7451C9.98866 16.7201 9.91856 16.8952 9.95862 16.9703C9.99366 17.0304 9.99366 17.1054 9.88852 17.1204C9.71829 17.1455 9.54806 17.1855 9.37282 17.2105C9.25766 17.2255 9.23263 17.2706 9.25766 17.3857C9.33276 17.766 9.32776 17.766 9.70827 17.701C9.77336 17.691 9.84346 17.686 9.90855 17.6609C10.0387 17.6159 10.0838 17.6609 10.1238 17.7961C10.1739 17.9712 10.1339 18.0413 9.9486 18.0513C9.81342 18.0563 9.67823 18.1013 9.54305 18.1214C9.46795 18.1364 9.42789 18.1664 9.45793 18.2465C9.46294 18.2565 9.46795 18.2715 9.46795 18.2815C9.54806 18.6568 9.54806 18.6568 9.92357 18.5818C9.97364 18.5718 10.0237 18.5668 10.0688 18.5567C10.3341 18.5167 10.3792 18.5517 10.3892 18.807Z" fill="#506B7B"/>
<path d="M18.3651 21.8197C18.3601 21.8847 18.3101 21.8897 18.26 21.8997C17.514 22.0348 16.768 22.175 16.0219 22.3101C15.1658 22.4652 14.3096 22.6204 13.4484 22.7755C12.1617 23.0107 10.8799 23.2459 9.59317 23.4812C9.04242 23.5813 8.49167 23.6863 7.94091 23.7864C7.87583 23.8015 7.79071 23.8415 7.77569 23.7364C7.76067 23.6363 7.8608 23.6663 7.91087 23.6563C9.1776 23.4211 10.4443 23.1859 11.7111 22.9507C12.9828 22.7155 14.2545 22.4803 15.5263 22.245C16.4125 22.0799 17.2987 21.9197 18.1899 21.7596C18.255 21.7496 18.3301 21.7246 18.3651 21.8197Z" fill="#C0BCBA"/>
<path d="M8.06609 24.6272C8.00601 24.6422 7.96595 24.6172 7.96095 24.5571C7.95594 24.4821 8.02604 24.4971 8.0711 24.4871C8.87219 24.3369 9.67328 24.1868 10.4744 24.0417C11.4006 23.8715 12.3219 23.7013 13.2482 23.5312C14.5199 23.301 15.7916 23.0658 17.0684 22.8356C17.504 22.7555 17.9396 22.6754 18.3701 22.5953C18.4352 22.5853 18.5254 22.5403 18.5454 22.6354C18.5704 22.7405 18.4653 22.7155 18.4002 22.7255C17.4939 22.8906 16.5877 23.0608 15.6815 23.2259C14.4047 23.4611 13.123 23.6913 11.8462 23.9266C10.8098 24.1167 9.77843 24.3069 8.74702 24.5021C8.52171 24.5421 8.29641 24.5872 8.06609 24.6272Z" fill="#C0BCBA"/>
<path d="M18.265 21.3944C18.2449 21.4745 18.1949 21.4795 18.1448 21.4895C16.2772 21.8298 14.4097 22.1651 12.5422 22.5104C11.2254 22.7506 9.91357 23.0009 8.59677 23.2411C8.34143 23.2911 8.08107 23.3312 7.82572 23.3762C7.77566 23.3862 7.71057 23.4263 7.69054 23.3362C7.67552 23.2511 7.74561 23.2561 7.80069 23.2461C8.31639 23.151 8.82709 23.0509 9.34279 22.9558C10.259 22.7857 11.1803 22.6205 12.0965 22.4554C13.3833 22.2202 14.6701 21.9849 15.9518 21.7497C16.6578 21.6196 17.3587 21.4845 18.0647 21.3544C18.1348 21.3394 18.2199 21.3043 18.265 21.3944Z" fill="#C0BCBA"/>
<path d="M18.6355 23.4062C18.6856 23.4012 18.7306 23.4112 18.7356 23.4662C18.7457 23.5513 18.6756 23.5413 18.6205 23.5513C18.1448 23.6364 17.6642 23.7265 17.1885 23.8115C15.7866 24.0718 14.3847 24.332 12.9828 24.5872C11.4257 24.8725 9.87356 25.1578 8.31643 25.443C8.26136 25.453 8.19627 25.4881 8.17624 25.408C8.15121 25.3079 8.23632 25.3229 8.29641 25.3079C9.52308 25.0827 10.7447 24.8575 11.9714 24.6323C13.0078 24.4421 14.0392 24.2469 15.0757 24.0568C16.2523 23.8416 17.4239 23.6214 18.6005 23.4062C18.6105 23.4062 18.6255 23.4062 18.6355 23.4062Z" fill="#C0BCBA"/>
<path d="M7.97091 24.2119C7.92084 24.2219 7.88579 24.2069 7.88079 24.1519C7.87578 24.0768 7.93586 24.0818 7.98092 24.0718C8.37646 23.9967 8.77701 23.9216 9.17255 23.8516C10.5745 23.5913 11.9764 23.3361 13.3783 23.0759C15.0205 22.7756 16.6578 22.4753 18.3 22.1751C18.3501 22.1651 18.4252 22.135 18.4452 22.2101C18.4652 22.3002 18.3901 22.3002 18.325 22.3152C16.8781 22.5804 15.4361 22.8407 13.9891 23.1059C12.9527 23.2961 11.9213 23.4863 10.8849 23.6764C9.92357 23.8516 8.96226 24.0267 8.00095 24.2019C7.99094 24.2069 7.98092 24.2119 7.97091 24.2119Z" fill="#C0BCBA"/>
<path d="M8.17613 25.0427C8.12106 25.0527 8.076 25.0477 8.07099 24.9877C8.06098 24.9176 8.11105 24.9076 8.16111 24.9026C8.63176 24.8175 9.1024 24.7274 9.57304 24.6424C10.8448 24.4072 12.1165 24.1719 13.3882 23.9367C15.0805 23.6264 16.7779 23.3162 18.4702 23.0059C18.5303 22.9959 18.6204 22.9508 18.6304 23.0609C18.6404 23.156 18.5503 23.131 18.4952 23.141C17.3086 23.3612 16.122 23.5864 14.9354 23.8016C13.3882 24.0869 11.8411 24.3621 10.289 24.6424C9.60308 24.7675 8.91715 24.8976 8.23622 25.0227C8.21619 25.0277 8.19116 25.0377 8.17613 25.0427Z" fill="#C0BCBA"/>
<path d="M11.5508 21.024C11.5158 21.039 11.4657 21.029 11.4507 20.9689C11.4357 20.8939 11.4958 20.8939 11.5458 20.8889C12.1467 20.7788 12.7425 20.6687 13.3433 20.5586C14.7452 20.2983 16.1421 20.0381 17.544 19.7829C18.9559 19.5226 20.3729 19.2724 21.7848 19.0122C21.8449 19.0021 21.915 18.9671 21.93 19.0622C21.94 19.1523 21.8549 19.1323 21.8098 19.1423C21.0288 19.2874 20.2427 19.4375 19.4616 19.5777C18.5955 19.7378 17.7243 19.898 16.8581 20.0531C15.5363 20.2933 14.2145 20.5335 12.8927 20.7788C12.4521 20.8538 12.0115 20.9389 11.5508 21.024Z" fill="#C0BCBA"/>
<path d="M21.95 19.3975C21.965 19.3925 22.005 19.3975 22.015 19.4476C22.0301 19.5126 21.99 19.5326 21.9349 19.5427C21.6295 19.6027 21.3241 19.6678 21.0187 19.7228C20.1675 19.878 19.3164 20.0281 18.4652 20.1832C17.1234 20.4285 15.7866 20.6787 14.4447 20.9239C13.5285 21.0941 12.6072 21.2592 11.691 21.4244C11.6409 21.4344 11.5758 21.4744 11.5608 21.3843C11.5458 21.2993 11.6209 21.3043 11.6709 21.2942C12.3168 21.1741 12.9677 21.049 13.6136 20.9289C14.3896 20.7838 15.1707 20.6487 15.9468 20.5035C17.2235 20.2683 18.5053 20.0331 19.782 19.7979C20.4729 19.6728 21.1639 19.5427 21.8548 19.4175C21.8799 19.4175 21.9049 19.4125 21.95 19.3975Z" fill="#C0BCBA"/>
<path d="M22.0551 19.813C22.0801 19.808 22.1102 19.828 22.1202 19.8831C22.1302 19.9481 22.0801 19.9481 22.0401 19.9581C21.7146 20.0182 21.3942 20.0832 21.0688 20.1433C19.6618 20.4035 18.2549 20.6638 16.848 20.924C15.1657 21.2343 13.4834 21.5396 11.7961 21.8448C11.726 21.8549 11.6659 21.8749 11.6509 21.7898C11.6359 21.6897 11.721 21.7247 11.7661 21.7147C12.9827 21.4895 14.1994 21.2643 15.4211 21.0391C16.3924 20.8589 17.3687 20.6788 18.34 20.4986C19.5517 20.2784 20.7634 20.0582 21.975 19.833C21.99 19.833 22.0101 19.823 22.0551 19.813Z" fill="#C0BCBA"/>
<path d="M11.3255 19.7678C11.2605 19.7678 11.2004 19.8229 11.1803 19.7378C11.1603 19.6277 11.2605 19.6377 11.3155 19.6277C11.8062 19.5326 12.2919 19.4425 12.7825 19.3524C13.6387 19.1973 14.4949 19.0422 15.351 18.887C16.6378 18.6518 17.9195 18.4166 19.2063 18.1814C19.9673 18.0412 20.7234 17.9011 21.4794 17.756C21.5395 17.746 21.6146 17.7009 21.6296 17.796C21.6496 17.8961 21.5595 17.8761 21.5044 17.8861C20.2878 18.1113 19.0711 18.3365 17.8544 18.5567C16.9532 18.7219 16.057 18.892 15.1558 19.0572C13.874 19.3024 12.5873 19.5376 11.3255 19.7678Z" fill="#C0BCBA"/>
<path d="M11.3956 20.1883C11.3055 20.2133 11.2755 20.1883 11.2655 20.1382C11.2554 20.0732 11.3055 20.0732 11.3456 20.0631C11.661 20.0031 11.9814 19.943 12.2969 19.883C13.5736 19.6478 14.8554 19.4126 16.1321 19.1773C17.9496 18.847 19.767 18.5167 21.5845 18.1814C21.6496 18.1714 21.7197 18.1364 21.7397 18.2215C21.7648 18.3266 21.6696 18.3015 21.6146 18.3065C20.3979 18.5318 19.1812 18.757 17.9646 18.9772C16.9933 19.1573 16.0219 19.3375 15.0456 19.5126C13.834 19.7328 12.6223 19.953 11.4107 20.1783C11.3956 20.1833 11.3756 20.1933 11.3956 20.1883Z" fill="#C0BCBA"/>
<path d="M11.4206 20.6187C11.4156 20.6187 11.3805 20.6137 11.3705 20.5687C11.3555 20.5036 11.3955 20.4836 11.4506 20.4736C11.761 20.4135 12.0714 20.3485 12.3869 20.2934C13.243 20.1383 14.0992 19.9831 14.9554 19.828C16.2321 19.5928 17.5139 19.3626 18.7906 19.1274C19.6918 18.9622 20.5881 18.7921 21.4893 18.6269C21.5694 18.6119 21.6495 18.6019 21.7296 18.5819C21.7797 18.5719 21.8197 18.5719 21.8247 18.6319C21.8348 18.687 21.7997 18.707 21.7496 18.717C21.4993 18.762 21.249 18.8171 20.9986 18.8621C20.1274 19.0223 19.2613 19.1824 18.3901 19.3376C17.1183 19.5678 15.8416 19.798 14.5699 20.0282C13.5535 20.2134 12.5371 20.4035 11.5207 20.5887C11.5057 20.5987 11.4806 20.6037 11.4206 20.6187Z" fill="#C0BCBA"/>
<path d="M23.7424 17.5159C23.8125 17.7661 23.8125 17.7611 24.0828 17.711C24.3382 17.661 24.5985 17.621 24.8539 17.5759C24.9039 17.5659 24.954 17.5309 24.974 17.6059C24.9941 17.686 24.934 17.706 24.8789 17.716C24.6336 17.7611 24.3933 17.8061 24.1479 17.8512C24.0878 17.8612 24.0278 17.8812 23.9677 17.8862C23.9076 17.8912 23.8475 17.9062 23.8625 17.9813C23.8775 18.0514 23.8775 18.1464 23.9927 18.1514C24.1179 18.1564 24.238 18.1214 24.3632 18.0964C24.5585 18.0614 24.7537 18.0213 24.944 17.9763C25.0141 17.9613 25.0542 17.9763 25.0742 18.0413C25.0992 18.1264 25.0191 18.1064 24.9791 18.1164C24.7187 18.1665 24.4533 18.2115 24.193 18.2665C24.1129 18.2816 23.9977 18.2615 23.9727 18.3666C23.9426 18.4817 23.9927 18.6019 24.0428 18.7069C24.0728 18.767 24.1279 18.732 24.173 18.722C24.4533 18.6669 24.7337 18.6169 25.0141 18.5668C25.0742 18.5568 25.1693 18.5168 25.1893 18.6119C25.2044 18.7069 25.1142 18.6969 25.0441 18.712C24.7237 18.772 24.3983 18.8371 24.0778 18.8971C24.0678 18.767 23.9677 18.782 23.8826 18.787C23.7774 18.792 23.6773 18.812 23.5721 18.8271C23.5171 18.6819 23.482 18.5318 23.462 18.3817C23.5872 18.3666 23.7073 18.3516 23.8325 18.3316C23.8876 18.3216 23.9276 18.2916 23.9126 18.2315C23.8976 18.1765 23.8425 18.1865 23.8024 18.1965C23.6823 18.2215 23.5621 18.2615 23.4369 18.2615C23.3618 18.0413 23.3118 17.8161 23.2867 17.5909C23.4319 17.5259 23.5872 17.5059 23.7424 17.5159Z" fill="#B5B4B4"/>
<path d="M24.0828 18.9021C24.1229 19.1573 24.1229 19.1623 24.3682 19.1273C24.6186 19.0873 24.8689 19.0372 25.1192 18.9922C25.1793 18.9822 25.2544 18.9521 25.2745 19.0372C25.2945 19.1323 25.2144 19.1223 25.1543 19.1323C24.8789 19.1824 24.6035 19.2324 24.3332 19.2824C24.243 19.2975 24.173 19.3325 24.208 19.4426C24.233 19.5327 24.2631 19.5927 24.3882 19.5627C24.6586 19.4976 24.934 19.4476 25.2094 19.3975C25.2694 19.3875 25.3646 19.3475 25.3846 19.4376C25.4046 19.5327 25.3095 19.5277 25.2444 19.5377C24.974 19.5827 24.7087 19.6478 24.4383 19.6828C24.3232 19.6978 24.2981 19.7429 24.3131 19.8379C24.3282 19.933 24.3582 20.0031 24.4834 19.9781C24.7487 19.923 25.0191 19.873 25.2845 19.8229C25.2945 19.8229 25.3095 19.8129 25.3195 19.8129C25.3796 19.8079 25.4547 19.7779 25.4697 19.873C25.4797 19.9581 25.4096 19.948 25.3546 19.9581C25.0341 20.0181 24.7087 20.0832 24.3882 20.1432C24.3983 20.0131 24.3081 20.0231 24.228 20.0331C24.1129 20.0481 24.0027 20.0782 23.8826 20.0732C23.7624 19.7028 23.6823 19.3225 23.6022 18.9471C23.7574 18.9622 23.9176 18.9021 24.0828 18.9021Z" fill="#B5B4B4"/>
<path d="M23.447 16.2446C23.5171 16.5249 23.5171 16.5199 23.8024 16.4698C24.0528 16.4248 24.3031 16.3848 24.5535 16.3397C24.6035 16.3297 24.6536 16.2947 24.6736 16.3697C24.6937 16.4498 24.6336 16.4698 24.5785 16.4798C24.3332 16.5249 24.0928 16.5699 23.8475 16.615C23.7924 16.625 23.7374 16.645 23.6823 16.65C23.6072 16.655 23.5371 16.66 23.5571 16.7651C23.5771 16.8502 23.6022 16.9403 23.7223 16.9202C23.8825 16.8902 24.0378 16.8652 24.198 16.8352C24.3482 16.8101 24.5034 16.7851 24.6536 16.7551C24.7087 16.7451 24.7587 16.7401 24.7738 16.8001C24.7938 16.8752 24.7337 16.8752 24.6836 16.8852C24.3882 16.9453 24.0878 17.0103 23.7924 17.0604C23.7073 17.0754 23.6472 17.0904 23.6622 17.1905C23.6773 17.2856 23.7223 17.3406 23.8275 17.3256C24.0678 17.2856 24.3031 17.2455 24.5435 17.2005C24.6186 17.1855 24.6886 17.1805 24.7638 17.1655C24.8088 17.1555 24.8539 17.1404 24.8589 17.2055C24.8639 17.2606 24.8288 17.2806 24.7788 17.2906C24.4283 17.3456 24.0878 17.4457 23.7374 17.4757C23.7424 17.3857 23.7023 17.3506 23.6122 17.3707C23.492 17.3957 23.3668 17.4157 23.2467 17.4407C23.1415 17.0704 23.0564 16.695 22.9863 16.3147C23.1415 16.2897 23.2917 16.2646 23.447 16.2446Z" fill="#B5B4B4"/>
<path d="M22.8062 15.454C22.9514 15.4089 23.1016 15.3839 23.2568 15.3789C23.2968 15.5691 23.3369 15.7542 23.3769 15.9444C23.402 16.0795 23.4771 16.1146 23.6022 16.0896C23.8876 16.0345 24.173 15.9845 24.4584 15.9244C24.5235 15.9094 24.5786 15.9094 24.5936 15.9744C24.6186 16.0645 24.5385 16.0545 24.4884 16.0645C24.143 16.1246 23.7975 16.2197 23.447 16.2447C23.452 16.1546 23.412 16.1196 23.3219 16.1396C23.2067 16.1646 23.0915 16.1846 22.9764 16.2097C22.9013 15.9594 22.8412 15.7092 22.8062 15.454Z" fill="#B5B4B4"/>
<path d="M24.3832 20.1382C24.4533 20.3934 24.4584 20.3984 24.7087 20.3584C24.949 20.3183 25.1843 20.2633 25.4197 20.2233C25.4797 20.2133 25.5548 20.1832 25.5749 20.2733C25.5949 20.3684 25.5098 20.3534 25.4497 20.3684C25.2044 20.4134 24.964 20.4835 24.7187 20.5085C24.5435 20.5285 24.4684 20.5636 24.5585 20.7387C24.5685 20.7587 24.5635 20.7888 24.5635 20.8138C24.4183 20.8688 24.2731 20.8939 24.1179 20.8889C23.9977 20.6637 23.9477 20.4184 23.8876 20.1732C24.0578 20.2032 24.218 20.1382 24.3832 20.1382Z" fill="#B5B4B4"/>
<path d="M24.6436 20.8138C24.949 20.7187 25.2695 20.6987 25.5799 20.6286C25.635 20.6186 25.68 20.6486 25.685 20.7087C25.69 20.7737 25.635 20.7637 25.5949 20.7737C25.3295 20.8238 25.0592 20.8788 24.7938 20.9189C24.6837 20.9339 24.6686 20.9789 24.7187 21.064C24.7488 21.1191 24.7738 21.1741 24.8038 21.2292C24.944 21.4994 24.944 21.4994 24.6486 21.5544C24.6086 21.5645 24.5585 21.5544 24.5335 21.6045C24.3632 21.4494 24.2781 21.2442 24.198 21.034C24.3081 21.009 24.4133 20.9689 24.5234 20.9639C24.6286 20.9639 24.6536 20.9089 24.6436 20.8138Z" fill="#B5B4B4"/>
<path d="M22.1152 12.351C22.2554 12.336 22.3956 12.291 22.5408 12.306C22.6059 12.5963 22.666 12.8815 22.7311 13.1718C22.5959 13.2168 22.4557 13.2318 22.3205 13.2469C22.2504 12.9466 22.1853 12.6463 22.1152 12.351Z" fill="#B5B4B4"/>
<path d="M23.2518 17.4408C23.372 17.4207 23.4971 17.4007 23.6173 17.3707C23.7074 17.3507 23.7475 17.3857 23.7425 17.4758C23.7425 17.4858 23.7425 17.5008 23.7375 17.5108C23.5822 17.5058 23.432 17.5258 23.2868 17.5909C23.2468 17.5509 23.2518 17.4958 23.2518 17.4408Z" fill="#A6A5A3"/>
<path d="M24.6436 20.8137C24.6536 20.9088 24.6286 20.9639 24.5135 20.9689C24.4033 20.9739 24.2982 21.0139 24.188 21.0389C24.148 20.9989 24.1229 20.9488 24.1229 20.8888C24.2781 20.8888 24.4233 20.8638 24.5685 20.8137C24.5936 20.8137 24.6186 20.8137 24.6436 20.8137Z" fill="#A6A5A3"/>
<path d="M23.442 18.2665C23.5672 18.2665 23.6874 18.2265 23.8075 18.2015C23.8476 18.1915 23.9026 18.1764 23.9177 18.2365C23.9377 18.2966 23.8926 18.3316 23.8376 18.3366C23.7124 18.3566 23.5922 18.3666 23.4671 18.3866C23.442 18.3466 23.442 18.3066 23.442 18.2665Z" fill="#A6A5A3"/>
<path d="M24.0778 18.9021C23.9126 18.9021 23.7574 18.9622 23.5922 18.9422C23.5872 18.9071 23.5822 18.8671 23.5771 18.8321C23.6823 18.817 23.7824 18.802 23.8876 18.792C23.9727 18.787 24.0678 18.772 24.0778 18.9021Z" fill="#A6A5A3"/>
<path d="M24.3782 20.1382C24.213 20.1382 24.0578 20.2032 23.8926 20.1782C23.8876 20.1432 23.8776 20.1031 23.8726 20.0681C23.9877 20.0781 24.1029 20.0431 24.218 20.0281C24.2981 20.018 24.3883 20.008 24.3782 20.1382Z" fill="#A6A5A3"/>
<path d="M22.9713 16.2046C23.0865 16.1796 23.2016 16.1596 23.3168 16.1346C23.4069 16.1145 23.447 16.1446 23.442 16.2396C23.2918 16.2647 23.1415 16.2897 22.9913 16.3147C22.9863 16.2797 22.9813 16.2447 22.9713 16.2046Z" fill="#A6A5A3"/>
</g>
<defs>
<clipPath id="clip0_4823_25687">
<rect width="33" height="33" fill="white"/>
</clipPath>
</defs>
</svg>
