<svg width="35" height="35" viewBox="0 0 35 35" fill="none" xmlns="http://www.w3.org/2000/svg">
<g clip-path="url(#clip0_4823_25617)">
<path d="M15.1351 1.82181C15.6658 1.26242 16.1195 0.650108 16.5348 0C19.8033 0 23.0718 0 26.3403 0C26.3019 0.0680346 26.2711 0.143629 26.225 0.211663C24.9483 1.88229 23.6563 3.55292 22.3874 5.2311C21.8875 5.89633 21.3337 6.5162 20.9108 7.23434V7.25702C17.6422 7.25702 14.3737 7.24946 11.1052 7.24946C11.1821 7.02268 11.3667 6.86393 11.4974 6.67495C11.582 6.554 11.6743 6.44816 11.6743 6.28942C11.8281 6.28186 11.8743 6.16091 11.9512 6.06263C12.6818 5.10259 13.4355 4.15011 14.1507 3.18251C14.4891 2.72894 14.889 2.32829 15.1351 1.82181Z" fill="#4799CE"/>
<path d="M20.9031 7.22677C21.3261 6.51619 21.8798 5.88876 22.3797 5.22353C23.6486 3.54535 24.933 1.87472 26.2173 0.204095C26.2634 0.14362 26.2942 0.0680256 26.3327 -0.00756836C26.3557 -0.00756836 26.3788 -0.00756836 26.4019 -0.00756836C28.1938 2.33584 29.9857 4.67926 31.7699 7.03023C31.8161 7.0907 31.8545 7.1663 31.893 7.23433C28.2861 7.23433 24.6792 7.23433 21.08 7.23433C21.0184 7.24189 20.9646 7.23433 20.9031 7.22677Z" fill="#6CB9E4"/>
<path d="M4.91431 24.7418C6.65239 24.1295 8.39816 23.5172 10.1362 22.8973C11.1591 22.5344 12.1819 22.1792 13.2048 21.8239C13.4047 21.7558 13.6047 21.7256 13.8124 21.7256C15.2351 21.7331 16.6656 21.7256 18.0883 21.7256C19.0189 21.7256 19.6803 22.164 20.0725 22.9729C20.4647 23.7893 20.2879 24.5604 19.7187 25.2331C19.2496 25.785 18.5882 25.9588 17.8807 25.9588C16.604 25.9588 15.3351 25.9588 14.0585 25.9588C13.9508 25.9588 13.8354 25.9211 13.6893 26.0193C14.0892 26.2461 14.4661 26.4578 14.8429 26.6619C16.0657 27.3347 17.2885 27.9999 18.5113 28.6651C18.8574 28.8541 19.2112 28.8843 19.5803 28.7558C21.7645 27.9848 23.9486 27.2061 26.1404 26.4351C26.4865 26.3141 26.8249 26.1554 27.1863 26.0949C28.4015 25.8757 29.5704 26.5409 29.955 27.6748C30.3472 28.839 29.8396 30.0938 28.7091 30.6003C27.0864 31.326 25.4483 32.0064 23.8102 32.7018C22.1951 33.3897 20.5724 34.0474 18.9728 34.758C18.3267 35.0452 17.7269 34.8638 17.1116 34.7504C14.8506 34.3573 12.5972 33.9491 10.3439 33.5485C8.65195 33.2461 6.9677 32.9362 5.27577 32.6338C5.16041 32.6111 5.04505 32.6036 4.92969 32.5884C4.922 32.4524 4.922 32.3163 4.922 32.1802C4.922 29.7083 4.91431 27.2288 4.91431 24.7418Z" fill="#FCC8A6"/>
<path d="M20.9031 7.22681C20.9569 7.23437 21.0184 7.24193 21.0723 7.24193C24.6792 7.24193 28.2861 7.24193 31.8853 7.24193C32.0006 7.3402 31.9545 7.47627 31.9545 7.59722C31.9545 10.689 31.9545 13.7884 31.9545 16.8802C30.7086 16.8802 29.4627 16.8802 28.2169 16.8802C28.2169 14.9827 28.2169 13.0778 28.2245 11.1804C28.2245 10.9536 28.1707 10.8629 27.9169 10.8629C26.9018 10.878 25.8789 10.878 24.8637 10.8629C24.61 10.8629 24.5561 10.9536 24.5561 11.1804C24.5638 13.0778 24.5638 14.9827 24.5638 16.8802C23.341 16.8802 22.1182 16.8802 20.8877 16.8802C20.8877 13.675 20.8877 10.4622 20.8877 7.25704L20.9031 7.22681Z" fill="#FAEBBE"/>
<path d="M20.9108 7.24949C20.9108 10.4547 20.9108 13.6674 20.9108 16.8726C20.0802 16.8802 19.242 16.8877 18.4114 16.8802C15.9581 16.8802 13.5048 16.8726 11.0515 16.8726C11.0515 13.743 11.0515 10.621 11.0438 7.49139C11.0438 7.40068 11.0207 7.30997 11.1053 7.23438C14.3738 7.24193 17.6423 7.24949 20.9108 7.24949ZM13.5355 10.5152C13.5355 10.8024 13.5432 11.0292 13.5355 11.256C13.5278 11.4147 13.5894 11.4828 13.7586 11.4828C14.22 11.4752 14.6814 11.4752 15.1429 11.4828C15.3198 11.4828 15.3582 11.3996 15.3505 11.2484C15.3428 10.999 15.3505 10.7495 15.3505 10.5C15.3505 9.64582 15.3505 9.63826 14.4892 9.64582C14.1815 9.65338 13.7893 9.50975 13.5894 9.71386C13.4048 9.90284 13.5586 10.2808 13.5355 10.5152ZM18.4114 10.5681C18.4114 10.5303 18.4114 10.5 18.4114 10.4622C18.4114 9.63826 18.4114 9.6307 17.5577 9.63826C17.2501 9.63826 16.8502 9.50219 16.6579 9.7063C16.4657 9.90284 16.6041 10.2884 16.5964 10.5983C16.5887 11.4752 16.5964 11.4752 17.5039 11.4752C18.4114 11.4752 18.4114 11.4752 18.4114 10.5681ZM15.3505 13.5843C15.3505 13.3424 15.3428 13.108 15.3505 12.8661C15.3582 12.7074 15.289 12.6469 15.1275 12.6469C14.666 12.6545 14.2046 12.6545 13.7432 12.6469C13.5971 12.6469 13.5355 12.7074 13.5355 12.851C13.5432 13.1005 13.5355 13.3499 13.5355 13.5994C13.5355 14.4838 13.5355 14.4838 14.4353 14.4838C15.3505 14.4838 15.3505 14.4838 15.3505 13.5843ZM18.4114 13.5691C18.4114 13.5314 18.4114 13.5011 18.4114 13.4633C18.4114 12.6469 18.4114 12.6469 17.5808 12.6545C17.2732 12.6545 16.8733 12.526 16.6733 12.7074C16.4503 12.9115 16.6041 13.3121 16.5964 13.6221C16.581 14.4838 16.5887 14.4838 17.4731 14.4838C18.4114 14.4838 18.4114 14.4838 18.4114 13.5691Z" fill="#FAD599"/>
<path d="M11.0515 16.8726C13.5048 16.8801 15.9581 16.8801 18.4114 16.8801C19.242 16.8801 20.0802 16.8726 20.9108 16.8726C22.1336 16.8726 23.3564 16.8726 24.5869 16.8726C25.8021 16.8726 27.0172 16.8726 28.2323 16.8726C29.4782 16.8726 30.7241 16.8726 31.9699 16.8726C32.5698 16.8801 33.1774 16.8726 33.7772 16.8877C34.4232 16.9028 34.8847 17.3186 34.9923 17.946C35.0769 18.4752 34.7462 19.0194 34.2156 19.2235C34.0003 19.3067 33.7849 19.2916 33.5619 19.2916C28.463 19.2916 23.3641 19.2916 18.2729 19.2916C15.2967 19.2916 12.3204 19.2916 9.34413 19.2916C8.69812 19.2916 8.23668 18.9967 8.06749 18.4903C7.80601 17.6965 8.35973 16.9104 9.22108 16.8877C9.82095 16.8726 10.4362 16.8801 11.0515 16.8726Z" fill="#4899CE"/>
<path d="M4.91434 24.7419C4.91434 27.2213 4.91433 29.7008 4.92203 32.1879C4.92203 32.3239 4.92972 32.46 4.92972 32.5961C4.92203 33.2991 4.91433 34.0097 4.92203 34.7127C4.92203 34.9319 4.8605 35 4.63747 35C3.19164 34.9924 1.7458 34.9924 0.292274 35C0.069246 35 -0.00766018 34.947 3.04397e-05 34.7203C0.00772106 31.4848 0.00772106 28.257 3.04397e-05 25.0216C3.04397e-05 24.8326 0.0231023 24.7343 0.261511 24.7419C1.81502 24.7419 3.36083 24.7419 4.91434 24.7419Z" fill="#287BAA"/>
<path d="M15.1352 1.82187C14.8891 2.32835 14.4892 2.72899 14.1585 3.175C13.4356 4.1426 12.6896 5.09508 11.959 6.05513C11.8821 6.1534 11.8283 6.27435 11.6821 6.28191C11.6821 5.01949 11.6744 3.75707 11.6744 2.49465C11.6744 2.05621 11.8975 1.81431 12.3589 1.80675C13.2818 1.79919 14.2123 1.81431 15.1352 1.82187Z" fill="#277BAA"/>
<path d="M22.7412 21.1133C23.3411 21.1133 23.3411 21.1133 23.3411 21.6954C23.3411 22.3303 23.3411 22.3303 22.6797 22.3303C22.0952 22.3303 22.0952 22.3303 22.0952 21.7558C22.1029 21.1133 22.1029 21.1133 22.7412 21.1133Z" fill="#F3B145"/>
<path d="M30.7086 21.7483C30.7086 22.3303 30.7086 22.3303 30.1011 22.3303C29.4628 22.3303 29.4628 22.3303 29.4628 21.7105C29.4628 21.1133 29.4628 21.1133 30.0857 21.1133C30.7086 21.1133 30.7086 21.1133 30.7086 21.7483Z" fill="#FAB747"/>
<path d="M22.6951 24.742C22.1029 24.742 22.1029 24.742 22.1029 24.1448C22.1029 23.5173 22.1029 23.5173 22.7335 23.5173C23.3411 23.5173 23.3411 23.5173 23.3411 24.1296C23.3411 24.742 23.3411 24.742 22.6951 24.742Z" fill="#FAB747"/>
<path d="M25.7867 21.7332C25.7867 22.3379 25.7867 22.3379 25.1638 22.3379C24.4716 22.3304 24.5562 22.4362 24.5485 21.7483C24.5408 21.1209 24.5485 21.1208 25.1791 21.1208C25.7867 21.1208 25.7867 21.1209 25.7867 21.7332Z" fill="#FAB643"/>
<path d="M27.0249 21.718C27.0249 21.1133 27.0249 21.1133 27.6402 21.1133C28.2554 21.1133 28.2631 21.1133 28.2554 21.718C28.2477 22.4362 28.3477 22.3228 27.6325 22.3303C27.0249 22.3379 27.0249 22.3303 27.0249 21.718Z" fill="#F2B042"/>
<path d="M25.7867 24.1598C25.7867 24.7419 25.7867 24.7419 25.2099 24.7419C24.5485 24.7419 24.5485 24.7419 24.5485 24.0767C24.5485 23.4341 24.4947 23.5324 25.0945 23.5248C25.1099 23.5248 25.1176 23.5248 25.133 23.5248C25.7867 23.5173 25.7867 23.5173 25.7867 24.1598Z" fill="#FAB643"/>
<path d="M27.6248 24.742C27.0249 24.742 27.0249 24.742 27.0249 24.1523C27.0249 23.5173 27.0249 23.5173 27.6555 23.5173C28.2631 23.5173 28.2631 23.5173 28.2631 24.1145C28.2631 24.742 28.2631 24.742 27.6248 24.742Z" fill="#FAB643"/>
<path d="M28.2323 16.8725C27.0171 16.8725 25.802 16.8725 24.5869 16.8725C24.5869 14.9751 24.5869 13.0701 24.5792 11.1727C24.5792 10.9459 24.6331 10.8552 24.8868 10.8552C25.902 10.8703 26.9249 10.8703 27.94 10.8552C28.1938 10.8552 28.2476 10.9459 28.2476 11.1727C28.2323 13.0777 28.2323 14.9751 28.2323 16.8725Z" fill="#F45648"/>
<path d="M13.5355 10.5151C13.5585 10.2807 13.4047 9.90277 13.5893 9.71378C13.7893 9.50968 14.1815 9.64575 14.4891 9.64575C15.3505 9.63063 15.3505 9.63819 15.3505 10.5C15.3505 10.7494 15.3428 10.9989 15.3505 11.2483C15.3505 11.3995 15.312 11.4827 15.1428 11.4827C14.6814 11.4751 14.2199 11.4751 13.7585 11.4827C13.5893 11.4827 13.5355 11.4146 13.5355 11.2559C13.5432 11.0291 13.5355 10.8023 13.5355 10.5151Z" fill="#C0F3F6"/>
<path d="M18.4114 10.5681C18.4114 11.4752 18.4114 11.4752 17.5039 11.4752C16.5964 11.4752 16.5887 11.4752 16.5964 10.5983C16.5964 10.2959 16.4657 9.91041 16.6579 9.70631C16.8502 9.5022 17.2501 9.64583 17.5577 9.63827C18.4114 9.63071 18.4114 9.63827 18.4114 10.4622C18.4114 10.5 18.4114 10.5378 18.4114 10.5681Z" fill="#C0F3F6"/>
<path d="M15.3505 13.5843C15.3505 14.4839 15.3505 14.4839 14.4353 14.4839C13.5355 14.4839 13.5355 14.4839 13.5355 13.5995C13.5355 13.35 13.5355 13.1005 13.5355 12.8511C13.5355 12.7074 13.597 12.647 13.7432 12.647C14.2046 12.647 14.666 12.6545 15.1275 12.647C15.289 12.647 15.3582 12.7074 15.3505 12.8662C15.3428 13.1081 15.3505 13.35 15.3505 13.5843Z" fill="#C0F3F6"/>
<path d="M18.4113 13.5692C18.4113 14.4915 18.4113 14.4915 17.4808 14.4915C16.5963 14.4915 16.5886 14.4915 16.604 13.6297C16.6117 13.3197 16.4579 12.9191 16.6809 12.715C16.8809 12.5336 17.2808 12.6621 17.5884 12.6621C18.419 12.6545 18.419 12.6621 18.419 13.4709C18.4113 13.5012 18.4113 13.5314 18.4113 13.5692Z" fill="#C0F3F6"/>
</g>
<defs>
<clipPath id="clip0_4823_25617">
<rect width="35" height="35" fill="white"/>
</clipPath>
</defs>
</svg>
