<svg width="35" height="35" viewBox="0 0 35 35" fill="none" xmlns="http://www.w3.org/2000/svg">
<g clip-path="url(#clip0_4823_25566)">
<path d="M1.60593e-05 34.2562C0.18502 34.006 0.438544 33.9504 0.740032 33.9504C1.76783 33.9574 2.79563 33.9435 3.82343 33.9365C4.4127 33.9782 5.00883 33.9782 5.5981 33.9365C5.68717 33.9435 5.77625 33.9643 5.86532 33.9643C8.85965 33.9643 11.8471 33.9643 14.8414 33.9643C14.9305 33.9643 15.0196 33.9435 15.1087 33.9365C15.9515 33.9782 16.7943 33.9782 17.6371 33.9365C17.9728 33.9782 18.3154 33.9782 18.6512 33.9365C19.5693 33.9782 20.4806 33.9782 21.3988 33.9365C21.7345 33.9713 22.0772 33.9782 22.4129 33.9296C22.7349 33.9782 23.057 33.9782 23.379 33.9296C23.7627 33.9852 24.1465 33.9574 24.5302 33.9435C24.6741 33.9782 24.8179 33.9782 24.955 33.9435C25.3798 33.9435 25.8115 33.9435 26.2363 33.9435C26.3802 33.9782 26.5241 33.9782 26.668 33.9435C27.0723 33.9574 27.4697 33.9852 27.8739 33.9226C28.2439 33.9852 28.614 33.9713 28.984 33.9296C29.3266 33.9713 29.6623 33.9713 30.0049 33.9296C30.3955 33.9782 30.786 33.9713 31.1766 33.9365C31.6768 33.9643 32.1701 33.9782 32.6703 33.9296C33.0403 33.9713 33.4035 33.9713 33.7735 33.9296C34.0133 33.9365 34.2531 33.9435 34.4861 33.9574C34.7808 33.9713 34.9521 34.1311 34.9932 34.4161C35.0274 34.6871 34.8424 34.9234 34.5478 34.979C34.445 34.9998 34.3422 34.9929 34.2394 34.9929C23.0775 34.9929 11.9225 34.9929 0.760588 34.9999C0.445396 34.9999 0.178168 34.9443 -0.00683594 34.6663C1.60593e-05 34.5342 1.60593e-05 34.3952 1.60593e-05 34.2562Z" fill="#64798F"/>
<path d="M5.59815 33.9366C5.00888 33.9713 4.41276 33.9783 3.82349 33.9366C3.82349 31.0801 3.83034 28.2307 3.83034 25.3742C3.83034 22.2398 3.83034 19.1123 3.83034 15.9779C3.83034 15.825 3.83719 15.679 3.84404 15.5261C8.07858 15.5261 12.3131 15.5331 16.5476 15.5331C17.1506 15.5331 17.7399 15.6165 18.3292 15.7416C20.7411 16.2559 22.8104 17.4096 24.5097 19.2166C25.4621 20.2312 26.2158 21.3849 26.7777 22.6776C27.3327 23.9564 27.6273 25.2908 27.7575 26.6669C27.6684 26.6669 27.5725 26.6669 27.4834 26.6669C27.4766 26.6461 27.4697 26.6391 27.456 26.6322C27.4423 26.521 27.4355 26.4028 27.4218 26.2916C27.3327 25.6314 27.0586 25.0684 26.4899 24.714C26.2569 24.568 26.1747 24.4221 26.2021 24.1649C26.2158 24.0398 26.209 23.9078 26.1199 23.8035C25.9691 23.6228 25.7841 23.5186 25.5512 23.602C25.3113 23.6854 25.1949 23.8661 25.1743 24.1232C25.1606 24.3039 25.2497 24.5055 25.0099 24.6375C24.2561 25.0754 23.9752 25.7912 23.9341 26.6391L23.941 26.6669C23.8176 26.6739 23.6943 26.6808 23.5641 26.6808C22.6117 26.6808 21.6592 26.6808 20.7 26.6808C20.5698 26.6808 20.4259 26.653 20.3985 26.8615C20.2751 27.9596 20.9261 28.3905 21.625 28.3697C22.783 28.3349 23.941 28.3697 25.0989 28.3697C25.0989 30.0515 25.0989 31.7334 25.0989 33.4153C25.0989 33.596 25.0852 33.7559 24.9619 33.8949C24.8249 33.8949 24.681 33.8949 24.5439 33.8949C24.4137 33.7559 24.4069 33.5613 24.3452 33.3945C24.2493 33.1165 24.0369 33.04 23.7765 33.0748C23.5161 33.1095 23.3859 33.2763 23.3791 33.5474C23.3791 33.6725 23.3859 33.7976 23.3859 33.9227C23.0639 33.9713 22.7419 33.9713 22.4198 33.9227C22.4198 32.9427 22.4267 31.9628 22.4198 30.9759C22.413 30.3643 22.0567 30.0168 21.4537 30.0168C20.6451 30.0168 19.8366 30.0029 19.0281 30.0237C18.7129 30.0307 18.6512 29.9264 18.6512 29.6276C18.6649 27.5496 18.6581 25.4715 18.6581 23.3935C18.6581 22.9904 18.4594 22.7471 18.151 22.7471C17.8495 22.7471 17.6371 23.0112 17.6371 23.3935C17.6371 26.9032 17.6371 30.4129 17.6371 33.9227C16.7943 33.9713 15.9515 33.9644 15.1087 33.9227C15.1087 33.5543 15.1019 33.186 15.1019 32.8107C15.1019 32.5466 14.9854 32.4284 14.7319 32.4354C14.5263 32.4354 14.3207 32.4284 14.1152 32.4215C14.122 32.3381 14.1289 32.2616 14.1289 32.1782C14.1289 28.0569 14.1289 23.9286 14.1289 19.8073C14.1289 19.2444 13.8754 18.9942 13.2998 18.9942C11.3607 18.9942 9.42842 18.9942 7.48931 18.9942C6.81781 18.9942 6.61225 19.2027 6.61225 19.8768C6.61225 23.9286 6.61225 27.9874 6.61225 32.0392C6.61225 32.1643 6.62595 32.2894 6.62595 32.4215C6.4341 32.4215 6.24224 32.4284 6.05039 32.4284C5.67353 32.4354 5.5913 32.5118 5.58445 32.8871C5.60501 33.2485 5.60501 33.596 5.59815 33.9366Z" fill="#FDEAC9"/>
<path d="M27.7575 26.6669C27.6273 25.2908 27.3327 23.9494 26.7777 22.6776C26.2158 21.3919 25.4621 20.2312 24.5096 19.2165C22.8104 17.4095 20.7411 16.2558 18.3291 15.7415C17.7399 15.6164 17.1506 15.533 16.5476 15.533C12.3131 15.533 8.07856 15.533 3.84403 15.5261C3.83717 14.9492 3.83717 14.3724 3.83032 13.8025C4.07014 13.4689 4.22774 13.1006 4.28941 12.6905C4.52237 14.15 5.93388 14.8797 7.13984 14.1709C7.62633 13.879 7.8867 13.4203 8.06486 12.899C8.15393 12.9546 8.15393 13.0589 8.18134 13.1423C8.52394 14.1153 9.45581 14.6226 10.4425 14.3655C11.2373 14.157 11.6416 13.5871 11.8403 12.8226C11.854 12.8504 11.8814 12.8782 11.8883 12.9129C12.1486 13.9415 12.9229 14.5045 13.9439 14.428C14.8278 14.3585 15.513 13.6149 15.6089 12.621C15.6226 12.6627 15.65 12.7044 15.65 12.7461C15.8008 14.157 17.3493 14.9006 18.5142 14.1361C19.0623 13.7747 19.3227 13.2604 19.3912 12.621C19.5145 14.1778 21.1111 14.8519 22.2416 14.1709C22.7487 13.8651 23.0228 13.3855 23.1667 12.8295C23.1872 12.8851 23.2146 12.9338 23.2283 12.9894C23.5367 14.1987 24.8248 14.7755 25.9212 14.2195C26.5036 13.9276 26.764 13.4133 26.9353 12.8226C27.0791 13.3855 27.3532 13.8651 27.8603 14.1709C29.0936 14.9075 30.7039 14.0458 30.697 12.5515C30.7381 13.0102 30.9026 13.4272 31.1629 13.8025C31.1629 19.0497 31.1629 24.29 31.1561 29.5372C31.1561 29.6971 31.1492 29.8639 31.1492 30.0237C30.7039 30.0237 30.2653 30.0237 29.8199 30.0237C29.3129 30.0307 28.9703 30.3782 28.9703 30.8925C28.9703 31.9072 28.9703 32.9218 28.9703 33.9365C28.6003 33.9713 28.2303 33.9921 27.8603 33.9296C27.8945 33.6585 27.8877 33.3944 27.7301 33.1581C27.7301 31.5666 27.7369 29.9751 27.7369 28.3835C28.3262 28.3766 28.9223 28.3418 29.5116 28.3766C30.3338 28.4322 30.8889 27.9526 30.8409 27.0352C30.8272 26.7433 30.7381 26.6738 30.464 26.6808C29.5733 26.6877 28.662 26.6738 27.7575 26.6669Z" fill="#F8D8AF"/>
<path d="M5.26233 5.25424C5.26918 4.32989 5.26918 3.40555 5.27603 2.4812C5.43363 2.4812 5.59808 2.48815 5.75567 2.48815C12.5323 2.48815 19.3021 2.48815 26.0787 2.48815C26.2294 2.48815 26.3733 2.4951 26.5241 2.4951C26.5241 3.2874 26.5172 4.08664 26.5309 4.87894C26.5378 5.14304 26.4487 5.20559 26.1952 5.20559C25.7361 5.21254 25.2702 5.13609 24.8111 5.24729C24.77 5.25424 24.7289 5.26118 24.6809 5.26118C24.6535 5.26118 24.6329 5.26118 24.6055 5.26118C24.585 5.26118 24.5576 5.25424 24.537 5.25424C24.1396 5.12219 23.7285 5.19864 23.3242 5.19864C22.8651 5.19864 22.3992 5.12219 21.9401 5.24729C21.8921 5.25424 21.8442 5.25423 21.7962 5.26118C21.7756 5.26118 21.7551 5.26118 21.7345 5.25424C21.3577 5.12914 20.974 5.19864 20.5902 5.20559C20.0626 5.21254 19.5282 5.13609 19.0006 5.24729C18.9732 5.25424 18.9526 5.25423 18.9252 5.26118C18.9047 5.26118 18.8841 5.25424 18.8567 5.25424C18.7608 5.17084 18.6374 5.20559 18.5278 5.19864C17.87 5.19864 17.2054 5.19169 16.5476 5.19864C16.4037 5.19864 16.2529 5.14999 16.1159 5.25424C16.0953 5.26118 16.0748 5.26118 16.0542 5.26118C16.0268 5.25423 15.9994 5.25424 15.972 5.24729C15.8966 5.17779 15.8007 5.19864 15.7116 5.19864C14.9853 5.19864 14.259 5.19864 13.5327 5.19864C13.4299 5.19864 13.3271 5.17084 13.2449 5.25424C13.2243 5.26118 13.2106 5.26118 13.1901 5.26118C13.1627 5.25423 13.1353 5.25424 13.1079 5.24729C13.0188 5.16389 12.916 5.19169 12.8132 5.19169C12.1212 5.19169 11.4223 5.19169 10.7302 5.19169C10.6274 5.19169 10.5247 5.16389 10.4424 5.25424C10.4219 5.26118 10.3945 5.26118 10.3739 5.26118C10.3465 5.26118 10.326 5.26118 10.2985 5.26118C10.278 5.26118 10.2506 5.25424 10.23 5.24729C10.1752 5.22644 10.1272 5.19169 10.0724 5.19169C9.22964 5.19169 8.38684 5.19169 7.54404 5.19169C7.47552 5.19169 7.407 5.19864 7.35904 5.25424C6.67384 5.26118 5.96808 5.25424 5.26233 5.25424Z" fill="#FBE170"/>
<path d="M26.5241 2.49504C26.3733 2.49504 26.2294 2.48809 26.0787 2.48809C19.3021 2.48809 12.5323 2.48809 5.75566 2.48809C5.59807 2.48809 5.43362 2.48114 5.27602 2.48114C5.26917 1.98769 5.25547 1.48729 5.26917 0.993844C5.28287 0.465647 5.74881 0.0208499 6.26956 0C6.37234 0 6.47512 0 6.5779 0C12.8406 0 19.1034 0 25.3661 0C25.5031 0 25.6402 0.00694996 25.7772 0.0138999C26.387 0.277998 26.5857 0.750596 26.5309 1.39694C26.5035 1.75139 26.5241 2.11279 26.5241 2.46724V2.49504Z" fill="#FE5976"/>
<path d="M28.984 33.9365C28.984 32.9218 28.9772 31.9071 28.984 30.8924C28.984 30.3781 29.3266 30.0306 29.8336 30.0237C30.279 30.0167 30.7176 30.0237 31.1629 30.0237C31.5466 30.0237 31.9372 30.0098 32.3209 30.0376C32.6087 30.0584 32.6841 29.9472 32.6841 29.6692C32.6704 27.6259 32.6772 25.5826 32.6772 23.5393C32.6772 23.3656 32.6635 23.1849 32.78 23.0459C32.917 22.8721 33.0746 22.6984 33.3282 22.7818C33.5748 22.8652 33.7119 23.025 33.7119 23.3239C33.705 25.4158 33.6639 27.5008 33.7187 29.5928C33.753 31.0453 33.753 32.4978 33.7804 33.9434C33.4104 33.9851 33.0472 33.9851 32.6772 33.9434C32.6772 33.0886 32.6704 32.2337 32.6841 31.3789C32.6909 31.1287 32.595 31.0592 32.3689 31.0731C31.9715 31.087 31.5741 31.0801 31.1766 31.0801C30.8889 31.0801 30.6079 31.087 30.3201 31.0731C30.0803 31.0592 30.0049 31.1426 30.0049 31.3858C30.0187 32.2407 30.0049 33.0955 30.0049 33.9504C29.6623 33.9782 29.3266 33.9712 28.984 33.9365Z" fill="#E3ECF7"/>
<path d="M5.26239 5.25419C5.96815 5.26114 6.68076 5.26114 7.38651 5.26809C7.38651 5.28894 7.38651 5.30979 7.39336 5.32369C6.98224 5.45574 6.66705 5.71983 6.46834 6.09513C5.73518 7.47817 5.02257 8.87512 4.30311 10.2651L4.30996 10.2582C3.05605 10.2582 1.80213 10.2582 0.548218 10.2582C1.02101 9.52841 1.50065 8.79867 1.97343 8.07587C2.30233 7.57547 2.65863 7.09593 2.96012 6.58163C3.48772 5.69898 4.22774 5.21249 5.26239 5.25419Z" fill="#FE5876"/>
<path d="M29.7445 5.25404C30.7517 5.21234 31.4643 5.67799 31.9988 6.52589C32.732 7.68653 33.5199 8.81937 34.2805 9.96612C34.3422 10.0634 34.3902 10.1607 34.445 10.265C33.1911 10.265 31.9371 10.265 30.6901 10.265L30.6969 10.2719C29.998 8.84717 29.2649 7.43633 28.5043 6.04634C28.3124 5.69884 28.0041 5.44864 27.6135 5.33049C27.7232 5.24014 27.8533 5.27489 27.9767 5.27489C28.566 5.26099 29.1552 5.26099 29.7445 5.25404Z" fill="#FE5876"/>
<path d="M30.6901 10.2581C31.944 10.2581 33.1979 10.2581 34.445 10.2581C34.4655 10.2998 34.5066 10.3345 34.5066 10.3762C34.4861 11.2241 34.6026 12.0789 34.4381 12.9199C34.3079 13.5801 33.9174 14.0527 33.2801 14.296C32.5812 14.5601 31.9508 14.435 31.3684 13.9763C31.2999 13.9207 31.2314 13.8581 31.1629 13.8025C30.9025 13.4272 30.738 13.0102 30.6969 12.5515C30.7038 11.787 30.6969 11.0226 30.6901 10.2581Z" fill="#E3EDF8"/>
<path d="M0.548218 10.2581C1.80213 10.2581 3.05605 10.2581 4.30996 10.2581C4.30311 11.0643 4.29626 11.8774 4.28941 12.6836C4.22774 13.0936 4.06329 13.462 3.83032 13.7956C3.4055 14.2195 2.91216 14.435 2.30918 14.4211C1.36361 14.4072 0.548218 13.5871 0.548218 12.6419C0.548218 11.8496 0.548218 11.0504 0.548218 10.2581Z" fill="#E3EDF8"/>
<path d="M29.7445 5.25422C29.1552 5.26117 28.5591 5.26117 27.9698 5.26812C27.8465 5.26812 27.7163 5.23337 27.6067 5.32372C27.408 5.26812 27.2093 5.26812 27.0037 5.26812C26.2705 5.26812 25.5374 5.26117 24.8042 5.25422C25.2633 5.13607 25.7292 5.21947 26.1883 5.21252C26.435 5.21252 26.5241 5.14997 26.5241 4.88587C26.5103 4.09358 26.5172 3.29433 26.5172 2.50203V2.46729C27.5656 2.52983 28.6139 2.48813 29.6623 2.48813C29.6828 2.49508 29.6965 2.49509 29.7171 2.49509C29.7308 3.41248 29.7376 4.33682 29.7445 5.25422Z" fill="#FDBD7E"/>
<path d="M29.6692 2.48108C28.6208 2.48803 27.5724 2.52278 26.5241 2.46024C26.5241 2.10579 26.5035 1.74439 26.5309 1.38994C26.5858 0.743595 26.387 0.270998 25.7772 0.00689904C26.7776 -5.09194e-05 27.7712 -0.00700088 28.7715 -5.09196e-05C29.2717 -5.09196e-05 29.724 0.458646 29.7308 0.972943C29.7445 1.45249 29.724 1.93899 29.724 2.42549C29.7034 2.44634 29.6897 2.46719 29.6692 2.48108Z" fill="#EC4A79"/>
<path d="M29.6692 2.48114C29.6897 2.46029 29.7034 2.44639 29.724 2.42554C29.7309 2.44639 29.7309 2.46724 29.724 2.48809C29.7103 2.49504 29.6897 2.48809 29.6692 2.48114Z" fill="#FE5976"/>
<path d="M17.6439 33.9297C17.6439 30.42 17.6439 26.9102 17.6439 23.4005C17.6439 23.0183 17.8563 22.7542 18.1578 22.7542C18.4662 22.7542 18.6649 22.9974 18.6649 23.4005C18.6649 25.4785 18.6717 27.5566 18.658 29.6346C18.658 29.9335 18.7197 30.0377 19.0349 30.0308C19.8434 30.0099 20.6519 30.0238 21.4605 30.0238C22.0635 30.0238 22.4198 30.3783 22.4266 30.9829C22.4335 31.9628 22.4266 32.9428 22.4266 33.9297C22.0909 33.9783 21.7483 33.9714 21.4125 33.9366C21.4125 33.0818 21.3988 32.2269 21.4125 31.3721C21.4125 31.1289 21.3371 31.0524 21.0973 31.0594C20.3916 31.0733 19.6858 31.0733 18.9801 31.0594C18.7471 31.0524 18.6649 31.1289 18.6649 31.3721C18.6786 32.2269 18.6649 33.0818 18.6649 33.9366C18.3154 33.9714 17.9797 33.9714 17.6439 33.9297Z" fill="#FEFEFE"/>
<path d="M14.122 32.4353C14.3276 32.4423 14.5331 32.4492 14.7387 32.4492C14.9991 32.4423 15.1156 32.5674 15.1087 32.8245C15.1018 33.1928 15.1087 33.5612 15.1156 33.9365C15.0265 33.9434 14.9374 33.9643 14.8483 33.9643C11.854 33.9643 8.86653 33.9643 5.87221 33.9643C5.78313 33.9643 5.69406 33.9504 5.60498 33.9365C5.60498 33.5959 5.60498 33.2484 5.61183 32.9079C5.61868 32.5326 5.70091 32.4562 6.07777 32.4492C6.26962 32.4492 6.46148 32.4423 6.65334 32.4423C6.83149 32.4423 7.00279 32.4353 7.18094 32.4353C7.74966 32.4423 8.31837 32.4562 8.88024 32.4492C10.4356 32.4492 11.991 32.4353 13.5464 32.4353C13.7314 32.4353 13.9302 32.4353 14.122 32.4353Z" fill="#D1DBEC"/>
<path d="M18.658 33.9297C18.658 33.0749 18.6717 32.22 18.658 31.3652C18.658 31.1219 18.7333 31.0455 18.9732 31.0524C19.6789 31.0663 20.3847 31.0663 21.0904 31.0524C21.3302 31.0455 21.4056 31.1219 21.4056 31.3652C21.3919 32.22 21.4056 33.0749 21.4056 33.9297C20.4874 33.9714 19.5693 33.9784 18.658 33.9297Z" fill="#FDEAC9"/>
<path d="M24.955 33.9019C25.0783 33.7629 25.092 33.5961 25.092 33.4224C25.092 31.7405 25.092 30.0586 25.092 28.3767C25.4346 28.3767 25.7772 28.3767 26.1198 28.3767C26.1198 29.864 26.1266 31.3582 26.1129 32.8455C26.1129 33.2069 26.1472 33.5544 26.25 33.9019C26.2431 33.9158 26.2431 33.9297 26.2431 33.9436C25.8183 33.9436 25.3866 33.9436 24.9618 33.9436C24.9618 33.9297 24.9618 33.9158 24.955 33.9019Z" fill="#FEFEFE"/>
<path d="M31.1697 31.0661C31.1697 32.0252 31.1766 32.9774 31.1766 33.9365C30.786 33.9782 30.3954 33.9782 30.0049 33.9295C30.0049 33.0747 30.0186 32.2198 30.0049 31.365C30.0049 31.1217 30.0803 31.0383 30.3201 31.0522C30.601 31.0731 30.8819 31.0661 31.1697 31.0661Z" fill="#F8D8AF"/>
<path d="M27.7506 33.1513C27.9082 33.3876 27.915 33.6517 27.8808 33.9227C27.4833 33.9853 27.0791 33.9505 26.6748 33.9436L26.6817 33.9158C26.7776 33.8463 26.8393 33.742 26.8598 33.6308C26.9489 33.0401 27.3326 32.9845 27.7506 33.1513Z" fill="#FEFEFE"/>
<path d="M23.3859 33.9297C23.3859 33.8046 23.379 33.6795 23.379 33.5544C23.3859 33.2903 23.5161 33.1165 23.7764 33.0818C24.03 33.054 24.2492 33.1304 24.3452 33.4015C24.4068 33.5683 24.4137 33.7629 24.5439 33.9019C24.537 33.9158 24.537 33.9297 24.5439 33.9436C24.1533 33.9575 23.7696 33.9853 23.3859 33.9297Z" fill="#FEFEFE"/>
<path d="M24.5302 33.9436C24.5302 33.9297 24.5302 33.9158 24.5302 33.9019C24.6672 33.9019 24.8111 33.9019 24.9481 33.9019C24.955 33.9158 24.955 33.9297 24.955 33.9436C24.8179 33.9783 24.674 33.9783 24.5302 33.9436Z" fill="#D1DBEC"/>
<path d="M26.6749 33.9158L26.668 33.9436C26.5241 33.9783 26.3802 33.9853 26.2363 33.9436C26.2363 33.9297 26.2363 33.9158 26.2432 33.9019C26.3939 33.9019 26.531 33.9088 26.6749 33.9158Z" fill="#D1DBEC"/>
<path d="M7.174 32.4284C6.99585 32.4284 6.82455 32.4354 6.64639 32.4354C6.63954 32.3103 6.63269 32.1852 6.63269 32.0531C6.63269 28.0013 6.63269 23.9425 6.63269 19.8907C6.63269 19.2096 6.83825 19.0081 7.50975 19.0081C9.44886 19.0081 11.3811 19.0081 13.3202 19.0081C13.8958 19.0081 14.1493 19.2513 14.1493 19.8212C14.1493 23.9425 14.1493 28.0708 14.1493 32.1921C14.1493 32.2755 14.1425 32.352 14.1356 32.4354C13.9438 32.4354 13.7451 32.4354 13.5532 32.4284C13.5532 28.3836 13.5532 24.3456 13.5464 20.3007C13.5464 19.7795 13.4573 19.6892 12.9571 19.6892C11.2509 19.6892 9.53794 19.6892 7.83179 19.6892C7.23567 19.6892 7.1877 19.7448 7.1877 20.3355C7.174 24.3665 7.174 28.3975 7.174 32.4284Z" fill="#DD3C71"/>
<path d="M26.1199 28.3766C25.7773 28.3766 25.4347 28.3766 25.0921 28.3766C23.9341 28.3696 22.7761 28.3418 21.6181 28.3766C20.9192 28.3974 20.2683 27.9665 20.3916 26.8684C20.4121 26.6599 20.556 26.6877 20.6931 26.6877C21.6455 26.6877 22.5979 26.6877 23.5572 26.6877C23.6805 26.6877 23.8039 26.6808 23.9341 26.6738C25.1195 26.6738 26.3049 26.6738 27.4903 26.6738C27.5793 26.6738 27.6753 26.6738 27.7643 26.6738C28.6757 26.6808 29.5801 26.6947 30.4914 26.6877C30.7655 26.6877 30.8477 26.7503 30.8683 27.0422C30.9231 27.9526 30.3681 28.4322 29.539 28.3835C28.9497 28.3418 28.3605 28.3835 27.7643 28.3905C27.2093 28.3766 26.6612 28.3766 26.1199 28.3766Z" fill="#10C5FE"/>
<path d="M23.9203 26.6461C23.9614 25.8052 24.2423 25.0824 24.9961 24.6445C25.229 24.5055 25.1399 24.3109 25.1605 24.1302C25.1811 23.8731 25.2975 23.6924 25.5374 23.609C25.7772 23.5256 25.9553 23.6298 26.1061 23.8105C26.1952 23.9148 26.202 24.0468 26.1883 24.1719C26.1609 24.4291 26.2431 24.575 26.4761 24.721C27.0448 25.0754 27.3189 25.6384 27.408 26.2986C27.4217 26.4098 27.4285 26.528 27.4422 26.6392C26.2705 26.6392 25.0988 26.6392 23.9203 26.6461Z" fill="#91A0B4"/>
<path d="M23.9203 26.6461C25.0988 26.6461 26.2774 26.6392 27.4491 26.6392C27.4628 26.6461 27.4765 26.66 27.4765 26.6739C26.2911 26.6739 25.1057 26.6739 23.9203 26.6739C23.9271 26.667 23.9203 26.6461 23.9203 26.6461Z" fill="#D1DBEC"/>
<path d="M18.9321 5.26097C18.9595 5.25402 18.98 5.25402 19.0074 5.24707C19.9188 5.24707 20.8301 5.25402 21.7414 5.25402C21.7619 5.26097 21.7825 5.26097 21.8031 5.26097C22.0771 5.52507 22.2005 5.86562 22.2827 6.23396C22.5842 7.57531 22.8788 8.91665 23.1735 10.2649L23.1803 10.258C22.0429 10.258 20.9055 10.2719 19.768 10.251C19.4528 10.2441 19.3912 10.3414 19.398 10.6402C19.4186 11.2935 19.398 11.9538 19.3912 12.614C19.3226 13.2534 19.0623 13.7677 18.5141 14.1291C17.3424 14.9006 15.7939 14.15 15.65 12.7391C15.6431 12.6974 15.6226 12.6557 15.6089 12.614C15.602 11.9677 15.5814 11.3213 15.602 10.675C15.6157 10.3553 15.5403 10.2441 15.1977 10.251C14.074 10.2719 12.9503 10.258 11.8197 10.258L11.8266 10.2649C12.1212 8.94445 12.4158 7.62396 12.7105 6.30346C12.7995 5.92122 12.916 5.55287 13.2038 5.26792C13.2244 5.26792 13.2381 5.26792 13.2586 5.26097C14.1699 5.25402 15.0813 5.25402 15.9926 5.24707C16.02 5.25402 16.0474 5.25402 16.0748 5.26097C16.0474 5.37217 16.0131 5.48337 15.9994 5.59457C15.8281 7.06101 15.7665 8.5344 15.6431 10.0008C15.6226 10.2371 15.7253 10.2649 15.9172 10.258C16.9724 10.251 18.0345 10.251 19.0897 10.258C19.3158 10.258 19.3775 10.1885 19.3638 9.95914C19.2952 9.146 19.2678 8.3259 19.1925 7.51276C19.1171 6.76911 19.1376 6.00462 18.9321 5.26097Z" fill="#E3ECF7"/>
<path d="M30.6901 10.2582C30.697 11.0227 30.7038 11.7802 30.7107 12.5447C30.7107 14.0389 29.1005 14.9007 27.874 14.164C27.3669 13.8583 27.0928 13.3787 26.9489 12.8158C26.9489 12.6003 26.9489 12.3849 26.9421 12.1625C26.9284 11.5231 26.9901 10.8906 26.9078 10.2512C28.1686 10.2651 29.4294 10.2651 30.6901 10.2582Z" fill="#FE5876"/>
<path d="M11.8265 10.258C12.9503 10.258 14.074 10.2788 15.2046 10.251C15.5472 10.2441 15.6157 10.3553 15.6088 10.675C15.5883 11.3213 15.6088 11.9677 15.6157 12.614C15.5198 13.6079 14.8346 14.3515 13.9507 14.421C12.9229 14.4975 12.1554 13.9276 11.8951 12.9059C11.8882 12.8712 11.8676 12.8434 11.8471 12.8156C11.8334 11.9607 11.8265 11.1128 11.8265 10.258Z" fill="#FE5876"/>
<path d="M19.3911 12.614C19.398 11.9538 19.4117 11.3005 19.398 10.6403C19.3911 10.3484 19.4528 10.2441 19.768 10.2511C20.9054 10.2719 22.0428 10.258 23.1803 10.258C23.1803 11.1129 23.1734 11.9677 23.1734 12.8225C23.0227 13.3855 22.7554 13.8581 22.2484 14.1639C21.1178 14.8519 19.5144 14.1708 19.3911 12.614Z" fill="#FE5876"/>
<path d="M4.28931 12.6836C4.29616 11.8774 4.30301 11.0643 4.30986 10.2581L4.30301 10.265C5.56378 10.265 6.82455 10.2581 8.08531 10.2581C8.07846 11.1338 8.07161 12.0164 8.06476 12.8921C7.88661 13.4133 7.63308 13.879 7.13974 14.1639C5.93379 14.8798 4.52227 14.1431 4.28931 12.6836Z" fill="#FE5876"/>
<path d="M8.05798 12.8921C8.06484 12.0164 8.07169 11.1338 8.07854 10.2581C8.09224 10.265 8.10595 10.265 8.11965 10.265C9.35301 10.265 10.5864 10.265 11.8266 10.265L11.8197 10.2581C11.8266 11.1129 11.8266 11.9608 11.8334 12.8087C11.6347 13.5732 11.2305 14.15 10.4356 14.3516C9.44894 14.6087 8.51707 14.1014 8.17447 13.1284C8.14706 13.0519 8.15391 12.9477 8.05798 12.8921Z" fill="#E3EDF8"/>
<path d="M23.1735 12.8226C23.1735 11.9677 23.1803 11.1129 23.1803 10.2581L23.1735 10.265C24.4137 10.265 25.647 10.265 26.8872 10.265L26.9009 10.2581C26.9832 10.8905 26.9215 11.5299 26.9352 12.1693C26.9421 12.3847 26.9421 12.6002 26.9421 12.8226C26.7639 13.4064 26.5104 13.9207 25.928 14.2195C24.8316 14.7755 23.5435 14.1987 23.2351 12.9894C23.2214 12.9268 23.194 12.8782 23.1735 12.8226Z" fill="#E3EDF8"/>
<path d="M26.1199 28.3767C26.668 28.3767 27.2094 28.3767 27.7575 28.3767C27.7575 29.9682 27.7507 31.5598 27.7507 33.1513C27.3327 32.9845 26.949 33.0401 26.8599 33.6239C26.8393 33.7351 26.7777 33.8394 26.6818 33.9089C26.5379 33.9019 26.394 33.9019 26.2501 33.895C26.1473 33.5544 26.113 33.2 26.113 32.8386C26.1199 31.3582 26.1199 29.871 26.1199 28.3767Z" fill="#FDEAC9"/>
<path d="M8.12651 10.265C8.11281 10.265 8.09911 10.258 8.0854 10.258C6.82464 10.258 5.56387 10.265 4.3031 10.265C5.02256 8.87497 5.73517 7.47802 6.46833 6.09498C6.66704 5.71968 6.98223 5.46254 7.39335 5.32354C7.59206 5.26794 7.79762 5.26794 8.00318 5.26794C8.7569 5.26794 9.50377 5.26099 10.2575 5.26099C10.278 5.26794 10.2986 5.27489 10.326 5.27489C10.326 5.29574 10.326 5.30964 10.3329 5.32354C9.87377 5.52508 9.68877 5.94903 9.52432 6.38688C9.25709 7.08188 9.00357 7.78382 8.75005 8.48577C8.53078 9.07651 8.2567 9.64641 8.12651 10.265Z" fill="#E3ECF7"/>
<path d="M26.901 10.2581L26.8872 10.2651C26.8804 10.2095 26.8873 10.1469 26.8667 10.0983C26.3665 8.74998 25.8732 7.40169 25.3593 6.0534C25.2359 5.72675 25.0304 5.44875 24.6809 5.3167C24.6878 5.3028 24.6878 5.28195 24.6878 5.26805C24.7289 5.2611 24.77 5.25415 24.8179 5.25415C25.5511 5.2611 26.2843 5.26805 27.0174 5.26805C27.223 5.26805 27.4217 5.26805 27.6204 5.32365C28.011 5.44875 28.3193 5.692 28.5112 6.0395C29.2786 7.42949 30.0049 8.84033 30.7038 10.2651C29.4293 10.2651 28.1686 10.2651 26.901 10.2581Z" fill="#E3ECF7"/>
<path d="M18.9321 5.26099C19.1376 5.99768 19.1102 6.76913 19.1856 7.51972C19.261 8.33287 19.2952 9.15296 19.3569 9.96611C19.3774 10.1955 19.3158 10.265 19.0828 10.265C18.0276 10.258 16.9655 10.258 15.9103 10.265C15.7185 10.265 15.6157 10.2441 15.6363 10.0078C15.7527 8.54137 15.8213 7.06798 15.9926 5.60153C16.0063 5.49034 16.0405 5.37914 16.0679 5.26794C16.0885 5.26794 16.109 5.26794 16.1296 5.26099C17.0409 5.26099 17.9522 5.26099 18.8635 5.26099C18.891 5.26099 18.9115 5.26099 18.9321 5.26099Z" fill="#FE5876"/>
<path d="M24.6809 5.31657C25.0235 5.44862 25.236 5.72662 25.3593 6.05327C25.8732 7.39461 26.3665 8.74985 26.8667 10.0981C26.8873 10.1468 26.8804 10.2093 26.8873 10.2649C25.6471 10.2649 24.4137 10.2649 23.1735 10.2649C22.8789 8.9236 22.5774 7.58226 22.2827 6.23396C22.2005 5.87257 22.084 5.52507 21.8031 5.26097C21.8511 5.25402 21.899 5.25402 21.947 5.24707C22.8103 5.24707 23.6805 5.25402 24.5439 5.25402C24.5645 5.25402 24.5919 5.26097 24.6124 5.26097C24.633 5.28877 24.6604 5.30267 24.6809 5.31657Z" fill="#FE5876"/>
<path d="M8.12646 10.2651C8.2635 9.64652 8.53758 9.07663 8.74314 8.47893C8.98982 7.77699 9.25019 7.07504 9.51742 6.38004C9.68187 5.94915 9.86687 5.5252 10.326 5.3167C10.3465 5.3028 10.3739 5.28195 10.3945 5.26805C10.415 5.26805 10.4424 5.2611 10.463 5.2611C11.3538 5.2611 12.2445 5.2611 13.1284 5.25415C13.1558 5.2611 13.1832 5.2611 13.2106 5.26805C12.9229 5.553 12.8064 5.92135 12.7173 6.30359C12.4227 7.62409 12.128 8.94458 11.8334 10.2651C10.5932 10.2651 9.35982 10.2651 8.12646 10.2651Z" fill="#FE5876"/>
<path d="M10.2506 5.26117C9.49691 5.26117 8.75004 5.26812 7.99632 5.26812C7.79076 5.26812 7.5852 5.26812 7.38649 5.32372C7.37964 5.30287 7.37964 5.28202 7.37964 5.26812C7.4276 5.20557 7.49612 5.20557 7.56464 5.20557C8.40744 5.20557 9.25023 5.20557 10.093 5.20557C10.1478 5.20557 10.2027 5.24032 10.2506 5.26117Z" fill="#FDBD7E"/>
<path d="M15.9926 5.24728C15.0813 5.25423 14.17 5.25423 13.2587 5.26118C13.3409 5.17778 13.4505 5.20558 13.5465 5.20558C14.2728 5.20558 14.9991 5.20558 15.7254 5.20558C15.8213 5.19863 15.9172 5.18473 15.9926 5.24728Z" fill="#FDBD7E"/>
<path d="M21.7414 5.26115C20.8301 5.26115 19.9188 5.2542 19.0074 5.2542C19.5351 5.143 20.0695 5.21945 20.5971 5.2125C20.9808 5.20555 21.3645 5.13605 21.7414 5.26115Z" fill="#FDBD7E"/>
<path d="M18.8704 5.25419C17.9591 5.25419 17.0478 5.25419 16.1365 5.25419C16.2667 5.14994 16.4243 5.19859 16.5682 5.19859C17.2259 5.19164 17.8906 5.19164 18.5484 5.19859C18.6512 5.19859 18.7676 5.17079 18.8704 5.25419Z" fill="#FDBD7E"/>
<path d="M13.1284 5.25421C12.2377 5.25421 11.3469 5.25421 10.463 5.26116C10.5452 5.17776 10.6549 5.19861 10.7508 5.19861C11.4428 5.19861 12.1418 5.19861 12.8338 5.19861C12.9297 5.20556 13.0394 5.17776 13.1284 5.25421Z" fill="#FDBD7E"/>
<path d="M24.5439 5.26096C23.6806 5.26096 22.8104 5.25401 21.947 5.25401C22.4061 5.13586 22.872 5.20536 23.3311 5.20536C23.7354 5.20536 24.1465 5.12891 24.5439 5.26096Z" fill="#FDBD7E"/>
<path d="M24.6809 5.31672C24.6604 5.30282 24.633 5.28197 24.6124 5.26807C24.6398 5.26807 24.6604 5.26807 24.6878 5.26807C24.6878 5.28892 24.6878 5.30282 24.6809 5.31672Z" fill="#FDBD7E"/>
<path d="M10.3876 5.26807C10.3671 5.28197 10.3397 5.30282 10.3191 5.31672C10.3123 5.30282 10.3123 5.28197 10.3123 5.26807C10.3397 5.26807 10.3671 5.26807 10.3876 5.26807Z" fill="#FDBD7E"/>
<path d="M7.17407 32.4285C7.17407 28.3975 7.17407 24.3665 7.18092 20.3356C7.18092 19.7448 7.23574 19.6892 7.82501 19.6892C9.53116 19.6892 11.2442 19.6892 12.9503 19.6892C13.4505 19.6892 13.5396 19.7796 13.5396 20.3008C13.5396 24.3457 13.5396 28.3836 13.5464 32.4285C11.991 32.4354 10.4356 32.4424 8.88022 32.4424C8.3115 32.4493 7.74279 32.4354 7.17407 32.4285ZM12.2034 25.3812C11.9225 25.3812 11.6895 25.6314 11.7032 25.9094C11.7101 26.1596 11.9773 26.4098 12.224 26.3959C12.5049 26.382 12.7173 26.1457 12.7105 25.8469C12.7036 25.548 12.5118 25.3812 12.2034 25.3812Z" fill="#FE5876"/>
<path d="M12.2034 25.3811C12.5186 25.3811 12.7036 25.5479 12.7105 25.8467C12.7173 26.1456 12.5049 26.3888 12.224 26.3958C11.9704 26.4027 11.7101 26.1595 11.7032 25.9093C11.6895 25.6313 11.9225 25.3881 12.2034 25.3811Z" fill="#FDBD7E"/>
</g>
<defs>
<clipPath id="clip0_4823_25566">
<rect width="35" height="35" fill="white"/>
</clipPath>
</defs>
</svg>
