<svg width="35" height="34" viewBox="0 0 35 34" fill="none" xmlns="http://www.w3.org/2000/svg">
<g clip-path="url(#clip0_4823_25534)">
<path d="M35.0001 33.6455C34.808 33.9254 34.5428 34 34.2135 34C23.0743 33.9907 11.9258 33.9907 0.786569 33.9907C0.695114 33.9907 0.603658 34 0.512203 33.9907C0.2104 33.9534 5.25545e-05 33.7294 0.0091981 33.4309C0.0091981 33.1416 0.219546 32.899 0.521349 32.8804C0.896316 32.8617 1.27128 32.871 1.64625 32.8617C2.01207 32.8617 2.37789 32.8617 2.74372 32.8617C3.98751 32.8617 5.24045 32.8617 6.55741 32.8617C5.73431 32.5631 5.43251 31.994 5.47823 31.2009C5.63371 30.6504 5.99038 30.2958 6.50253 30.0906C6.73117 30.0906 6.95067 30.0906 7.17931 30.0906C7.69146 30.2958 8.04813 30.6504 8.20361 31.2009C8.24933 31.994 7.94753 32.5631 7.11529 32.8617C9.32851 32.8617 11.4503 32.8617 13.6544 32.8617C12.8313 32.5631 12.5203 31.994 12.5752 31.2009C12.7306 30.6504 13.0873 30.2958 13.5995 30.0906C13.8281 30.0906 14.0476 30.0906 14.2762 30.0906C14.7884 30.2958 15.1451 30.6504 15.3005 31.2009C15.3554 31.9753 15.0536 32.5445 14.3403 32.871C14.4134 32.871 14.4957 32.871 14.5689 32.871C20.7513 32.871 26.9337 32.871 33.1161 32.871C33.1984 32.871 33.2715 32.8617 33.3539 32.8617C33.6374 32.8617 33.9209 32.8897 34.2044 32.871C34.5428 32.843 34.7989 32.9457 34.9909 33.2256C35.0001 33.3655 35.0001 33.5055 35.0001 33.6455Z" fill="#6D555C"/>
<path d="M33.3447 12.2322C33.3447 12.2788 33.3539 12.3255 33.3539 12.3721C33.3539 18.6515 33.3539 24.9215 33.3539 31.2009C31.7168 31.2009 30.0798 31.2009 28.4336 31.2009C28.4336 30.4638 28.4244 29.7174 28.4244 28.9803C28.4244 28.607 28.4244 28.2432 28.4244 27.8699C28.4244 27.1235 28.4244 26.3771 28.4244 25.6306C28.4244 25.2574 28.4244 24.8935 28.4244 24.5203C28.4244 21.1987 28.4244 17.8677 28.4244 14.5461C28.4244 14.1076 28.2232 13.9117 27.7934 13.9117C20.9251 13.9117 14.0568 13.9117 7.18848 13.9117C6.75864 13.9117 6.55744 14.1076 6.55744 14.5461C6.55744 17.1306 6.55744 19.7058 6.55744 22.2904C6.55744 23.2141 6.55744 24.1471 6.54829 25.0708C6.54829 25.7146 6.6306 25.6213 6.01785 25.6306C5.37766 25.64 4.74662 25.64 4.10643 25.6306C3.88694 25.6306 3.80463 25.6866 3.81377 25.9199C3.82292 26.9369 3.82292 27.9632 3.82292 28.9803C3.82292 29.7174 3.81377 30.4638 3.81377 31.2009C3.44795 31.2102 3.08213 31.2102 2.71631 31.2196L2.72545 31.2009C2.72545 31.0516 2.72545 30.9023 2.72545 30.7437C2.72545 24.5763 2.72545 18.4089 2.72545 12.2415C12.941 12.2322 23.1383 12.2322 33.3447 12.2322Z" fill="#EF4F6B"/>
<path d="M1.63714 11.1219C1.34448 11.1219 1.05182 11.1126 0.75002 11.1126C0.649419 11.1126 0.539673 11.1219 0.539673 10.9633C0.548818 10.2822 0.548818 9.60106 0.557964 8.91994C0.557964 8.90128 0.585401 8.89195 0.603692 8.87329C1.3079 8.87329 2.01211 8.87329 2.72546 8.87329C4.14302 8.87329 5.55143 8.87329 6.96899 8.87329C7.71892 8.87329 8.46886 8.87329 9.21879 8.87329C10.993 8.87329 12.7673 8.88262 14.5415 8.88262C19.0411 8.88262 23.5316 8.88262 28.0312 8.87329C30.1529 8.87329 32.2839 8.87329 34.4056 8.87329C34.4788 9.56374 34.4148 10.2635 34.4331 10.9633C34.4422 11.1219 34.3325 11.1126 34.2319 11.1126C33.9392 11.1126 33.6374 11.1219 33.3447 11.1219C33.2441 11.1219 33.1435 11.1126 33.0338 11.1126C23.0286 11.1126 13.0233 11.1126 3.01812 11.1126C2.91751 11.1126 2.81691 11.1219 2.70717 11.1219C2.36878 11.1219 2.00296 11.1219 1.63714 11.1219Z" fill="#7B636B"/>
<path d="M34.4239 8.88256C32.3022 8.88256 30.1713 8.88256 28.0495 8.88256C27.9946 8.78925 27.8849 8.76126 27.7934 8.71461C25.507 7.51099 23.2206 6.29804 20.9251 5.10374C20.1112 4.67455 19.3155 4.20802 18.465 3.83481C18.2546 3.72284 18.0351 3.62021 17.8431 3.48025C17.6053 3.32164 17.4132 3.3403 17.1571 3.48025C14.9439 4.65588 12.7216 5.82219 10.4992 6.99782C9.32856 7.61362 8.14878 8.24809 6.97815 8.87323C5.56059 8.87323 4.15218 8.87323 2.73462 8.87323C3.87781 8.25742 5.02101 7.63228 6.17334 7.02581C8.38657 5.85951 10.5998 4.69321 12.813 3.53624C14.6604 2.56587 16.517 1.59551 18.3644 0.634479C18.4192 0.606488 18.4741 0.559836 18.529 0.513184C19.3612 0.8864 20.1477 1.34359 20.9617 1.76346C25.4064 4.09606 29.8512 6.43799 34.2959 8.77992C34.3325 8.80791 34.3782 8.84524 34.4239 8.88256Z" fill="#EF4F6B"/>
<path d="M2.73462 11.1219C2.83522 11.1219 2.93582 11.1125 3.04557 11.1125C13.0508 11.1125 23.056 11.1125 33.0612 11.1125C33.1618 11.1125 33.2624 11.1219 33.3722 11.1219C33.3722 11.4951 33.363 11.859 33.363 12.2322C23.1566 12.2322 12.9502 12.2322 2.74376 12.2322C2.73462 11.8683 2.73462 11.4951 2.73462 11.1219Z" fill="#E04452"/>
<path d="M28.4335 31.1917C30.0705 31.1917 31.7076 31.1917 33.3538 31.1917C33.3538 31.7515 33.3538 32.302 33.3538 32.8618C33.2715 32.8618 33.1983 32.8711 33.116 32.8711C26.9336 32.8711 20.7512 32.8711 14.5688 32.8711C14.4957 32.8711 14.4134 32.8711 14.3402 32.8711C15.0536 32.5352 15.3554 31.9754 15.3005 31.201C15.6663 31.201 16.0321 31.1917 16.398 31.1917C16.7638 31.1917 17.1205 31.1917 17.4863 31.201C19.3154 31.201 21.1445 31.201 22.9645 31.201C23.3303 31.201 23.6961 31.1917 24.0528 31.1917C25.5252 31.1917 26.9794 31.1917 28.4335 31.1917Z" fill="#EDF5F5"/>
<path d="M2.73455 12.2322C2.73455 18.3996 2.73455 24.567 2.73455 30.7344C2.73455 30.8837 2.73455 31.033 2.73455 31.1916C2.36873 31.1916 2.00291 31.1916 1.63708 31.1916C1.63708 24.9309 1.63708 18.6609 1.63708 12.4002C1.63708 12.3442 1.64623 12.2882 1.64623 12.2229C2.01205 12.2322 2.36873 12.2322 2.73455 12.2322Z" fill="#FE778A"/>
<path d="M18.5198 0.513268C18.4649 0.55059 18.41 0.597242 18.3551 0.634564C16.5077 1.60493 14.6512 2.56596 12.8038 3.53632C10.5906 4.69329 8.37735 5.85959 6.16413 7.02589C5.01179 7.63237 3.87774 8.25751 2.7254 8.87331C2.0212 8.87331 1.31699 8.87331 0.603638 8.87331C1.00604 8.64938 1.3993 8.42545 1.8017 8.21085C6.57568 5.7103 11.3405 3.20976 16.0962 0.699876C16.4894 0.494608 16.8919 0.289339 17.276 0.0747393C17.4314 -0.0185648 17.5595 -0.0278952 17.715 0.0747393C17.9802 0.233356 18.2545 0.363982 18.5198 0.513268Z" fill="#FE778A"/>
<path d="M1.63708 31.1917C2.0029 31.1917 2.36872 31.1917 2.73454 31.1917L2.72539 31.2103C2.72539 31.7608 2.72539 32.3113 2.72539 32.8618C2.35957 32.8618 1.99375 32.8618 1.62793 32.8618C1.63708 32.3113 1.63708 31.7515 1.63708 31.1917Z" fill="#F9FBFB"/>
<path d="M2.73456 12.2323C2.37788 12.2323 2.01206 12.2323 1.65539 12.2323C1.65539 11.8685 1.64624 11.4952 1.64624 11.1313C2.01206 11.1313 2.37788 11.1313 2.74371 11.1313C2.73456 11.4952 2.73456 11.8685 2.73456 12.2323Z" fill="#EF4F6B"/>
<path d="M3.82288 31.1916C3.82288 30.4545 3.83202 29.7081 3.83202 28.971C4.19784 28.971 4.55452 28.971 4.92034 28.9617C6.38363 28.9617 7.83777 28.9617 9.30106 28.9617C9.66688 28.9617 10.0327 28.9617 10.3894 28.9617C11.8527 28.9617 13.3068 28.9617 14.7701 28.9617C15.3097 28.9617 15.8584 28.9617 16.398 28.9617C16.398 29.3349 16.398 29.7081 16.398 30.0813C15.6938 30.0813 14.9896 30.0813 14.2762 30.0906C14.0476 30.0906 13.8281 30.0906 13.5995 30.0906C11.4503 30.0906 9.3102 30.0906 7.161 30.0906C6.93236 30.0906 6.71287 30.0906 6.48423 30.0906C6.07268 30.0906 5.66113 30.1093 5.25873 30.0813C4.95692 30.0627 4.88376 30.184 4.90205 30.4639C4.92034 30.7065 4.9112 30.949 4.9112 31.1916C4.55452 31.1916 4.1887 31.1916 3.82288 31.1916Z" fill="#B08068"/>
<path d="M12.5751 31.2009C12.5294 31.994 12.8312 32.5632 13.6543 32.8617C11.4502 32.8617 9.31931 32.8617 7.11523 32.8617C7.94748 32.5632 8.24928 31.994 8.20355 31.2009C9.6577 31.2009 11.121 31.2009 12.5751 31.2009Z" fill="#EDF5F5"/>
<path d="M12.5752 31.2009C11.1119 31.2009 9.65775 31.2009 8.19447 31.2009C8.03899 30.6504 7.68232 30.2958 7.17017 30.0906C9.31937 30.0906 11.4594 30.0906 13.6086 30.0906C13.0965 30.2958 12.7398 30.6597 12.5752 31.2009Z" fill="#A36B4F"/>
<path d="M3.82294 31.1917C4.18876 31.1917 4.55458 31.1917 4.9204 31.1917C5.10332 31.1917 5.28623 31.201 5.46914 31.201C5.41426 31.9941 5.72521 32.5632 6.54831 32.8618C5.22221 32.8618 3.97841 32.8618 2.73462 32.8618C2.73462 32.3113 2.73462 31.7608 2.73462 31.2103C3.0913 31.201 3.45712 31.201 3.82294 31.1917Z" fill="#EDF5F5"/>
<path d="M14.2854 30.0906C14.9896 30.0906 15.6938 30.0906 16.4072 30.0813C16.4072 30.4545 16.4072 30.8184 16.4163 31.1916C16.0505 31.1916 15.6847 31.2009 15.3188 31.2009C15.1542 30.6598 14.7976 30.2959 14.2854 30.0906Z" fill="#A36B4F"/>
<path d="M5.46908 31.2009C5.28617 31.2009 5.10325 31.1915 4.92034 31.1915C4.92034 30.9489 4.93863 30.7063 4.9112 30.4638C4.88376 30.1838 4.96607 30.0625 5.26787 30.0812C5.67942 30.1092 6.09097 30.0905 6.49338 30.0905C5.98123 30.2958 5.62455 30.6597 5.46908 31.2009Z" fill="#A36B4F"/>
<path d="M6.56653 22.281C6.56653 19.6965 6.56653 17.1213 6.56653 14.5368C6.56653 14.0983 6.76773 13.9023 7.19757 13.9023C14.0659 13.9023 20.9342 13.9023 27.8025 13.9023C28.2323 13.9023 28.4335 14.0983 28.4335 14.5368C28.4335 17.8584 28.4335 21.1894 28.4335 24.511C28.0677 24.511 27.7019 24.5017 27.3452 24.5017C27.3452 22.8315 27.3452 21.1614 27.3361 19.4913C27.3361 18.7448 27.3361 17.9984 27.3361 17.252C27.3361 16.8787 27.3361 16.5055 27.3361 16.1416C27.3361 15.9084 27.3269 15.6751 27.3452 15.4419C27.3818 15.1153 27.2812 15.0127 26.9428 15.0127C24.9491 15.0313 22.9553 15.022 20.9616 15.022C16.6449 15.022 12.3282 15.022 8.01152 15.022C7.81032 15.022 7.6457 15.0033 7.6457 15.3112C7.66399 16.7015 7.65485 18.101 7.66399 19.4913C7.66399 20.415 7.66399 21.3387 7.65485 22.2624C7.29817 22.2717 6.93235 22.281 6.56653 22.281Z" fill="#FE778A"/>
<path d="M6.56654 22.2812C6.93236 22.2812 7.29818 22.2719 7.65486 22.2719C8.77062 22.2719 9.87723 22.2719 10.993 22.2812C11.3314 22.2812 11.7795 22.1226 11.9716 22.3558C12.1636 22.5891 12.0264 23.0463 12.0173 23.4008C10.6637 23.4008 9.3102 23.4008 7.96581 23.3915C7.73717 23.3915 7.64571 23.4568 7.65486 23.6994C7.67315 24.2312 7.67315 24.7631 7.65486 25.2949C7.64571 25.5562 7.73717 25.6308 7.9841 25.6215C9.33764 25.6121 10.6912 25.6121 12.0356 25.6121C12.6026 25.6121 13.1696 25.6028 13.7366 25.6215C14.075 25.6308 14.5232 25.4629 14.7061 25.6961C14.8981 25.9294 14.7609 26.3772 14.7518 26.7411C13.3983 26.7411 12.0447 26.7411 10.6912 26.7318C10.4534 26.7318 10.3711 26.8064 10.3802 27.049C10.3985 27.6835 10.3802 28.3273 10.3802 28.9618C10.0144 28.9618 9.64859 28.9618 9.29191 28.9618C9.29191 28.3273 9.28277 27.6835 9.29191 27.049C9.29191 26.8344 9.25533 26.7318 9.01755 26.7318C7.74631 26.7411 6.46594 26.7411 5.19471 26.7318C4.95692 26.7318 4.9112 26.8344 4.92034 27.049C4.92949 27.6835 4.92034 28.3273 4.92034 28.9618C4.55452 28.9618 4.19784 28.9618 3.83202 28.9711C3.83202 27.9541 3.83202 26.9277 3.82288 25.9107C3.82288 25.6775 3.90519 25.6215 4.11553 25.6215C4.75572 25.6308 5.38676 25.6308 6.02695 25.6215C6.6397 25.6121 6.55739 25.7054 6.55739 25.0617C6.56654 24.1379 6.56654 23.2049 6.56654 22.2812Z" fill="#FCB96A"/>
<path d="M27.336 24.5017C27.7019 24.5017 28.0677 24.511 28.4244 24.511C28.4244 24.8843 28.4244 25.2481 28.4244 25.6214C27.08 25.6214 25.7356 25.6307 24.3912 25.6214C24.1168 25.6214 24.0345 25.7053 24.0437 25.9759C24.0619 26.4891 24.0619 27.0023 24.0437 27.5061C24.0345 27.7767 24.1077 27.8607 24.3912 27.8607C25.7356 27.8513 27.08 27.8513 28.4244 27.8607C28.4244 28.2339 28.4244 28.5978 28.4244 28.971C27.0708 28.971 25.7173 28.9803 24.3637 28.971C24.1351 28.971 24.0437 29.0363 24.0528 29.2789C24.0711 29.9133 24.0619 30.5571 24.0619 31.1916C23.6961 31.1916 23.3303 31.2009 22.9736 31.2009C22.9736 29.0643 22.9736 26.9369 22.9645 24.8003C22.9645 24.539 23.0651 24.5017 23.2846 24.5017C24.629 24.511 25.9825 24.5017 27.336 24.5017Z" fill="#FCB96A"/>
<path d="M28.4244 27.8606C27.08 27.8606 25.7356 27.8513 24.3912 27.8606C24.1168 27.8606 24.0345 27.7767 24.0436 27.5061C24.0619 26.9929 24.0619 26.4797 24.0436 25.9759C24.0345 25.7053 24.1168 25.6213 24.3912 25.6213C25.7356 25.6307 27.08 25.6307 28.4244 25.6213C28.4244 26.3678 28.4244 27.1142 28.4244 27.8606Z" fill="#F9A14F"/>
<path d="M24.062 31.1917C24.062 30.5572 24.0712 29.9134 24.0529 29.279C24.0437 29.027 24.1352 28.9617 24.3638 28.9711C25.7174 28.9804 27.0709 28.9711 28.4244 28.9711C28.4244 29.7082 28.4336 30.4546 28.4336 31.1917C26.9794 31.1917 25.5253 31.1917 24.062 31.1917Z" fill="#F9A14F"/>
<path d="M18.4649 3.83496C19.3063 4.20818 20.102 4.6747 20.9251 5.1039C23.2206 6.29819 25.507 7.51114 27.7934 8.71476C27.8848 8.76142 27.9854 8.78941 28.0494 8.88271C23.5498 8.88271 19.0594 8.89204 14.5598 8.89204C12.7855 8.89204 11.0113 8.88271 9.23706 8.88271C9.23706 8.76142 9.33766 8.74275 9.41997 8.6961C9.90469 8.43485 10.3803 8.1736 10.865 7.92168C12.1179 7.26855 13.38 6.62475 14.6238 5.96229C15.8127 5.33716 17.0016 4.70269 18.1905 4.07755C18.3003 4.01224 18.4283 3.97492 18.4649 3.83496Z" fill="#F9FBFB"/>
<path d="M18.465 3.83491C18.4192 3.97487 18.2912 4.01219 18.1814 4.06817C16.9925 4.70264 15.8036 5.32777 14.6147 5.95291C13.3617 6.60604 12.1088 7.25917 10.8559 7.9123C10.3711 8.16422 9.88643 8.42547 9.41086 8.68672C9.32855 8.73337 9.2371 8.75203 9.22795 8.87333C8.47802 8.87333 7.72808 8.87333 6.97815 8.87333C8.14878 8.24819 9.32855 7.61372 10.5083 6.98859C12.7307 5.81296 14.9531 4.65599 17.1663 3.47102C17.4132 3.3404 17.6144 3.31241 17.8522 3.47102C18.0443 3.62031 18.2546 3.71361 18.465 3.83491Z" fill="#EDF5F5"/>
<path d="M27.3361 24.5017C25.9826 24.5017 24.629 24.511 23.2755 24.5017C23.056 24.5017 22.9554 24.539 22.9554 24.8003C22.9645 26.9369 22.9645 29.0643 22.9645 31.2009C21.1354 31.2009 19.3063 31.2009 17.4864 31.2009C17.4864 31.1449 17.4955 31.089 17.4955 31.0236C17.4955 28.1592 17.4955 25.2854 17.4955 22.421C17.4955 21.9172 17.6876 21.7212 18.1723 21.7212C18.4924 21.7212 18.8125 21.7306 19.1326 21.7212C19.4618 21.7119 19.6813 21.4786 19.6904 21.1801C19.6996 20.8628 19.471 20.6296 19.1234 20.6109C18.8308 20.6016 18.529 20.6109 18.2363 20.6109C17.0657 20.6109 16.4163 21.2827 16.4072 22.4583C16.4072 24.6323 16.398 26.797 16.398 28.971C15.8585 28.971 15.3097 28.971 14.7701 28.971C14.761 28.2339 14.761 27.4874 14.7519 26.7503C14.761 26.3958 14.8982 25.9479 14.7061 25.7053C14.5232 25.4721 14.0659 25.64 13.7367 25.6307C13.1697 25.6213 12.6026 25.6213 12.0356 25.6213C12.0265 24.8749 12.0265 24.1378 12.0173 23.3914C12.0265 23.0368 12.1637 22.5796 11.9716 22.3464C11.7795 22.1224 11.3314 22.2811 10.993 22.2717C9.87727 22.2624 8.77066 22.2624 7.65491 22.2624C7.65491 21.3387 7.65491 20.415 7.66405 19.4913C8.78896 19.4913 9.91386 19.4819 11.0479 19.4819C16.4804 19.4819 21.9037 19.4819 27.3361 19.4913C27.3361 21.1614 27.3361 22.8315 27.3361 24.5017Z" fill="#C1EBFE"/>
<path d="M16.3981 28.9616C16.3981 26.7876 16.3981 24.623 16.4072 22.449C16.4072 21.264 17.0657 20.6016 18.2363 20.6016C18.529 20.6016 18.8308 20.5922 19.1234 20.6016C19.471 20.6109 19.6996 20.8535 19.6905 21.1707C19.6813 21.4786 19.4618 21.7025 19.1326 21.7119C18.8125 21.7212 18.4924 21.7119 18.1723 21.7119C17.6876 21.7119 17.4955 21.9078 17.4955 22.4117C17.4955 25.2761 17.4955 28.1499 17.4955 31.0143C17.4955 31.0703 17.4955 31.1263 17.4864 31.1916C17.1206 31.1916 16.7639 31.1916 16.3981 31.1822C16.3981 30.809 16.3981 30.4451 16.3889 30.0719C16.3981 29.708 16.3981 29.3348 16.3981 28.9616Z" fill="#6D555C"/>
<path d="M4.92041 28.9617C4.92041 28.3272 4.92956 27.6834 4.92041 27.0489C4.92041 26.8343 4.95699 26.7317 5.19478 26.7317C6.46601 26.741 7.74638 26.741 9.01761 26.7317C9.2554 26.7317 9.30113 26.8343 9.29198 27.0489C9.28284 27.6834 9.29198 28.3272 9.29198 28.9617C7.83784 28.9617 6.37455 28.9617 4.92041 28.9617Z" fill="#F9A14F"/>
<path d="M14.7518 26.741C14.7609 27.4781 14.7609 28.2246 14.7701 28.9617C13.3068 28.9617 11.8526 28.9617 10.3893 28.9617C10.3893 28.3272 10.3985 27.6834 10.3893 27.0489C10.3802 26.8063 10.4625 26.7317 10.7003 26.7317C12.0447 26.741 13.3982 26.741 14.7518 26.741Z" fill="#F9A14F"/>
<path d="M27.3361 19.4913C21.9037 19.4913 16.4803 19.4913 11.0479 19.482C9.92299 19.482 8.79809 19.4913 7.66404 19.4913C7.66404 18.1011 7.66404 16.7015 7.64575 15.3113C7.64575 14.994 7.81037 15.022 8.01157 15.022C12.3283 15.022 16.645 15.022 20.9617 15.022C22.9554 15.022 24.9491 15.0314 26.9429 15.0127C27.2812 15.0127 27.3818 15.1153 27.3453 15.4419C27.3178 15.6752 27.3361 15.9084 27.3361 16.1417C21.3824 16.1417 15.4195 16.1417 9.46572 16.1417C8.74322 16.1417 8.76151 16.1417 8.74322 16.8694C8.73407 17.1774 8.81638 17.2613 9.12733 17.2613C15.2 17.252 21.2726 17.252 27.3361 17.252C27.3361 17.9984 27.3361 18.7449 27.3361 19.4913Z" fill="#C8BFC2"/>
<path d="M27.3361 17.2519C21.2634 17.2519 15.1908 17.2519 9.12728 17.2613C8.82547 17.2613 8.74316 17.1773 8.74316 16.8694C8.76146 16.1416 8.74316 16.1416 9.46566 16.1416C15.4194 16.1416 21.3823 16.1416 27.3361 16.1416C27.3361 16.5148 27.3361 16.8787 27.3361 17.2519Z" fill="#D7D1D3"/>
<path d="M12.0173 23.3914C12.0265 24.1378 12.0265 24.8749 12.0356 25.6213C10.6821 25.6213 9.32855 25.6213 7.98416 25.6307C7.73723 25.6307 7.64577 25.5653 7.65492 25.3041C7.67321 24.7723 7.67321 24.2404 7.65492 23.7086C7.64577 23.4567 7.73723 23.3914 7.96587 23.4007C9.31941 23.4007 10.6638 23.3914 12.0173 23.3914Z" fill="#F9A14F"/>
</g>
<defs>
<clipPath id="clip0_4823_25534">
<rect width="35" height="34" fill="white"/>
</clipPath>
</defs>
</svg>
