<svg width="35" height="32" viewBox="0 0 35 32" fill="none" xmlns="http://www.w3.org/2000/svg">
<g clip-path="url(#clip0_4823_25502)">
<path d="M31.1644 31.9737C31.0274 31.9824 30.8904 31.9911 30.7534 31.9911C20.7192 31.9911 10.6935 31.9911 0.659263 31.9911C0.419537 31.9911 0.179811 31.9824 -0.00854492 31.7988C-0.00854492 31.0731 -0.00854492 30.3562 -0.00854492 29.6305C0.273989 28.9747 0.762003 28.7037 1.4555 28.7737C1.80652 28.8086 2.15755 28.7649 2.50858 28.7649C3.17639 28.7737 3.84419 28.7824 4.50344 28.7824C6.84933 28.7824 9.18666 28.7824 11.5326 28.7824C15.5052 28.7824 19.4778 28.7824 23.4504 28.7824C25.1712 28.7824 26.8836 28.7737 28.6045 28.7737C29.4521 28.7824 30.2997 28.7824 31.1473 28.7911C31.1644 29.8491 31.1644 30.907 31.1644 31.9737Z" fill="#8C8A97"/>
<path d="M2.52569 12.7737C1.30993 12.7038 0.316781 11.9169 0.0684932 10.6491C0.0599315 10.5879 0.0856164 10.5092 0 10.4743C0 10.4306 0 10.3781 0 10.3344C0.119863 10.2469 0.0684932 10.1245 0.0684932 10.0109C0.0770548 9.51252 0.0856164 9.00541 0.0684932 8.50705C0.0599315 8.23601 0.136986 8.14858 0.410959 8.15733C1.91781 8.16607 3.4161 8.15733 4.92295 8.15733H4.95719H4.99144C4.99144 9.0229 4.99144 9.87973 4.99144 10.7453C4.79452 11.3311 4.52055 11.8557 4.01541 12.2404C3.56164 12.5814 3.05651 12.695 2.52569 12.7737Z" fill="#E50E28"/>
<path d="M4.9144 8.15737C3.40755 8.15737 1.90926 8.16611 0.402414 8.15737C0.128441 8.15737 0.0513866 8.23606 0.0599482 8.5071C0.0770715 9.00546 0.0685099 9.51256 0.0599482 10.0109C0.0599482 10.1158 0.111318 10.247 -0.00854492 10.3344C-0.00854492 9.59125 -0.00854492 8.83934 -0.00854492 8.09617C0.00857837 8.09617 0.0342633 8.09617 0.0513866 8.09617C1.54967 8.09617 3.04796 8.09617 4.54625 8.10491C4.68324 8.10491 4.81166 8.05245 4.9144 8.15737Z" fill="#EC6063"/>
<path d="M2.40578 3.26995C2.40578 2.45683 2.39722 1.63497 2.40578 0.821858C2.40578 0.262295 2.64551 0.0262295 3.19345 0C3.27051 0 3.35612 0 3.43318 0C11.738 0 20.0342 0 28.3304 0C28.476 0 28.6301 0.00874317 28.7756 0.0174863C28.7756 1.0929 28.7671 2.17705 28.7671 3.2612C28.6044 3.26995 28.4417 3.26995 28.2791 3.27869C26.8407 3.27869 25.4024 3.27869 23.964 3.27869C22.6198 3.27869 21.2756 3.27869 19.9315 3.26995C19.7774 3.26995 19.6661 3.29618 19.6661 3.48852C19.6232 3.34863 19.5633 3.2612 19.3835 3.26995C18.0308 3.28743 16.678 3.28743 15.3253 3.28743C13.8869 3.28743 12.4486 3.28743 11.0102 3.28743C9.57188 3.28743 8.14208 3.28743 6.70373 3.28743C5.27393 3.26995 3.83558 3.26995 2.40578 3.26995Z" fill="#FCC751"/>
<path d="M31.1644 28.7912C30.3168 28.7824 29.4692 28.7824 28.6216 28.7737C28.6301 27.6371 28.6301 26.5092 28.6387 25.3726C28.887 25.3726 29.1353 25.3726 29.3921 25.3639C29.8117 25.3551 30 25.1715 30 24.7431C30 21.954 30 19.1562 30 16.3671C30 15.9387 29.8117 15.7464 29.4007 15.7289C29.1524 15.7201 28.9041 15.7201 28.6473 15.7201C28.6473 14.6447 28.6473 13.5693 28.6387 12.5027C29.4007 11.9606 29.9315 11.2699 29.9658 10.2644C30.0599 11.2699 30.5051 12.0305 31.3956 12.4939C31.738 12.6688 32.1147 12.6688 32.4658 12.7824C32.4658 18.107 32.4658 23.4316 32.4658 28.7475C32.0291 28.7649 31.601 28.7824 31.1644 28.7912Z" fill="#B9BAC0"/>
<path d="M28.2792 3.27847C28.4418 3.26973 28.6045 3.26973 28.7672 3.26099C30.0429 3.26973 31.31 3.26973 32.5857 3.27847C33.322 4.7823 34.0583 6.28612 34.7946 7.78995C34.846 7.89487 34.923 7.9823 34.923 8.1047C33.2792 8.1047 31.6268 8.11345 29.9829 8.11345C29.9744 8.1047 29.9573 8.1047 29.9401 8.1047H29.9316C29.8973 7.9823 29.8716 7.85989 29.8374 7.73749C29.3151 6.24241 28.7929 4.76481 28.2792 3.27847Z" fill="#FB502B"/>
<path d="M2.40584 3.26978C3.83564 3.26978 5.26543 3.26978 6.70379 3.26978C6.54968 3.70693 6.40413 4.14409 6.25002 4.58125C5.84762 5.75284 5.44523 6.91568 5.03427 8.08726C5.01715 8.10475 5.00002 8.13098 4.97434 8.14846H4.94009H4.90584C4.8031 8.04355 4.66612 8.08726 4.54625 8.08726C3.04797 8.07852 1.54968 8.07852 0.0513916 8.07852C0.625022 6.8807 1.20721 5.69163 1.78084 4.49382C1.99488 4.10038 2.20036 3.68945 2.40584 3.26978Z" fill="#FB502B"/>
<path d="M32.4658 12.7911C32.1148 12.6774 31.7381 12.6774 31.3956 12.5026C30.5052 12.0304 30.0514 11.2698 29.9658 10.273C29.9744 9.57359 29.9744 8.87414 29.9829 8.17468C31.5155 8.17468 33.0394 8.17468 34.572 8.16594C34.6918 8.16594 34.8203 8.2184 34.923 8.10474C34.9829 9.1102 35.1199 10.1244 34.786 11.0949C34.4692 12.0392 33.7672 12.5725 32.7997 12.7211C32.6799 12.7299 32.5771 12.7648 32.4658 12.7911Z" fill="#E50E28"/>
<path d="M32.5856 3.26984C31.3099 3.2611 30.0428 3.2611 28.7671 3.25235C28.7671 2.1682 28.7757 1.09279 28.7757 0.00863876C29.8116 -0.000104413 30.8476 -0.0175908 31.875 -0.00884758C32.3373 -0.000104413 32.577 0.270934 32.5856 0.743065C32.5941 1.5999 32.5856 2.4305 32.5856 3.26984Z" fill="#FBA52A"/>
<path d="M31.1644 28.7911C31.6011 28.7823 32.0377 28.7648 32.4744 28.7561C32.8939 28.7561 33.3134 28.7561 33.7329 28.7648C34.5634 28.7823 34.9915 29.2282 34.9915 30.0676C34.9915 30.5659 34.9829 31.0643 34.9915 31.5714C34.9915 31.8512 34.8631 31.9998 34.6062 31.9998C33.459 31.9911 32.3117 32.0348 31.1644 31.9736C31.1644 30.9069 31.1644 29.849 31.1644 28.7911Z" fill="#706F7F"/>
<path d="M28.6387 12.5027C28.6387 13.5781 28.6387 14.6536 28.6473 15.7202C28.4333 15.7202 28.2192 15.729 28.0052 15.729C27.3973 15.7552 26.7894 15.6765 26.1815 15.7639C22.2175 15.7639 18.262 15.7639 14.298 15.7639C13.8613 15.7639 13.6987 15.9213 13.6987 16.376C13.6901 19.1563 13.6901 21.9454 13.6987 24.7257C13.6987 25.1628 13.8442 25.3027 14.2723 25.3377C14.3065 25.3377 14.3408 25.3465 14.375 25.3465C18.3134 25.3465 22.2517 25.3465 26.1901 25.3377C27.012 25.3465 27.8339 25.3552 28.6559 25.3639C28.6473 26.5006 28.6473 27.6284 28.6387 28.765C26.9178 28.765 25.2055 28.7738 23.4846 28.7738C19.512 28.7738 15.5394 28.7738 11.5668 28.7738C11.5668 24.6732 11.5668 20.5727 11.5668 16.4721C11.5668 15.8863 11.4127 15.729 10.8391 15.729C10.2055 15.729 9.5634 15.7202 8.92983 15.729C8.536 15.7377 8.1336 15.6765 7.73976 15.7639C6.91785 15.7639 6.10449 15.7552 5.28257 15.7552C4.64901 15.7552 4.53771 15.8689 4.53771 16.5333C4.53771 20.4678 4.53771 24.3934 4.53771 28.3279C4.53771 28.459 4.54627 28.5814 4.55483 28.7126C4.54627 28.7301 4.53771 28.7475 4.53771 28.7738C3.8699 28.765 3.20209 28.765 2.54285 28.7563C2.54285 25.4514 2.55141 22.1465 2.55141 18.8415C2.55141 16.8131 2.55141 14.7934 2.55141 12.765C3.07367 12.6863 3.58737 12.5727 4.03257 12.2404C4.53771 11.8557 4.81168 11.3312 5.0086 10.7454C5.26545 10.9727 5.28257 11.3399 5.47093 11.6109C6.09593 12.494 6.94353 12.8525 7.95381 12.6951C8.89559 12.5465 9.55483 11.9781 9.88018 11.0426C9.91442 10.9377 9.8973 10.7716 10.0771 10.7541C10.1028 10.8153 10.137 10.8765 10.1541 10.9465C10.6507 12.5202 12.3545 13.2109 13.7757 12.4066C14.4178 12.0393 14.7689 11.4448 14.9915 10.7541C15.1627 10.7628 15.1199 10.9202 15.1541 11.0164C15.4452 11.7945 15.9589 12.3803 16.7381 12.6164C17.9196 12.9749 19.1011 12.5552 19.7261 11.4011C19.8374 11.1913 19.8202 10.9027 20.06 10.7628C20.0857 10.824 20.1199 10.8853 20.137 10.9552C20.6336 12.529 22.3374 13.2197 23.75 12.4153C24.3922 12.0481 24.7518 11.4536 24.9744 10.7628C25.1627 10.7891 25.137 10.9639 25.1798 11.0863C25.4881 11.9169 26.0617 12.4503 26.9007 12.6601C27.4744 12.8087 28.0565 12.7038 28.6387 12.5027Z" fill="#E8E9EA"/>
<path d="M4.52051 28.7824C4.52051 28.7649 4.52907 28.7387 4.53763 28.7212C5.49654 28.7212 6.44688 28.7124 7.40578 28.7299C7.66263 28.7299 7.73112 28.6425 7.73112 28.3889C7.72256 24.1835 7.72256 19.978 7.72256 15.7813C8.1164 15.6939 8.51023 15.7463 8.91263 15.7463C9.54619 15.7376 10.1883 15.7376 10.8219 15.7463C11.4041 15.7463 11.5496 15.9037 11.5496 16.4895C11.5496 20.59 11.5496 24.6906 11.5496 28.7911C9.20373 28.7824 6.8664 28.7824 4.52051 28.7824ZM10.1027 22.0851C10.1113 21.919 10.1198 21.7616 10.1027 21.5955C10.0685 21.272 9.85441 21.0447 9.58044 21.0622C9.28078 21.0709 9.09243 21.2545 9.05818 21.5605C9.01537 21.919 9.01537 22.2775 9.05818 22.6359C9.09243 22.9245 9.28934 23.0993 9.56332 23.0993C9.86297 23.0993 10.0513 22.9157 10.0856 22.6097C10.1198 22.4348 10.1027 22.26 10.1027 22.0851Z" fill="#10B0C0"/>
<path d="M10.0429 10.7541C9.87163 10.7716 9.88019 10.9377 9.84594 11.0426C9.5206 11.9869 8.86135 12.5552 7.91957 12.6951C6.9093 12.8525 6.06169 12.5027 5.43669 11.6109C5.23978 11.3399 5.23121 10.9727 4.97437 10.7454C4.97437 9.8798 4.97437 9.02297 4.97437 8.15739C4.99149 8.13991 5.00861 8.11368 5.0343 8.09619C6.68669 8.09619 8.34765 8.10493 10.0001 8.10493C10.0086 8.98799 9.97437 9.87106 10.0429 10.7541Z" fill="#F1F1F1"/>
<path d="M15.3253 3.27847C16.6781 3.27847 18.0308 3.27847 19.3836 3.26099C19.5634 3.26099 19.6233 3.33967 19.6661 3.47957C19.6832 3.77683 19.7003 4.08284 19.726 4.38011C19.8031 5.62164 19.8887 6.85443 19.9658 8.09596C18.3134 8.09596 16.6524 8.09596 15 8.1047C15.1113 6.49596 15.214 4.88722 15.3253 3.27847Z" fill="#FEFDFD"/>
<path d="M10.0001 8.10479C8.34766 8.10479 6.6867 8.09605 5.0343 8.09605C5.4367 6.92447 5.8391 5.76162 6.25006 4.59004C6.40416 4.15288 6.54971 3.71572 6.70382 3.27856C8.14218 3.27856 9.57197 3.27856 11.0103 3.27856C10.8391 4.12665 10.6593 4.97474 10.4966 5.82283C10.3511 6.58348 10.1285 7.32665 10.0514 8.09605C10.0343 8.10479 10.0172 8.11354 10.0001 8.10479Z" fill="#FEFDFD"/>
<path d="M28.2792 3.27852C28.7929 4.76486 29.3151 6.2512 29.8288 7.72879C29.8716 7.8512 29.8973 7.9736 29.923 8.096C28.2706 8.096 26.6182 8.096 24.9658 8.096C24.6319 6.48726 24.298 4.87852 23.9641 3.26978C25.4025 3.27852 26.8408 3.27852 28.2792 3.27852Z" fill="#FEFDFD"/>
<path d="M10.0514 8.10484C10.1284 7.33544 10.351 6.58353 10.4966 5.83162C10.6593 4.98353 10.8391 4.13544 11.0103 3.28735C12.4487 3.28735 13.887 3.28735 15.3254 3.28735C15.2141 4.8961 15.1113 6.50484 15 8.11358H14.9658C13.3305 8.0961 11.6867 8.0961 10.0514 8.10484Z" fill="#FB502A"/>
<path d="M23.9641 3.27852C24.298 4.88726 24.6319 6.496 24.9658 8.10475L24.9401 8.096C23.4418 8.096 21.9435 8.096 20.4538 8.10475C20.3339 8.10475 20.2055 8.06103 20.0942 8.16595C20.0685 8.16595 20.0429 8.17469 20.0172 8.17469C20 8.14846 19.9829 8.13098 19.9658 8.10475C19.8887 6.86322 19.8031 5.63043 19.7261 4.3889C19.7089 4.09163 19.6918 3.78562 19.6661 3.48835C19.6661 3.296 19.7774 3.26978 19.9315 3.26978C21.2757 3.26978 22.6199 3.26978 23.9641 3.27852Z" fill="#FB502A"/>
<path d="M28.6387 25.3726C27.8168 25.3638 26.9949 25.3551 26.173 25.3464C26.173 22.1551 26.173 18.9638 26.173 15.7726C26.7809 15.6852 27.3887 15.7551 27.9966 15.7376C28.2106 15.7289 28.4247 15.7289 28.6387 15.7289C28.887 15.7289 29.1353 15.7289 29.3921 15.7376C29.8031 15.7551 29.9915 15.9475 29.9915 16.3759C29.9915 19.1649 29.9915 21.9628 29.9915 24.7518C29.9915 25.1802 29.8031 25.3638 29.3836 25.3726C29.1353 25.3726 28.887 25.3726 28.6387 25.3726Z" fill="#11B0C0"/>
<path d="M24.9658 8.09619C26.6182 8.09619 28.2706 8.09619 29.923 8.09619H29.9315C29.923 8.11368 29.923 8.13991 29.9401 8.15739L29.9572 8.17488L29.9743 8.16614C29.9658 8.86559 29.9658 9.56504 29.9572 10.2645C29.923 11.2612 29.3921 11.9519 28.6301 12.5027C28.0565 12.7038 27.4658 12.8088 26.8664 12.6514C26.0274 12.4328 25.4538 11.9082 25.1456 11.0776C25.1028 10.9552 25.1284 10.7803 24.9401 10.7541C24.9401 9.88854 24.9401 9.03171 24.9401 8.16614C24.9401 8.13991 24.9401 8.12242 24.9315 8.09619H24.9658Z" fill="#F1F1F1"/>
<path d="M34.9229 8.09619C34.8202 8.20985 34.6918 8.15739 34.5719 8.15739C33.0394 8.16614 31.5154 8.16614 29.9829 8.16614L29.9657 8.17488L29.9486 8.15739C29.9657 8.14865 29.9829 8.13116 29.9829 8.11368C31.6267 8.10493 33.2705 8.10493 34.9229 8.09619Z" fill="#EC6063"/>
<path d="M29.9829 8.11368C29.9829 8.13116 29.9658 8.14865 29.9486 8.15739C29.9401 8.13991 29.9315 8.12242 29.9401 8.09619C29.9572 8.10493 29.9658 8.10493 29.9829 8.11368Z" fill="#B9BAC0"/>
<path d="M26.173 15.7725C26.173 18.9637 26.173 22.155 26.173 25.3462C22.2346 25.3462 18.2963 25.355 14.3579 25.355C14.3237 25.355 14.2894 25.355 14.2552 25.3462C13.8271 25.3113 13.6815 25.1714 13.6815 24.7342C13.6815 21.9539 13.673 19.1648 13.6815 16.3845C13.6815 15.9298 13.8442 15.7725 14.2809 15.7725C18.2449 15.7725 22.2089 15.7725 26.173 15.7725Z" fill="#00C5C7"/>
<path d="M7.72256 15.7726C7.72256 19.9781 7.72256 24.1835 7.73112 28.3803C7.73112 28.6338 7.67119 28.7212 7.40578 28.7212C6.44688 28.7038 5.49654 28.7125 4.53763 28.7125C4.52907 28.5814 4.52051 28.459 4.52051 28.3278C4.52051 24.3934 4.52051 20.4677 4.52051 16.5333C4.52051 15.8775 4.63181 15.7551 5.26537 15.7551C6.07873 15.7726 6.90064 15.7726 7.72256 15.7726Z" fill="#00C5C7"/>
<path d="M19.9658 8.09615C19.9829 8.12237 20.0001 8.13986 20.0172 8.16609C19.9573 9.03166 19.9829 9.8885 20.0343 10.7541C19.7946 10.894 19.8117 11.1825 19.7004 11.3923C19.084 12.5464 17.8939 12.9661 16.7124 12.6076C15.9333 12.3716 15.4196 11.7945 15.1285 11.0076C15.0942 10.9114 15.1371 10.7541 14.9658 10.7453C14.9658 9.87975 14.9658 9.02292 14.9744 8.15735C14.9744 8.13112 14.9744 8.11363 14.9744 8.0874H15.0086C16.6525 8.09615 18.3134 8.09615 19.9658 8.09615Z" fill="#F1F1F1"/>
<path d="M14.9657 8.16594C14.9657 9.03151 14.9657 9.88834 14.9572 10.7539C14.7346 11.4446 14.3835 12.0392 13.7414 12.4064C12.3287 13.2107 10.625 12.52 10.1198 10.9463C10.1027 10.8851 10.0685 10.8151 10.0428 10.7539C9.97429 9.87086 10.0085 8.9878 9.99997 8.11348C10.0171 8.11348 10.0342 8.11348 10.0428 8.10474C10.1455 8.2184 10.2825 8.16594 10.3938 8.16594C11.9263 8.16594 13.4418 8.16594 14.9657 8.16594Z" fill="#E50E28"/>
<path d="M20.0257 10.7539C19.9743 9.88837 19.9486 9.03154 20.0085 8.16597C20.0342 8.16597 20.0599 8.15723 20.0856 8.15723C21.7038 8.15723 23.3219 8.15723 24.9401 8.16597C24.9401 9.03154 24.9401 9.88837 24.9401 10.7539C24.7175 11.4447 24.3664 12.0392 23.7157 12.4064C22.3031 13.2108 20.5993 12.5201 20.1027 10.9463C20.0856 10.8764 20.0514 10.8151 20.0257 10.7539Z" fill="#E50E28"/>
<path d="M10.1027 22.0852C10.1027 22.2601 10.1198 22.4349 10.1027 22.6098C10.0599 22.9158 9.87155 23.0994 9.58046 23.0994C9.29792 23.0994 9.10957 22.9246 9.07532 22.636C9.03251 22.2776 9.03251 21.9191 9.07532 21.5606C9.10957 21.2546 9.29792 21.0797 9.59758 21.0623C9.87155 21.0535 10.0856 21.2808 10.1198 21.5956C10.1198 21.7617 10.1027 21.9278 10.1027 22.0852Z" fill="#FEFDFD"/>
<path d="M14.9658 8.16614C13.4418 8.16614 11.9178 8.16614 10.4024 8.15739C10.2826 8.15739 10.1541 8.20985 10.0514 8.09619C11.6952 8.09619 13.3305 8.09619 14.9743 8.09619C14.9658 8.12242 14.9658 8.13991 14.9658 8.16614Z" fill="#EC6063"/>
<path d="M24.9487 8.16614C23.3305 8.16614 21.7124 8.16614 20.0942 8.15739C20.197 8.05247 20.334 8.09619 20.4538 8.09619C21.9521 8.09619 23.4504 8.09619 24.9401 8.08745C24.9401 8.12242 24.9487 8.13991 24.9487 8.16614Z" fill="#EC6063"/>
</g>
<defs>
<clipPath id="clip0_4823_25502">
<rect width="35" height="32" fill="white"/>
</clipPath>
</defs>
</svg>
